<svg><defs><font horiz-adv-x="0"><font-face font-family="Jester" font-weight="5" ascent="800" descent="-200" x-height="457.999" cap-height="691.999" bbox="-179.002 -296 1060 917" underline-thickness="20" underline-position="-190" unicode-range="U+0020-U+F002"/><glyph glyph-name=".notdef" horiz-adv-x="800" d="M50 0v800h700V0H50zm650 50v700H100V50h600z"/><glyph glyph-name="space" horiz-adv-x="267"/><glyph glyph-name="exclam" unicode="!" horiz-adv-x="246" d="M186 695l-5-27-2-71-1-7-8-84-2-32c0-51.334-.667-87.667-2-109s-2.666-45-4-71c1.334-49.333 2-77 2-83 0-4.667-3.332-10.667-10-18s-15.333-12.333-26-15c-16.667-2.667-29.167 1.833-37.5 13.5s-13.833 28-16.5 49-4.5 42.167-5.5 63.5-1.5 48.666-1.5 82v117l3 107 2 53 1 5 3 10c9.333 30.666 21 51.333 35 62l10 6c8 5.333 17 8 27 8 18 0 28.667-7.333 32-22l2-13zm-5-640c0-26-3.167-43.502-9.5-52.502s-18.833-15.167-37.5-18.5c-22.667-2.667-40.667 2-54 14s-20 29-20 51c0 10 1 18.667 3 26s6.333 15.333 13 24c8 13.333 16.5 22.833 25.5 28.5s18.5 7.834 28.5 6.5c12 0 21.833-4.5 29.5-13.5S172.667 100.333 176 87s5-24 5-32z"/><glyph glyph-name="quotedbl" unicode="&quot;" horiz-adv-x="336" d="M287 597l-1.997-24-3-40c0-32-4.5-55.668-13.5-71s-20.833-23-35.5-23c-6 0-13 1.666-21 5l-15 10c-5.333 8-8 15.332-8 22l-1 5 2 50-1 13-2 18c-.667 2.666-.334 8.5 1 17.5l3.5 24.5c1 7.332 1.5 14.5 1.5 21.5V642c0 7.332-.168 14.832-.5 22.5s-.5 15.5-.5 23.5c0 10.666 7.332 14.666 22 12 2.666.666 5.166.5 7.5-.5s10.165-4 23.498-9 24.167-9.668 32.5-14S290 661.332 290 644c0-10-1-25.667-3-47zm-143.997 0l-1.997-24.002-3-40c0-32-4.5-55.667-13.5-71s-20.833-23-35.5-23c-6 0-13 1.667-21 5l-15 10c-5.333 8-8 15.333-8 22l-1 5 2 50-1 13-2 18c-.667 2.667-.334 8.5 1 17.5l3.5 24.5c1 7.333 1.5 14.5 1.5 21.5v16.5c0 7.333-.168 14.833-.5 22.5s-.5 15.5-.5 23.5c0 10.667 7.332 14.667 22 12 2.666.667 5.166.5 7.5-.5s10.165-4 23.498-9 24.166-9.667 32.5-14 12.5-15.166 12.5-32.5c0-10-1-25.666-3-47z"/><glyph glyph-name="dollar" unicode="$" horiz-adv-x="571" d="M531 542l.002-18.995v-16c-1.333-8-2-13.667-2-17-3.333-16-13.333-24-30-24-5.333 0-10.833 1.167-16.5 3.5s-11.834 7.666-18.5 16-12.668 17.165-18 26.498l-4 7-4 65c0 32-6.5 54.5-19.5 67.5s-37.834 22.5-74.5 28.5l-26 2c0-46 .332-92.333 1-139l2-140-3-73 53-24 8-4 30-15c38.666-18 68.166-37.5 88.5-58.5s30.5-42.833 30.5-65.5c0-27.333-14.5-57.333-43.5-90S428 18.17 402 6.503s-54-17.5-84-17.5l-1-147c0-10.668-8-16-24-16-17.334 0-26 5.332-26 16l2 143c-3.334-.668-8.334-1-15-1-12 0-24.334 1.5-37 4.5s-25.835 7.832-39.502 14.5-25.167 10-34.5 10c-14.667 0-22-14.668-22-44-1.333-4.668-5.333-7-12-7-3.333 0-6.5.332-9.5 1s-6.333 2-10 4l-16.5 9c-7.333 4-12.166 8.166-14.5 12.5S54.336 2.667 53.003 18l-4 27v7c-.667 4.668-1 14-1 28v108c0 15.334-.667 27.667-2 37-.667 2 1.333 5.333 6 10s12 6 22 4l22-7c16-8 25-15.667 27-23v-14c-.667-5.333-.5-10.666.5-16s3.5-13.332 7.5-24c13.333-44.666 37.666-69.333 73-74l12-2 13-2 21-1h14v163l-9 6-4 3-81 45-38 26c-14.668 10-25.835 18.333-33.502 25s-19.667 21-36 43S38 439 38 477c0 6 .5 13.333 1.5 22s1.833 15.334 2.5 20l6 23c4 16 10.333 31.668 19 47s21.334 33.667 38 55 34.668 39.333 54 54l17 12c22.668 14 40.335 23.667 53.002 29s24.334 8 35 8l4 96c1.334 10.667 10.667 15 28 13 13.333-2.667 20-7.667 20-15l1-90c15.333 0 28.166-.833 38.5-2.5S379.666 742 397 734l18-8 4-2c8-5.333 14.333-11.333 19-18l5 12 3 8 4 15c5.333 9.333 14.333 14 27 14 8 0 17.667-3 29-9 8-6 14.167-16.167 18.5-30.5s6.5-37.833 6.5-70.5V542zm-261.998 3.005l-1 63v63l-10-5-21-12c-20-12-34.333-22.5-43-31.5s-19-23.833-31-44.5c-13.333-25.333-20.833-44.5-22.5-57.5l-4-32c-1-8.333-1.5-17.5-1.5-27.5 0-12 2.167-21.333 6.5-28s11.5-14.667 21.5-24 22.167-18 36.5-26 32.833-16.333 55.5-25l13-4zm130-378c-2.667 5.333-7.502 10.167-14.502 14.5s-19.833 9.833-38.5 16.5l-33 13v-65l1-33 2-32c8.667 0 17.334 1.167 26 3.5s15.335 5.5 20.002 9.5c17.333 11.333 29.333 19.5 36 24.5s10 11.167 10 18.5c0 6-3 16-9 30z"/><glyph glyph-name="percent" unicode="%" horiz-adv-x="927" d="M836 686c6.667-4.667 10-10.667 10-18s-3.666-14-11-20l-14-7c-11.332-6-22-12.667-32-20s-23.666-18.666-41-34l-14-13-20-19-23-19c-10.666-8-24.666-20.666-42-38s-41.665-43.332-72.998-78l-64-70-60-68-14-19-59-74-74-93-57-73-32-34c-4-4-6.333-8.666-7-14l-14 7c-5.333 0-8 6.334-8 19 0 7.334 1 14.334 3 21s6.667 15 14 25l20 30 34 46 10 13 30 41 22 28 62 79 64 79 65 80 26 30 30 35 5 6 17 22-4 2h-2l-46-13c-6.667-2-13.334-3.666-20-5h-13c-16 0-35.668 5-59 15l-20 10c-7.334 4-13.334 6.334-18 7-4-.666-6-2-6-4l-3-65c0-19.332-5.168-48.5-15.5-87.5S359 324.67 343 300l-6-7-10-14c-21.334-26.666-41.834-42.166-61.5-46.5s-32-6.5-37-6.5H217c-17.334 0-38.667 5.334-64 16-12.667 6.668-19.834 10.668-21.5 12s-6.168 4.667-13.5 10l-9 8-14 12c-26.668 21.333-44.5 44.666-53.5 70S28 415.33 28 462c0 16.666 3 37.666 9 63s13 47.832 21 67.5 18 37.833 30 54.5l15 17c33.332 36 67.665 54 102.998 54 32 0 61.833-9.333 89.5-28s44.5-31.334 50.5-38l9-8 14-15c10-10 21.833-17.5 35.5-22.5s30.834-7.5 51.5-7.5c17.334 0 33.834 1.332 49.5 4s39.668 9 72 19 56.667 19 73 27 41.166 23.332 74.5 46l26 15 17 14c4.666 4.666 11.333 6 20 4 4.667-1.334 9.667-4.667 15-10l13-13zm64-460c0-7.333-.333-15.17-1-23.502s-4.5-30.166-11.5-65.5S861.333 67.667 830 35s-68.666-49-112-49c-11.332 0-20.5.668-27.5 2S671.335-8 654-4s-41.665 21-72.998 51l-9 9-16 16c-11.333 11.334-18.833 20.834-22.5 28.5s-7.334 19.168-11 34.5-5.5 31.334-5.5 48c0 12 .332 22 1 30 0 16.668 1.166 30.835 3.5 42.502s6.832 28 13.5 49 16.333 41.167 29 60.5 29.667 37.333 51 54 45.666 25 73 25c20 0 43-4 69-12s51-22.833 75-44.5 41.332-44.5 52-68.5 16-55 16-93zM345 544.997l-18 22-6 10c-5.332 8.667-9.165 16-11.498 22s-3.833 11-4.5 15c0 18-2.833 30.167-8.5 36.5s-16.834 9.5-33.5 9.5c-8.668 0-17.5-.667-26.5-2s-22.834-7.5-41.5-18.5-34.5-25.833-47.5-44.5-23.834-39.834-32.5-63.5-14.168-41.168-16.5-52.5-3.5-26-3.5-44l-1-29c0-42 8.332-72.334 25-91s43-28 79-28c41.332 0 70.665 15.166 87.998 45.5s29.333 54.832 36 73.5 12.667 39.666 18 63l3 15c4 27.332 6 44 6 50 0 4.666-1.333 8.333-4 11zm489-263c-4 31.333-14.5 56.164-31.5 74.497s-36.5 27.5-58.5 27.5c-13.333 0-25.666-1.833-37-5.5s-20.665-7.5-27.998-11.5-17.666-11.667-31-23c-6-4-12.5-11.167-19.5-21.5s-14.332-22.166-22-35.5-14-32-19-56-7.5-41-7.5-51v-20c0-16.666 1.834-30.666 5.5-42s10.668-23.665 21-36.998 22.667-24.166 37-32.5 29.5-12.5 45.5-12.5c8.667 0 18 1.668 28 5s20.333 8 31 14c10.667 7.334 21.167 17.834 31.5 31.5s18.666 27.668 25 42 10.5 24.5 12.5 30.5 4.5 14.334 7.5 25 5.5 23.5 7.5 38.5 3 27.834 3 38.5c0 9.334-.334 16.334-1 21z"/><glyph glyph-name="ampersand" unicode="&" horiz-adv-x="819" d="M815 399c10.667-13.333 16-25.665 16-36.998 0-16.667-9-28.834-27-36.5s-35.5-12.668-52.5-15L698 303c-18.668-2.668-30-3.668-34-3l1-22-1-17c0-16-1.668-29.334-5-40s-7.334-20.668-12-30l-24-38c3.332-4 9.165-9.5 17.498-16.5s16.833-13.5 25.5-19.5l17-10c13.333-8 21.5-13.834 24.5-17.5s4.5-9.835 4.5-18.502c0-22-12.667-33-38-33l-17 2-10 2c-14 2.667-26.333 6.834-37 12.5l-29 15.5-19 13c-2.667 2-8.667 1.334-18-2l-40-27c-20-12.666-38.5-22.5-55.5-29.5s-31.833-12.332-44.5-16-30.667-8.333-54-14-49.666-8.5-79-8.5-60 5.667-92 17l-17 6-23 9c-19.332 8-35.165 16.667-47.498 26S66.334 67.166 53 85.5s-21.165 34.332-23.498 48-3.5 24.833-3.5 33.5c0 19.333 5.833 40 17.5 62s21.5 38.167 29.5 48.5 19.667 22.5 35 36.5l39 34 21 15c14 10 21 17.333 21 22 0 3.333-10.333 21.333-31 54l-15 27c-12.667 28-19 57.333-19 88 0 60 17.833 107.167 53.5 141.5s65.167 56 88.5 65 51.333 13.5 84 13.5c28 0 62-10.667 102-32 5.333-1.333 12-5 20-11l9-5 12-8 3-1 20-11c7.333-2 13.5-5.667 18.5-11s9.667-10.833 14-16.5 9.833-15.834 16.5-30.5 10-30 10-46c0-15.334-5-31.834-15-49.5s-19-31.168-27-40.5-21.333-22.334-40-39l-61-47-41-27-29-20c-13.333-10-20-18.334-20-25 0-9.334 9.5-20.334 28.5-33s34.167-23.5 45.5-32.5l34.5-28.5c11.667-10 21-17.668 28-23s14.5-10.667 22.5-16 14.333-8 19-8c8.667 0 16.834 4.833 24.5 14.5s14.168 24.5 19.5 44.5l2 7c-5.332.667-12.332 1-21 1-4.666 0-10.333-.333-17-1s-16.334-2-29-4h-15c-18 0-32.334 2.167-43 6.5S421.666 292.333 415 301s-10 16-10 22c0 9.333 6.333 16 19 20l8 1 61 18 91 25 7 2 55.5 10c19 3.333 35.833 5 50.5 5l54 5c4 0 9 .333 15 1s11.333 1 16 1c16 0 27-4 33-12zM448 580c19.332 28.668 28.998 50 28.998 64 0 14.667-8 29-24 43s-37.667 21-65 21l-32-4c-23.333-4.667-42.166-11.5-56.5-20.5s-29-22.167-44-39.5-25.332-32.833-31-46.5-8.5-27.167-8.5-40.5c0-6.667.834-14.167 2.5-22.5S224 513.334 230 496l10-21 21-32c3.334-3.332 6.667-5 10-5 2.667 0 8.834 3.168 18.5 9.5L312 462l66 49c17.334 14.668 31.834 27.668 43.5 39s20.5 21.334 26.5 30zm-9.002-438c2.667 2 3.167 5.5 1.5 10.5s-9.667 12.5-24 22.5-29.666 21.332-46 34-37.332 31-63 55-41.833 36-48.5 36c-3.333 0-8.833-3.5-16.5-10.5l-26.5-23.5-45-39c-17.333-17.334-30-34.834-38-52.5s-12-34.5-12-50.5c0-7.334 3-15.667 9-25 13.333-26 44-39 92-39 13.333 0 29.833 1.167 49.5 3.5s40.5 7.833 62.5 16.5l74 41z"/><glyph glyph-name="quotesingle" unicode="'" horiz-adv-x="226" d="M161 597l-1.997-24-3-40c0-32-4.5-55.668-13.5-71s-20.833-23-35.5-23c-6 0-13 1.666-21 5l-15 10c-5.333 8-8 15.332-8 22l-1 5 2 50-1 13-2 18c-.667 2.666-.334 8.5 1 17.5l3.5 24.5c1 7.332 1.5 14.5 1.5 21.5V642c0 7.332-.168 14.832-.5 22.5s-.5 15.5-.5 23.5c0 10.666 7.332 14.666 22 12 2.666.666 5.166.5 7.5-.5s10.165-4 23.498-9 24.167-9.668 32.5-14S164 661.332 164 644c0-10-1-25.667-3-47z"/><glyph glyph-name="parenleft" unicode="(" horiz-adv-x="294" d="M286 706l-15.998-9.994c-.667-.667-3.834-4.5-9.5-11.5s-11-14.167-16-21.5-11.834-19.833-20.5-37.5-16.835-36.667-24.502-57-15-46-22-77-12.833-66.5-17.5-106.5-7-71.667-7-95c0-46.667 2-85.834 6-117.5s12-66.5 24-104.5l12-34c12.667-32 23.5-54.5 32.5-67.5s23.833-27.834 44.5-44.5l4-7c4-9.334.333-16.667-11-22s-20.5-8.333-27.5-9-11.5-1-13.5-1c-7.333 0-16.333.667-27 2s-20.667 5.666-30 13-21.333 23-36 47l-17 27-2 2-8 17c-8 16.666-15.5 33.666-22.5 51S69.333 74.67 66 88.003l-1 3-1 15-15 59c-2.667 11.333-4.667 22.833-6 34.5s-2 30.5-2 56.5l-1 36v7c0 39.333 4.167 76.666 12.5 112s16.666 64.165 25 86.498 19 46.5 32 72.5 25.166 48.333 36.5 67 21.332 33.667 30 45l27 29c10.666 12 19.666 20.333 27 25s15 7 23 7c2.666 0 7.333-.833 14-2.5s12.167-4.834 16.5-9.5S290 721.666 290 717c0-2-.5-4.167-1.5-6.5s-1.833-3.833-2.5-4.5z"/><glyph glyph-name="parenright" unicode=")" horiz-adv-x="276" d="M256 328c0-36-4.503-73.498-13.503-112.498s-16.833-67.667-23.5-86-20.5-48-41.5-89-40.167-72.5-57.5-94.5l-2-2-25-28c-20-22-36.667-33-50-33-4.667 0-10.334 1-17 3s-11.668 5.833-15 11.5-5 9.834-5 12.5c0 4 1 7.668 3 11l17 10c2 2 5.5 6.168 10.5 12.5s10.332 14 16 23S64.33-13.33 70.996.003s14.334 31.334 23 54 16.5 49.5 23.5 80.5 13 66.334 18 106 7.5 71.5 7.5 95.5c0 82-10.332 156.334-31 223l-12 34c-12.666 32.668-23.166 55.168-31.5 67.5s-23.165 27.5-44.498 45.5l-5 6c-1.334 4.668-.334 9.168 3 13.5s8.832 8.5 16.5 12.5 18.5 6 32.5 6c7.332 0 16.5-.666 27.5-2s20.832-5.332 29.5-12 21-22.333 37-47l16-28 2-3 8-16c10.666-22.667 19.333-42.834 26-60.5s10.667-30.168 12-37.5l3-17 15-60c2-8.668 3.667-21.335 5-38.002s2-34 2-52l2-35v-8z"/><glyph glyph-name="asterisk" unicode="*" horiz-adv-x="423" d="M396 425c-.667-10.667-3-20.334-7-29s-11.333-13-22-13c-8 0-20.167 5.666-36.5 17s-29.833 17-40.5 17c-4.667 0-9.334-2.334-14-7-2.668-4-2.668-11.5 0-22.5s12.333-38.168 29-81.5c3.333-5.334 2.833-10.5-1.5-15.5s-10.833-8.668-19.5-11-19.667-3.5-33-3.5c-9.333 0-17.5 6.166-24.5 18.5S210.333 333 199 373l-3 19c.667 1.332-.166 2.332-2.5 3s-5.5.333-9.5-1l-29-38-33-35-27-23c-4-2-8.332-3-13-3-8.666 0-16 3-22 9s-9 13.667-9 23c0 16 6.834 33.5 20.5 52.5S96 411 104 417l29 27c1.334 1.333 1.5 4.833.5 10.5S125 466.667 111 474s-38.332 11-73 11c-4 0-6.832 2.667-8.5 8S27 508.666 27 524l1 17c3.334 23.332 16.667 35 40 35 10.667 0 22.667-4 36-12 4-3.334 9.333-6.334 16-9s13-5 19-7c10-2.668 16.667-.168 20 7.5s5 16.166 5 25.5-1.833 21.5-5.5 36.5S148.666 652 140 676c-1.334 3.332 1.166 7.5 7.5 12.5S161 696 169 696c10.666 0 20.833-3.5 30.5-10.5S215 670 217 660c8-28 13-46.334 15-55s2.667-15.335 2-20.002l2-3c6.667 0 12.5 2.833 17.5 8.5s11.5 15.334 19.5 29 17.5 26.5 28.5 38.5 25.167 18 42.5 18c7.333 0 14.333-2.666 21-8 14.667-14 22-25.332 22-34 0-10-8.667-22-26-36l-35-30c-12.667-8.666-22.5-17-29.5-25S286 529 286 525c0-5.332 2.333-9.665 7-12.998l11-6 40-16c21.333-6 35.333-13.333 42-22s10-23 10-43z"/><glyph glyph-name="plus" unicode="+" horiz-adv-x="360" d="M341 237c-6-4.667-19.332-7-40-7l-65 1-16-1 9-80c0-5.334-1.332-11.334-4-18s-7.666-14.335-15-23.002c-1.332-1.333-3.832-.5-7.5 2.5s-5.833 4.5-6.5 4.5c-4.667-3.333-10.667-6.5-18-9.5s-13-4.5-17-4.5c-9.333 0-15 2-17 6s-3 9.333-3 16l-1 13-4 91c-20.667 0-34.667-.667-42-2l-23-4c-5.333 0-11.333 1.333-18 4s-13.667 7.334-21 14-11 11-11 13c-3.333 4.668-6.5 10.668-9.5 18S7 284 7 288c0 9.334 2 15 6 17s9.333 3 16 3l13 1 89 4-2 26-1 33c0 22 1.167 36.168 3.5 42.5s7.333 11.667 15 16 14.5 7.833 20.5 10.5 13 4 21 4c10.667 0 18.167-3.667 22.5-11s6.833-13.833 7.5-19.5 1-12.5 1-20.5l-1-63v-13l26 2 19 1c22 0 38-1.333 48-4s20.5-9.667 31.5-21 16.5-22.666 16.5-34c0-9.332-6-17.665-18-24.998z"/><glyph glyph-name="comma" unicode="," horiz-adv-x="172" d="M116 13L104-8 84-43c-25.333-44.667-49-67-71-67-10.667 0-20.667 5.333-30 16l-10 16c-2.667 7.333-2 15 2 23l2 5L-2-5 3 6l8 19 20 36c17.333 26.667 28 46.834 32 60.5S72.667 142 80 142c4 0 8.667-1.666 14-5l8-6 27.5-28.5C139.167 92.17 144 82.67 144 74c0-6.666-3.5-16.333-10.5-29z"/><glyph glyph-name="hyphen" unicode="-" horiz-adv-x="360" d="M318 237c-5.333-4.667-17-7-35-7l-57 1c-41.333 0-67-.5-77-1.5l-36.5-3.5c-14.333-1.334-24.166-2.667-29.5-4-4.666-1.333-9.833-.5-15.5 2.5S55 233 47 241l-8 12c-2 3.333-4.5 9.333-7.5 18S27 285.334 27 288c0 7.334 1.167 12.167 3.5 14.5S38 306.666 46 308l12 1 113 6 20 1 42 4 17 1c32 0 53.833-7 65.5-21S333 273.33 333 262c0-9.334-5-17.667-15-25z"/><glyph glyph-name="hyphen" unicode="­" horiz-adv-x="360" d="M318 237c-5.333-4.667-17-7-35-7l-57 1c-41.333 0-67-.5-77-1.5l-36.5-3.5c-14.333-1.334-24.166-2.667-29.5-4-4.666-1.333-9.833-.5-15.5 2.5S55 233 47 241l-8 12c-2 3.333-4.5 9.333-7.5 18S27 285.334 27 288c0 7.334 1.167 12.167 3.5 14.5S38 306.666 46 308l12 1 113 6 20 1 42 4 17 1c32 0 53.833-7 65.5-21S333 273.33 333 262c0-9.334-5-17.667-15-25z"/><glyph glyph-name="period" unicode="." horiz-adv-x="175" d="M148 53c0-38-8.667-58.333-26-61s-28.666-4-34-4C70-12 55.335-6 44 6S27 33.667 27 53c0 18 6.5 37.667 19.5 59s29.834 30.333 50.5 27c12-1.333 21.668-6 29-14s13.667-22.333 19-43z"/><glyph glyph-name="slash" unicode="/" horiz-adv-x="625" d="M601 696c1.333-6.667 2-12 2-16 0-12.666-5.666-25.666-17-39l-48-54-88-107-28-35-61-73-50-60-27-33-83-97-75-103-38-50C74.67 13.67 65.5 1 60.5-9S50.67-24 46-24c-12.666 0-21.333 8-26 24-2.667 10.668-.667 23.668 6 39s22 38.667 46 70l47 60 27 35 71 95 33 43 40 52 7 9 64 87 53 70 61 78c20 26 35.667 45 47 57s20.5 20.167 27.5 24.5 13.167 6.5 18.5 6.5c14.667 0 25.667-10 33-30z"/><glyph glyph-name="zero" unicode="0" horiz-adv-x="641" d="M621 378c0-22.667-3.335-57.336-10.002-104.003l-4-23-3-10c-2-12-4.333-22.167-7-30.5s-9.667-25.833-21-52.5-24.666-49.834-40-69.5-35-38.5-59-56.5l-13-10-8-5c-29.332-21.334-58.332-33.334-87-36s-46-4.168-52-4.5-10.666-.5-14-.5c-12 0-24.332 1-37 3s-25.666 4.832-39 8.5-26 8.166-38 13.5-33.332 17.832-64 37.5-55.833 46-75.5 79-29.5 78.166-29.5 135.5v25c0 42.666 3.5 80.833 10.5 114.5s16.5 64.834 28.5 93.5l2 5 25 50 7 14 6 14c1.333 3.334 4.333 8.334 9 15s17 20.335 37 41.002c20 22.666 38.167 39.166 54.5 49.5s34.333 17.332 54 21 32.167 4.833 37.5 3.5h4l21-4h25c18.667 0 40-4.167 64-12.5s46.833-19.5 68.5-33.5 38-25.5 49-34.5 18.5-16.167 22.5-21.5l2-3 16-24 4.5-7c1.667-2.667 4.834-6.667 9.5-12s8.835-11.666 12.502-19 8.167-17.832 13.5-31.5 9.5-27.833 12.5-42.5 4.5-33 4.5-55l1-13v-8zm-105.002 25.998c0 22.667-.837 40.17-2.504 52.502s-6 30.333-13 54-13.333 40.667-19 51-16.167 22-31.5 35-25.833 20.5-31.5 22.5-16.667 4-33 6-28.166 3-35.5 3c-16.666 0-33.166-3.833-49.5-11.5s-35.665-20.834-57.998-39.5-42.5-45-60.5-79l-12-30-10-32-2-4-11-25-1-4-6.5-32c-3-14.668-6.167-33.168-9.5-55.5s-5-46.5-5-72.5c0-26.668 2.833-49.335 8.5-68.002s11.334-34.334 17-47S164.332 102.162 175 88.495s22.334-24.167 35-31.5 27.5-12.166 44.5-14.5 30.834-3.5 41.5-3.5c18 0 37 4.334 57 13l17 8c15.334 8.668 28.5 17.835 39.5 27.502s23.168 23.167 36.5 40.5l8 11 3 5 15 28 3 9 8 21c7.334 19.333 12.667 36.5 16 51.5s7 37.333 11 67 6 57.5 6 83.5z"/><glyph glyph-name="one" unicode="1" horiz-adv-x="367" d="M301 43c2-5.333 3.002-9.663 3.002-12.996 0-8.667-4.667-15.834-14-21.5s-25-10.835-47-15.502l-23-5-28-4-7-1-17-1c-20.667 0-36.334 2.5-47 7.5s-20.5 12.667-29.5 23S78 31.335 78 38.002c0 9.333 7.332 16.666 22 22l3 1 22 3c9.332 2 15.5 4.832 18.5 8.5S148 83.667 148 95c0 6-.834 17-2.5 33s-3.168 32.332-4.5 49l3 104c0 30 .166 60.332.5 91s.832 61.666 1.5 93l-1 30-1 5 3 34v4c-1.334 14-4 22.332-8 25l-36-4c-18-2.668-33 2-45 14-13.334 16.666-18.334 31.666-15 45 2.666 8.666 10.666 17.666 24 27s35.332 19.332 66 30l29 8c26 0 40.666-.668 44-2l13-11 2-3 11-7c10.666-6 16-18.668 16-38l-2-32-2-37-4-116-8-164c0-22-.334-47.334-1-76s-1-46.335-1-53.002c0-28.667 2.332-46.5 7-53.5S252.167 78 268.5 74 295.666 59.667 301 43z"/><glyph glyph-name="two" unicode="2" horiz-adv-x="590" d="M537 546c-1.333-11.333-4.666-25-10-41s-13.5-34.168-24.5-54.5S481 414.332 471 403l-5-7-13-14-15-19c-4-7.333-31-35.333-81-84l-63-60-28-26-29-25c-12-11.333-19.332-18-22-20l-23-17-18-13-5-3-11-14c5.334 3.333 10.334 5 15 5l23-3c3.334-.667 8.334-1 15-1 12.668 0 24.5.833 35.5 2.5S279 110.334 311 117s57.334 10 76 10l28-2c15.334 0 25 1.168 29 3.5s8.334 10.167 13 23.5l2 5 5 23 10 24c3.334 7.333 6.334 15.666 9 25s4.5 17.5 5.5 24.5 6.834 8.832 17.5 5.5c6.668-2 12.168-6.168 16.5-12.5s7.834-15.834 10.5-28.5c1.334-2 2-6 2-12l-1-20v-19l-15-79c-3.332-21.334-7-34.667-11-40s-13.332-9.333-28-12l-36 1c-20.666 0-38.166-.833-52.5-2.5S352.67 29 318 23L230 6l-35-6-62-13c-11.332-2.667-22-4-32-4-8.666 0-15.5 1.167-20.5 3.5S66.67-3.834 54 8.5 35 33 35 45c0 18 23.334 50.332 70 97l40 50 81 83c34.668 35.332 63 65.5 85 90.5s43 50.332 63 76 36.334 49.5 49 71.5 20.168 38 22.5 48 3.5 16.666 3.5 20c0 23.332-10.332 35-31 35-10 0-17.332-.668-22-2s-13-4.334-25-9-21-8.5-27-11.5-20-11.168-42-24.5l-24-13c-20-12-46-32-78-60l-7-6-46-42-40-35c-12.666-10.668-22.666-16-30-16s-17 5.666-29 17-18 20-18 26c0 9.332 12.668 28 38 56l76 74c7.334 8 13.834 14.332 19.5 19s21.668 17.166 48 37.5 52.667 36.832 79 49.5 50.5 19 72.5 19c23.333 0 44-3.834 62-11.5s29.667-13 35-16 15.333-9.5 30-19.5 26.167-23.168 34.5-39.5S537 571.332 537 546z"/><glyph glyph-name="three" unicode="3" horiz-adv-x="588" d="M542 518c-1.333-17.333-8.335-34.5-21.002-51.5s-35-37.832-67-62.5l-19-13-72-44-4-2-17-11 15-10 19-4c4-.666 9.833-2.833 17.5-6.5s18.5-9.834 32.5-18.5l28-20c42-33.334 63-70.334 63-111 0-22-6.167-42.668-18.5-62s-26.333-33.667-42-43-27.334-16-35-20-19.168-9.667-34.5-17-32.667-13.5-52-18.5-45.666-9.167-79-12.5l-57-5c-27.332 0-47.332 1-60 3S111.666-3.5 95 5.5s-28.334 20.833-35 35.5-10.335 25.667-11.002 33c0 15.333 6 22 18 20 4.667-.667 8.834-2.334 12.5-5s8.168-7 13.5-13 17.334-9 36-9l28 1h8c11.334 0 20.167.5 26.5 1.5s17.833 3.166 34.5 6.5l10 1 14 4 5 1 22 3c6.667.666 12.334 1.833 17 3.5S310.332 94.667 329 102l20 9c17.333 8 36 21.333 56 40l9 10c12.667 16 19 27.667 19 35 0 10.667-12.167 22-36.5 34s-54.5 18-90.5 18c-15.333 0-27.833-.667-37.5-2s-17.167-2-22.5-2l-33-5c-8.667 0-20.334 3-35 9s-23.168 16.667-25.5 32-3.5 26-3.5 32c0 9.333 2.166 16.166 6.5 20.5s15.832 10 34.5 17 40 17.666 64 32 58.332 38.165 103 71.498l21 16 20 15c11.332 9.333 20.832 18.166 28.5 26.5s14.166 17.332 19.5 27 8 17.833 8 24.5c0 14.667-11.668 22-35 22-15.334 0-25.667-.333-31-1s-16.333-2.5-33-5.5-33-7.167-49-12.5-39-14.333-69-27l-43-19c-14-6-26.667-12.333-38-19s-27-18.667-47-36-32.667-27-38-29-9.666-3-13-3c-14 0-22.666 8.333-26 25-.666 7.333-.666 14 0 20s3 14 7 24 11.5 19.667 22.5 29 37.834 29 80.5 59l18 12 37 24 3 1 10 6 12 6 13 7 12 4 12 5 12 5 11 2 14 4c13.334 3.333 28.334 5 45 5 4.668 0 9.835-.333 15.502-1l29.5-3.5c14-1.667 34.667-9.667 62-24s43.333-23.166 48-26.5 13.667-12.665 27-27.998 20-35 20-59c-.667-4-1-7.333-1-10z"/><glyph glyph-name="four" unicode="4" horiz-adv-x="610" d="M570 242c-6.667-10.667-19.003-18.002-37.003-22.002l-11-2-3 1-28 7c-4 .667-9.333 1-16 1s-11.667-1.333-15-4l-3-5-2-81v-28c0-6 .333-9.833 1-11.5s5.334-3.167 14-4.5h16c16 0 29.334-8.333 40-25l4-9c4-8 6-15 6-21 0-13.333-10.5-23.166-31.5-29.5S469.998-1.666 463.998-3s-11.332-2.333-16-3l-14-4-33-6c-5.332-1.333-10.5-2-15.5-2h-11.5c-16 0-27.666 2.167-35 6.5S326.333-3.667 323-1s-8 7.5-14 14.5-9 14.167-9 21.5c0 12 13.332 23.333 40 34l25 8c0 1.333.332 6 1 14s1 26.333 1 55l-1 39v10c1.332 5.333 2 8.666 2 10s-.668 2.165-2 2.498-7 .5-17 .5h-67l-13-2h-5l-87-15-23-5-22-3-5-1-28-7c-12-2.667-19.334-4-22-4-8 0-14.168 2.167-18.5 6.5s-11.834 13.5-22.5 27.5l-9 15c-4 9.333-6.834 17.5-8.5 24.5s-2.5 12.833-2.5 17.5c0 6 6.832 19 20.5 39l39.5 57 82 107c26 32 50 59.667 72 83l88 89 3 5 18 17c14.666 14 30.333 21 47 21 3.333 0 8.333-.5 15-1.5s16.334-5 29-12 22.168-13 28.5-18 11.167-10.833 14.5-17.5c1.333-2 1.333-11.5 0-28.5s-2-53.167-2-108.5c0-42.667-1-73-3-91-3.333-17.333-5.5-29.666-6.5-37l-3-22c-1-7.332-1.5-14.665-1.5-21.998 0-8.667 1.833-14.334 5.5-17s11.5-5 23.5-7h34c10 0 21.667-2.834 35-8.5s20-16.168 20-31.5c0-5.334-1.667-10.667-5-16zM369.997 573.998c-2.667 1.333-7.33-1-13.997-7s-23.334-23.666-50-53l-67-78-57-72c-18-22.666-30.5-39.666-37.5-51s-12.168-22.332-15.5-33l26 3 7 1 67 9 5 1 20 1 18 2 57 4 20-2c9.332.668 14.665 3 15.998 7s2 15.334 2 34v37l2 89c2.667 31.334 4 56.667 4 76 0 10-.333 17.5-1 22.5s-1.334 8.167-2 9.5z"/><glyph glyph-name="five" unicode="5" horiz-adv-x="588" d="M535 607l-3-51.995-4-51-1-17-1-6c-4.668-18-12.668-27-24-27-5.334 0-12.667 2.167-22 6.5s-16.5 14.5-21.5 30.5-7.5 39.667-7.5 71v19c0 9.333-1.167 14.833-3.5 16.5s-9.833 2.5-22.5 2.5h-23c-12.667 0-42-4-88-12l-45-8-54-12c-16.667-3.333-27.167-7.5-31.5-12.5s-9.166-17.833-14.5-38.5l-11-43-1-5-2-8-5-43c-.666-4.667-1-10-1-16 0-8 2.334-12.333 7-13h35l71-8 5-1h13l18-3 4-1 22-3c8.668-2 18.335-4.833 29.002-8.5s20.334-6.834 29-9.5l46-19c33.334-16.668 61.667-36.335 85-59.002s35-48.334 35-77c0-32.668-12.333-61-37-85s-43.834-40.668-57.5-50-31.5-18.667-53.5-28l-21-9-13-4-3-2-13-7c-2.668-2-6.335-3.833-11.002-5.5s-19.334-5.5-44-11.5l-27-6-32-5-3-1-30 1-8-1-25-1h-18C119.33-10.33 93.83-3.83 75.5 4.503s-30.834 18-37.5 29-10.668 19.333-12 25-1 10.167 1 13.5c2 5.333 5.666 8 11 8 4 0 8.332-1.333 13-4l5-4 9-6c2.666-1.333 10.333-2.666 23-4s23.667-2 33-2c12.667 0 26.334.5 41 1.5s34.5 4.668 59.5 11 48.5 14.834 70.5 25.5 50.668 28.668 86 54l49 38c14 12 21 23.668 21 35 0 14.668-7 25.5-21 32.5s-24.166 11.668-30.5 14-14.832 5.167-25.5 8.5-23.166 5.666-37.5 7-30.832 2-49.5 2c-25.332 0-48.332-2.168-69-6.5s-41.5-11-62.5-20-35.5-13.5-43.5-13.5c-12 0-24.5 8.666-37.5 26S52 307.667 52 321c0 26.668 8.668 125 26 295l2 8c4.668 14 14.668 22.5 30 25.5s38.667 4.5 70 4.5l4 1 40 6 99 10 52 4 44 5 44 3c32 0 52.167-1.832 60.5-5.5S536 664.668 536 650v-29z"/><glyph glyph-name="six" unicode="6" horiz-adv-x="612" d="M568 155c-10-43.333-26.663-73.5-49.996-90.5s-40.5-28.5-51.5-34.5l-36.5-19-18-7-8-4c-15.333-6-30.833-10.5-46.5-13.5s-31.5-4.5-47.5-4.5c-12.667 0-25 .168-37 .5s-31.833 3.667-59.5 10-53.167 16.833-76.5 31.5-43.5 34.167-60.5 58.5-28.667 45.833-35 64.5-9.5 41-9.5 67c0 27.333 1.833 53.333 5.5 78s12.167 58.334 25.5 101l7 22 5 12 6 19c10.667 24 21.167 43.834 31.5 59.5s27.833 37.835 52.5 66.502l14 17 9 8c22.667 23.333 52.834 44.833 90.5 64.5s73.5 29.5 107.5 29.5c9.334 0 16.667-.333 22-1l12-2 11-3c35.333-6 61.666-16.167 79-30.5s28.665-24.833 33.998-31.5 9.333-13.334 12-20c4.667-11.334.667-19.334-12-24-4.667-.668-9.834-.168-15.5 1.5S512.666 588.334 498 599s-33.334 16-56 16c-22 0-43.168-4-63.5-12s-32.667-12.667-37-14-14.166-6.333-29.5-15-29-18-41-28-27.332-26.333-46-49l-9-13c-27.332-36-44.832-60.833-52.5-74.5s-10.166-23.834-7.5-30.5c3.334-.668 5.667-1 7-1l59 19c14.667 5.332 31.167 8.665 49.5 9.998s31.333 2.333 39 3 15.167 1 22.5 1c42 0 80.333-8.667 115-26s60-34.5 76-51.5 29.333-39.167 40-66.5c6.667-20 10-40.333 10-61 0-16-2-33-6-51zm-81.996 67c0 4.668.334 9.668 1 15s1 9.334 1 12c0 40-11.666 65.334-35 76s-37.332 16.5-42 17.5-11 1.5-19 1.5h-24c-16 0-32.5-1.832-49.5-5.5s-36-9-57-16-37.666-13.332-50-19-23.5-11.833-33.5-18.5l-3-3-18-13c-12.666-8.667-21.166-16.667-25.5-24s-8.165-20-11.498-38l-2-20 2-18c4-28.667 10.833-51 20.5-67s24.5-30.5 44.5-43.5 39.333-19.5 58-19.5c13.333 0 28.166 2 44.5 6s28.332 7.167 36 9.5 26.5 10.333 56.5 24 55.332 37.834 76 72.5c10 15.334 17.166 28.5 21.5 39.5s7.165 21.5 8.498 31.5z"/><glyph glyph-name="seven" unicode="7" horiz-adv-x="540" d="M508 626l6.003-11.998c2-4 3-7.333 3-10 0-6.667-6.667-20-20-40l-36-55-12-18-50-74-67-99c-34.667-52-68.334-106.333-101-163l-24-41-2-4-6-10c-2.668-2.667-4-5.667-4-9-.668-2-.335-3.667.998-5s2.334-2 3-2l21-2c16.668 0 29-6.5 37-19.5s12-23.167 12-30.5c0-12.667-8.332-21-25-25l-26-6c-7.332-1.333-18.165-3-32.498-5s-25.833-3-34.5-3l-17-1-27-2-44-3c-2.667-.667-6.167.5-10.5 3.5s-10.833 9.667-19.5 20-13 19.833-13 28.5c0 12 9 22 27 30l39 7c12.667 2 22.5 8.167 29.5 18.5s23.833 44.166 50.5 101.5l66 116 66 116c12 21.332 24.667 42.5 38 63.5l33 50.5 10 13 5 6 11 21-22 1-4-1-20-3-24-1-18-2c-24-6-47-9-69-9-52 0-84.833-5.5-98.5-16.5s-20.5-36.834-20.5-77.5c0-25.334-1.833-45.834-5.5-61.5s-12.834-23.5-27.5-23.5c-9.334 0-17.334 2.5-24 7.5s-10.835 11.666-12.502 20S47 436.666 47 454l3 100c0 29.333 6.333 48 19 56s48.667 17.333 108 28l115 28c32.667 8.667 55.167 14.167 67.5 16.5S384 686 396 686h36c18 0 29.833-1.833 35.5-5.5S483 665.333 497 646z"/><glyph glyph-name="eight" unicode="8" horiz-adv-x="640" d="M636 659c1.333-10.667 1.995-17.662 1.995-20.995 0-10-1.833-17.667-5.5-23s-11.167-12-22.5-20l-3-2-21-12-2-2-41-27-7-5-15-9-43-34-15-12-22-19c-11.333-10.667-20.5-18.334-27.5-23s-13.333-8.5-19-11.5-12.5-7.334-20.5-13-15.667-11.835-23-18.502c-3.333-2.667-4.333-5.834-3-9.5s6-7.5 14-11.5l3-2 34-17 24-14c47.333-30.668 81.166-58.5 101.5-83.5s30.5-50.5 30.5-76.5c0-22.668-6.668-47-20-73s-27.834-46.5-43.5-61.5-39.168-30.668-70.5-47-63.167-27.334-95.5-33-59.166-8.5-80.5-8.5c-22.666 0-45.666 2.332-69 7l-14 4-9 1-16 5c-35.332 12-61.665 24.332-78.998 37s-30.666 29.166-40 49.5-14 40.165-14 59.498c0 9.334 1.5 19.334 4.5 30s8.334 24.168 16 40.5S45.333 239.335 64 262s45.666 51 81 85l20 19c22.666 18.668 34 30.335 34 35.002 0 3.333-13 15-39 35l-15 14c-31.334 34.667-47 68-47 100 0 52 29.332 90.167 88 114.5s97.833 37.666 117.5 40 35.167 3.5 46.5 3.5c18 0 38.333-3.834 61-11.5s41-15.335 55-23.002 24-15.167 30-22.5l13-15c5.333 2 10 4.333 14 7l30 18c8 6.667 14.667 11.667 20 15s10.666 6.5 16 9.5 10.332 4.5 15 4.5c6.666 0 13.333-2.833 20-8.5s10.667-13.167 12-22.5zm-207.005-81.995c7.333 7.333 11 13.33 11 17.997 0 3.333-4 9-12 17l-11 10-3 3c-12.666 10.667-27.666 16-45 16-8.666 0-23.666-1.333-45-4s-42.832-12-64.5-28-36.666-30.833-45-44.5-11.832-27.5-10.5-41.5l12-26c7.334-14.667 16.5-26.667 27.5-36s18.834-11.666 23.5-7c10 11.334 22.668 22.834 38 34.5s33.167 24.335 53.5 38.002l49 33.5c12.333 8.667 19.5 14.334 21.5 17zm40-341.003c-3.332 6-8.666 12.168-16 18.5s-19.332 14.5-36 24.5l-10 7-33 18-47.5 26c-17 9.334-30.166 14-39.5 14s-17.5-3.332-24.5-10-16.5-16.666-28.5-30l-22-24-13-16-31-36c-20.666-24-35.833-44.832-45.5-62.5s-15.667-31.666-18-42-3.666-17.832-4-22.5-.5-8-.5-10c0-17.332 5.834-29.5 17.5-36.5s32.835-10.5 63.502-10.5c4.667-.666 9.334-1 14-1h14c22 0 45.668 3 71 9s43.667 11.334 55 16 26.666 13.168 46 25.5 32 20.834 38 25.5 13.332 11.335 22 20.002l23 32 4 10c2 5.333 3.332 10.666 4 16s1 10.665 1 15.998c0 9.333-1.334 17-4 23z"/><glyph glyph-name="nine" unicode="9" horiz-adv-x="589" d="M565 426c0-17.333-2.503-37.168-7.503-59.5s-13.167-52.167-24.5-89.5l-6-22-5-12-7-18c-10.667-24-21.5-44.5-32.5-61.5S454.33 125 430.997 99l-14-17-8-8c-25.333-25.333-56.166-47.333-92.5-66s-70.5-28-102.5-28c-4 0-8.666.333-14 1s-9.332 1-12 1h-11l-12 3C129.666-7.667 103.333 2.833 86 16.5S57.332 40.334 52 47s-9.333 13.335-12 20.002c-2.667 12.667 1.333 20.667 12 24 6 1.333 12 .666 18-2s16-8.835 30-18.502S132 56 154 56c21.333 0 48.666 6.333 82 19l38 16c22 12 38.832 23 50.5 33s27.166 26.333 46.5 49l9 13c29.332 38.667 47.5 64.334 54.5 77s8.832 22 5.5 28c-2.668 1.334-4.668 2-6 2l-60-19c-8.668-3.332-18.668-6.165-30-8.498s-24-3.5-38-3.5c-8-1.333-16.334-2-25-2h-20c-41.334 0-79.167 8.5-113.5 25.5S88 319.67 72 337.002s-28.167 36.666-36.5 58S23 438 23 460c0 10 .333 17.666 1 23 0 29.332 6.833 55.665 20.5 78.998s33.834 44.333 60.5 63c12.668 10 33.335 21.667 62.002 35l17 7 8 4c17.333 6.667 33.166 11.5 47.5 14.5S269.666 690 287 690c26.667 0 56.167-3.667 88.5-11s60.333-18.333 84-33 44.167-34.667 61.5-60 29-49.5 35-72.5 9-52.167 9-87.5zm-89.003 37.998c1.333 9.333 2 16.332 2 21 0 6-.834 12.832-2.5 20.5s-5.5 22.833-11.5 45.5-21.334 41.834-46 57.5-46 23.5-64 23.5c-9.334 0-19.334-1.166-30-3.5l-32.5-7c-11-2.332-17.668-4-20-5l-52.5-23c-32.668-14.332-56.835-34.832-72.502-61.5s-26-46.833-31-60.5-7.5-27.167-7.5-40.5c0-24.667 4.5-44.5 13.5-59.5s20.5-25.667 34.5-32 23.5-10 28.5-11 11.5-1.5 19.5-1.5h24c30 0 60.5 5.333 91.5 16s52.833 19 65.5 25 23.667 12 33 18l5 3 16 13c12.667 8.667 21.334 17 26 25s8.335 20.333 11.002 37z"/><glyph glyph-name="colon" unicode=":" horiz-adv-x="201" d="M161 371c0-38-8.833-58.168-26.5-60.5S105 307 99 307c-18 0-32.333 5.666-43 17s-16 27-16 47c0 17.332 4.5 33.332 13.5 48s18 24.833 27 30.5S98.667 458 108 458c22 0 38.667-19.333 50-58zm-1-314c0-23.334-3.498-39.833-10.498-49.5s-19.5-15.5-37.5-17.5l-13-1c-18 0-32.333 6-43 18s-16 27.333-16 46c0 17.333 4.333 33.333 13 48s17.667 24.834 27 30.5 18.666 8.5 28 8.5c12.666 0 22.5-4.332 29.5-13s12.666-20.833 17-36.5S160.666 63.666 160 57z"/><glyph glyph-name="semicolon" unicode=";" horiz-adv-x="205" d="M160 400c2-6 3.168-12.333 3.5-19s.834-12 1.5-16c0-34.667-9-53-27-55s-30-3-36-3c-18 0-32.5 5.833-43.5 17.5S42 351.667 42 371c0 16.667 4.668 32.5 14 47.5s18.5 25.333 27.5 31S101.67 458 111 458c23.334 0 39.667-19.333 49-58zM136 10l-12-21-20-36C92-69 80-85.665 68-97s-23.334-17-34-17-19.168 3.834-25.5 11.5S-1.668-90-3-88s-2.333 4-3 6-1 5.668-1 11c0 2.668.667 6.668 2 12l2 6L18-8l5 11 8 18c.667 1.334 8.5 14.667 23.5 40s24.667 44.5 29 57.5S93.333 138 100 138c4.667 0 9.334-1.333 14-4l9-7 27-28c10-10 15-19.333 15-28 0-6.667-2.832-15-8.5-25z"/><glyph glyph-name="less" unicode="<" horiz-adv-x="635" d="M552 106c0-11.333-1-23.167-3-35.5s-6.332-21.333-13-27-14.666-8.5-24-8.5c-8 0-14.5.833-19.5 2.5S479 43 467 49c-24.666 16.667-47 31.167-67 43.5S362.5 115 347.5 123l-45 25c-15 8.667-32.666 19.667-53 33L199 214c-13.332 8.667-24 15-32 19l-25 12-43.5 21c-15 7.333-24.5 14.333-28.5 21s-6 18.667-6 36c0 15.333 1 29.166 3 41.5s4 19.665 6 21.998 11.834 6 29.5 11 36.168 12.5 55.5 22.5l46 24 19 9 84 46 23 14 21 12 14 9c11.334 7.333 36.334 24.5 75 51.5s59.335 40.5 62.002 40.5c9.333.667 16.666 1 22 1 8 0 14.666-2.333 20-7s8-13.334 8-26l-7-59c-2-14-24-31.334-66-52l-66-28c-19.334-14-36.334-25.168-51-33.5s-33-17.667-55-28l-63-29c-20-9-34-16-42-21s-12-9.5-12-13.5c0-2.667.666-4.667 2-6s15.165-9.333 41.498-24l93.5-54 111-67 15-8c32-9.333 56-18.666 72-28s25-21.665 27-36.998z"/><glyph glyph-name="equal" unicode="=" horiz-adv-x="411" d="M356 363c-6-4.667-19-7-39-7l-63 1h-50c-12 0-20-.333-24-1-28 0-49-1-63-3l-20-5c-10-2-23 4.333-39 19l-9 12c-4 6.667-7.167 13.667-9.5 21S36 412 36 414c0 6.667 1.5 11.5 4.5 14.5s8.167 4.833 15.5 5.5l14 1 124 6 22 1 46 4 19 1c35.333 0 57.5-5.167 66.5-15.5S363 412.667 367 406s6-13 6-19c0-8.667-5.667-16.667-17-24zm0-189c-6-4.667-19-7-39-7l-63 1h-50c-12 0-20-.333-24-1-28 0-49-1-63-3l-20-5c-10-2-23 4.333-39 19l-9 12c-4 6.667-7.167 13.667-9.5 21S36 223 36 225c0 6.667 1.5 11.5 4.5 14.5s8.167 4.833 15.5 5.5l14 1 124 6 22 1 46 4 19 1c35.333 0 57.5-5.167 66.5-15.5S363 223.667 367 217s6-13 6-19c0-8.667-5.667-16.667-17-24z"/><glyph glyph-name="greater" unicode=">" horiz-adv-x="635" d="M564 287c-4.667-8-15.508-16.002-32.508-24.002s-30.167-14-39.5-18l-25-12c-7.333-3.333-18.666-10-34-20l-43.5-28.5c-13.666-9-31.166-19.833-52.5-32.5s-39.665-23.167-54.998-31.5-32.666-18.666-52-31l-50.5-32c-14.332-9-25.832-15-34.5-18s-16.333-4.5-23-4.5c-10 0-18 2.668-24 8s-10.167 14.334-12.5 27-3.5 24.668-3.5 36c2 18.668 14.167 32.335 36.5 41.002l62.5 24 15 8 111 67c43.333 26 76.333 45.167 99 57.5s34.334 18.833 35 19.5c2.668 2.667 3.668 5.667 3 9s-4.166 7-10.5 11-20.165 10.833-41.498 20.5l-71 32.5c-26 12-43.833 21-53.5 27s-25.167 16.667-46.5 32c-22 8.667-49.167 20.667-81.5 36s-49.166 30-50.5 44l-7 58c0 13.333 2.668 22.333 8 27s12.334 7 21 7c10-.667 17-1 21-1 2.668 0 20-11.167 52-33.5l85-58.5 14-9 21-12 23-14 84-46 19-9 46-24c16.668-8.667 34.335-15.667 53.002-21s28.834-9.333 30.5-12 3.835-11 6.502-25 4-27.333 4-40c0-15.333-2-27-6-35z"/><glyph glyph-name="question" unicode="?" horiz-adv-x="616" d="M597 583c0-16-2.165-30.328-6.498-42.995s-12.333-27.334-24-44-26.834-31.835-45.5-45.502-45.335-31.167-80.002-52.5l-73.5-46c-14.333-9.333-34-23.833-59-43.5s-45.667-37.834-62-54.5S217.334 219.667 208 201l-4-8c-4-10-11-15-21-15-2.666 0-5.666 1-9 3l-11 10c-9.332 12.668-14 24.668-14 36 0 14.668 7 35 21 61s30.334 48.334 49 67 38.668 36 60 52 43 31.334 65 46l50 34 13 10c20.668 16.668 36.835 30.668 48.502 42s21.167 22.167 28.5 32.5 12 18.833 14 25.5c4.667 10 7 19.333 7 28 0 20.667-21 31-63 31-27.333 0-53.666-4.167-79-12.5s-63.332-27.166-114-56.5l-39-25-4-3-88-66-16-12-5-3c-7.332-5.332-14.332-12-21-20s-11.333-12.5-14-13.5-6.334-1.5-11-1.5c-8 0-14.668 1.334-20 4s-9 10.668-11 24l2 25c4 18 11.332 31.834 22 41.5l45.5 43c19.666 19 51.166 40.834 94.5 65.5l48 26c24 11.334 44.166 20.167 60.5 26.5s37.665 12.333 63.998 18S404 725 420 725c12 0 31.833-3.333 59.5-10s54.167-21.667 79.5-45 38-52.333 38-87zM245.002 53.005c0-24.667-3.333-41.5-10-50.5s-19.334-15.166-38-18.5c-21.334-2.666-38.667 2-52 14s-20 29-20 51c0 19.334 4.5 36 13.5 50s18 23.668 27 29 18.833 7.334 29.5 6c12 0 21.5-4.332 28.5-13s13.167-24.333 18.5-47z"/><glyph glyph-name="A" unicode="A" horiz-adv-x="704" d="M706 76c4-19.333 6-32.998 6-40.998s-2-13.667-6-17-10-5.666-18-7l-140-22c-22.668 0-39.5 2.334-50.5 7S481 9.67 481 23.003c0 21.334 10.5 35 31.5 41s31.5 12.334 31.5 19c0 17.334-2.668 32-8 44s-10.667 22.334-16 31c-4 12.668-11 20.668-21 24s-30 5-60 5h-60c-23.333-2.666-40.166-4.833-50.5-6.5s-25.832-5.834-46.5-12.5l-115-40-17-23c-8.666-12.668-13-21-13-25 0-3.334 4-7.667 12-13 4.668 0 12.335-1.833 23.002-5.5s17.167-12.667 19.5-27 3.5-22.833 3.5-25.5c0-16.667-9.667-25-29-25l-138 1c-16 0-28.5 3.5-37.5 10.5s-13.5 17.167-13.5 30.5c0 5.333.5 10.666 1.5 16s4 10.165 9 14.498 13.5 7.5 25.5 9.5l28 7c1.333 2 3 4.333 5 7s4 6 6 10l235 562c23.333 35.333 46.333 53 69 53 9.333 0 16.666-.667 22-2l31-6 33-4c10-1.333 17.332-3.666 22-7s10.833-18.832 18.5-46.5l53-183 66-225.5c16.333-56 25.666-90.5 28-103.5S637.666 106.335 647 103s17.5-4.832 24.5-4.5 14-.333 21-2S704 88 706 76zM449 394.002L406.5 553.5c-11 39.667-18.832 60.167-23.5 61.5-4-5.333-7.832-11.833-11.5-19.5L360 571l-97-212c-13.332-27.333-22.832-47.666-28.5-61s-11.833-29.332-18.5-48c7.333-1.332 24.166.335 50.5 5.002l83.5 15c45.332 0 77.832.833 97.5 2.5s29.5 11.167 29.5 28.5c0 10-3.668 25.167-11 45.5z"/><glyph glyph-name="B" unicode="B" horiz-adv-x="663" d="M635 242c0-32.667-3.333-55.003-10-67.003l-2-2-6-6c-18.667-24.667-42-48.334-70-71s-59.5-41.5-94.5-56.5-76-27.668-123-38-76.833-16.167-89.5-17.5-37.667-2-75-2c-57.333 0-93.166 2-107.5 6s-27.332 14.167-39 30.5S1 47.997 1 57.997c0 12 4.168 20 12.5 24s23.5 7.333 45.5 10l12 1c8 0 12 11 12 33 0 18.667-1.332 39.334-4 62s-4.166 37.5-4.5 44.5-.5 13.5-.5 19.5c0 18 .834 50.668 2.5 98s2.5 82.667 2.5 106l2 18c1.334 11.333 2.667 22 4 32s2 17.667 2 23c0 24-10 39.333-30 46l-23 8-3 1c-2 2-5.5 6.333-10.5 13s-10.833 16.334-17.5 29l-3 6c-1.333 6.668-2 11.668-2 15 0 11.334 5 20 15 26s28 11.334 54 16l25 4h4c30.667 5.334 62 8 94 8l22-1 66-1c31.333 0 53.5-.5 66.5-1.5s37.167-4.332 72.5-10 64.833-14.5 88.5-26.5 41.667-22 54-30 21.833-15.332 28.5-22c21.333-25.332 32-51.665 32-78.998 0-35.334-11.5-61.834-34.5-79.5s-37-28.168-42-31.5-16-8.667-33-16-25.5-13-25.5-17c0-.667 1.333-3 4-7l44-16c4-2 9.667-5.167 17-9.5s22.5-14.5 45.5-30.5 36.167-43 39.5-81zM478 476.997c8.667 10 15 19.833 19 29.5s6 19.167 6 28.5c0 28-10.167 45.5-30.5 52.5s-33.5 11.167-39.5 12.5-16 2.666-30 4h-37l-20-2-60-4c-33.333 0-57-2.834-71-8.5s-22.333-15.168-25-28.5l-3-63c0-30.668-.333-52-1-64s-.667-19 0-21c4-10.668 8.667-16 14-16 1.333 0 5.333.832 12 2.5l21 5.5c7.333 2 16 4 26 6s25.333 4 46 6l17 2 48 10 24 7c25.333 7.332 44 13.832 56 19.5s21.333 12.833 28 21.5zm47-212c-14 8.667-26.834 15-38.5 19s-34.5 9-68.5 15l-29 4-92-3c-56.668 0-90-2.667-100-8s-15-22.333-15-51v-88c0-26 1.832-43.167 5.5-51.5s12.166-12.5 25.5-12.5c4.666 0 12.833.833 24.5 2.5s20.167 2.834 25.5 3.5l33 5 13 2c28 4.668 50 9.335 66 14.002s33.667 11.166 53 19.5 35.833 16.165 49.5 23.498 25.667 14.5 36 21.5 18.333 14.667 24 23 8.5 17.166 8.5 26.5c0 14-7 25.666-21 35z"/><glyph glyph-name="C" unicode="C" horiz-adv-x="599" d="M552 615l-1-55.003-1-31-1-14-2-19v-30l-2-22c-.668-6.667-3.668-12-9-16s-12-6-20-6c-5.334 0-12 1.667-20 5-14.668 8-24.668 22-30 42l-5 51c0 12.667-1 22.334-3 29S451.33 566.333 444 581s-14.667 25.833-22 33.5-15.666 11.5-25 11.5c-11.332 0-25.332-5.5-42-16.5s-29.833-20.833-39.5-29.5-23.834-23.334-42.5-44-38.335-49.5-59.002-86.5-39.667-79.5-57-127.5l-14-42c-7.333-26.668-12.5-48-15.5-64s-4.5-28.668-4.5-38c0-40 8.167-67.168 24.5-81.5s48.166-21.5 95.5-21.5c23.332 0 47.332 3.5 72 10.5s50.666 17 78 30 46.832 22.832 58.5 29.5 27 17.333 46 32 31.166 22 36.5 22c4 0 10.332-3.333 19-10s13-15 13-25c0-14-9.668-31.5-29-52.5s-40.667-40.167-64-57.5-39.5-28.666-48.5-34-16.5-10-22.5-14c-20.667-10-41.667-17.5-63-22.5s-42.333-7.5-63-7.5c-35.333 0-66.833 6-94.5 18s-53.667 29.668-78 53-42 47.667-53 73-18.167 55.666-21.5 91l-2 28c0 12.666.667 25.666 2 39s4 29 8 47l13 52c8.667 29.332 16.834 52.832 24.5 70.5s21.335 42.333 41.002 74 41.167 60.834 64.5 87.5 49 49.5 77 68.5 51 29.5 69 31.5 29.333 3 34 3c6.667 0 13.334-.666 20-2s16.5-4.332 29.5-9 23.334-8.833 31-12.5 12.835-6.5 15.502-8.5l4 3 3 30c0 8 2.667 14.5 8 19.5s10.666 6.833 16 5.5c8-2 18.666-6.833 32-14.5s22.165-17 26.498-28 6.5-33.833 6.5-68.5v-12z"/><glyph glyph-name="D" unicode="D" horiz-adv-x="734" d="M671 524c24-44 36-85.332 36-124 0-44.666-13.168-87.333-39.5-128s-56.167-77.834-89.5-111.5-73-63-119-88-99.333-46-160-63S196.666-17.67 174-21s-47-5-73-5l-17-1-15-1c-11.334 0-20.667 2.332-28 7S24.5-6.335 13.5 9-2 38.33 0 51c1.333 8.666 3.833 14.5 7.5 17.5S20 74.665 34 78l12 3 18 4c10 2 16.167 3.832 18.5 5.5S86 96.332 86 103c0 3.333-.5 9.666-1.5 19L82 146l1 135-1 133v59c0 21.332.333 44 1 68 0 15.332-1.333 24.665-4 27.998l-26 9-13 7c-10.667 8.667-18.5 17.667-23.5 27s-6.833 18.333-5.5 27c2 15.333 5.167 24.833 9.5 28.5s15.166 6.5 32.5 8.5l13 1 23 2 35 7c34.666 8.667 94.333 13 179 13 46 0 90.5-5.167 133.5-15.5s86.833-28.166 131.5-53.5S647 569.334 671 524zm-54-68c-3.334 25.334-10.834 45.167-22.5 59.5S562 544.333 532 559l-20 10c-28 12-54.834 20.167-80.5 24.5s-53.835 6.5-84.502 6.5l-47-6c-48-6-77.167-12.167-87.5-18.5s-15.5-22.166-15.5-47.5l-3-59-1-21-4-149 1-146c-2-15.332-3-27.832-3-37.5s.333-15.166 1-16.5c4.667-6.666 10.667-10 18-10 10 0 32 5.668 66 17l25 8 9 4c20 8.668 39 17.5 57 26.5s40.333 22.5 67 40.5 51.5 38.334 74.5 61 43.833 48.168 62.5 76.5 31.834 51.5 39.5 69.5S618 426.67 618 442c0 6-.332 10.668-1 14z"/><glyph glyph-name="E" unicode="E" horiz-adv-x="602" d="M588 76l-2.998-15.997c-6.667-15.333-15.667-25.333-27-30l-83-9-63-10-19-3-7-2-53-5-37-5-100-15-14-4-17-4-23-5-9-2-20-4c-16-2-29-3-39-3-18.667 0-32 4.667-40 14s-16 27.666-24 55c-2 8.666 2.667 16.666 14 24s29 11 53 11c2.667 0 4.167 16.5 4.5 49.5s.5 77.5.5 133.5v81c0 12-.167 24.332-.5 37s-.5 25.666-.5 39v77c0 20-1 32-3 36s-9 6-21 6h-18c-6 0-12.833 3.166-20.5 9.5S2.835 547.667-5.498 561s-10.833 23.667-7.5 31c2.667 6.667 8.5 12.167 17.5 16.5s28.5 9.833 58.5 16.5l43 11 119 24c42.667 8 99.667 16.333 171 25l43 5 71 9c22 4.667 33-14 33-56l1-10v-63l-1-21c0-28-2.167-46.5-6.5-55.5s-11.833-12.167-22.5-9.5l-6 1-12 4c-16 6-26.167 11.833-30.5 17.5s-8.166 17.167-11.5 34.5l-5 28c0 13.333-.5 21.666-1.5 25s-4.832 5-11.5 5c-2.666 0-7.333-.5-14-1.5l-20-3c-6.667-1-16-2.668-28-5s-29.667-6.834-53-13.5l-37-6c-44-7.334-70.167-15.167-78.5-23.5s-12.5-29.5-12.5-63.5v-29c0-13.333-.333-26.5-1-39.5s-1.834-24.5-3.5-34.5l-4-24c-1-6-1.5-12.333-1.5-19 0-10.667 6-16 18-16 5.332 0 17.332 1.5 36 4.5s32.666 5 42 6 27 5 53 12 51 10.5 75 10.5c15.332 0 27-2.167 35-6.5s14.332-12.666 19-25 7-21.832 7-28.5c0-9.332-9.334-16-28-20l-61-8-7-1-64-13-37-8-6-1-4-1-47-14c-15.334-4-23.834-6.832-25.5-8.5s-3.5-7.833-5.5-18.5l4-78 2-36c2-10 6.666-15 14-15 6 0 28.666 5.333 68 16 13.332 1.333 34.165 3.666 62.498 7l92.5 11 16 1c30 0 46.167 3.166 48.5 9.5S496.333 141 501 171l2 18 2 12 2 15 2 11c6 19.332 15 29 27 29 7.333 0 16.333-4.168 27-12.5s17.667-14.834 21-19.5 5-19.335 5-44.002c0-15.333-.167-30.166-.5-44.5S588 107.334 588 94V76z"/><glyph glyph-name="F" unicode="F" horiz-adv-x="501" d="M495 482c-4-4.667-8.333-8.338-13-11.005s-10-4-16-4c-10 0-18.167 2.833-24.5 8.5s-11 11.667-14 18-6.5 16.5-10.5 30.5l-11 40c-1.333 10-2.833 19.833-4.5 29.5s-6.167 14.5-13.5 14.5c-4.667 0-13-1-25-3l-17-3-43-10-29-6-25-7c-36.667-6-57.5-15.167-62.5-27.5s-7.5-55.5-7.5-129.5l1-73v-7c0-12.667 2.333-19 7-19 4 0 7.667.333 11 1l76 16c42.667 10.667 76.334 16 101 16 18.668 0 33.168-2.833 43.5-8.5s17.167-12.167 20.5-19.5 6.166-13.833 8.5-19.5 3.5-9.5 3.5-11.5c0-8-20-15.667-60-23l-12-2-34-6-33-10c-6-2.667-14.168-5.167-24.5-7.5s-20.5-4.5-30.5-6.5l-28-5c-18-3.333-29.834-7.166-35.5-11.5s-9.168-12.165-10.5-23.498v-65c0-8 .166-15.667.5-23s3.832-12.333 10.5-15l29-4c8.666-1.333 16.666-6 24-14l4-7c7.332-14.667 11-26 11-34 0-9.333-6-16.666-18-22l-14-6-10-3C192.665-.334 173-5.667 161-7l-3-1-28-5-24-3H92c-15.334 0-25.667 1-31 3S48-4.67 38 6L25 21c-3.333 4.666-5 9.333-5 14 0 14 6.5 24 19.5 30S68 75.667 86 79c1.333 3.333 2 7 2 11 0 10.667-.167 22-.5 34s-.5 24.333-.5 37v18l-2 27-4 70-2 29c0 16-.167 31-.5 45s-.5 27.333-.5 40c0 13.333 1.167 31.333 3.5 54s3.5 41.667 3.5 57c0 16.667-3 26.667-9 30l-23 8-15 5c-4 2.667-8 5.5-12 8.5s-7 6.167-9 9.5C7 572.667.5 581.5-2.5 588.5S-6.667 602-6 608c0 15.333 13 26.333 39 33l18 5 27 2 54 10 6 1 70 9 11 2 27 3 98 7c13.333 0 29.833 1.333 49.5 4s35.5 4.667 47.5 6h9c14 0 23.667-2.667 29-8s10-16 14-32v-74c0-56.667.667-88 2-94z"/><glyph glyph-name="G" unicode="G" horiz-adv-x="648" d="M648 268c0-20.667-4.997-31-14.997-31l-11 2c-10.667 2.666-20.667 4-30 4-15.333 0-24-2.668-26-8l11-25 1-7 5.5-26.5c1-5 1.5-9.834 1.5-14.5 0-6.668-1.5-13.335-4.5-20.002s-5.833-12.667-8.5-18l-8-14-7-12c-15.333-26.667-39.5-50.834-72.5-72.5s-68.833-37.168-107.5-46.5-71.667-14-99-14c-42.667 0-81.334 8.166-116 24.5s-64.835 42-90.502 77-40.166 70.5-43.5 106.5v45l1 29v4c2 22.666 10 56 24 100l10 27 25 67 7 14 6 14c6.668 16 23 42.332 49 79l37 44c36.668 38 68.668 65.332 96 82l8 4 19 10c20 9.332 35.668 14 47 14 5.334 0 11-.834 17-2.5s12.668-4.5 20-8.5c6-2 12.834-6.168 20.5-12.5s15.168-9.5 22.5-9.5c6.668 0 14 10.332 22 31l1 5c1.334 4.666 5.334 7 12 7 8 0 19.668-3.334 35-10l12-7c11.334-6 18-10.834 20-14.5s3-15.168 3-34.5l2-75-1-60v-5l-3-29-4-25c-3.332-14.668-13-22-29-22-6.666 0-15 2.166-25 6.5s-18.166 13.832-24.5 28.5-9.5 39.333-9.5 74l-2 9c-7.332 26.667-15 44.334-23 53S403 617.334 387 616c-8 0-18.832-5.333-32.5-16s-29.666-25.667-48-45-36.332-43-54-71-38.166-63.333-61.5-106l-15-32-6-12-8-19c-24.666-64-37-118-37-162 0-32.667 4.668-55.667 14-69s26-22 50-26l22-4 5-1c22.668 0 45 2.167 67 6.5s51.334 13.833 88 28.5l39 20 33 24c26.668 22.667 40 42.334 40 59 0 12-2.666 20.668-8 26s-14.665 8-27.998 8c-10 0-17.667-.332-23-1s-15-3-29-7l-13-2-48-11-29-5-19-6c-7.333-3.332-15-.332-23 9s-12 22-12 38c0 23.334 7.833 40.167 23.5 50.5s47.5 20 95.5 29 85.333 15 112 18 49.667 4.5 69 4.5c33.333 0 54.666-3 64-9s17.165-16.833 23.498-32.5S648 274 648 268z"/><glyph glyph-name="H" unicode="H" horiz-adv-x="646" d="M631 62c2-12-1.334-21.328-10-27.995l-18-5-14-8-22-8c-21.334-6-41-10.5-59-13.5s-32.334-4.5-43-4.5c-16 0-31.168 8-45.5 24s-21.5 29.333-21.5 40c0 9.333 9.332 17.666 28 25l12 4c12.666 1.332 20.333 3 23 5s4.667 8 6 18c.667 2 .167 10.332-1.5 25s-2.5 32.666-2.5 54c0 10.666-.167 20.833-.5 30.5s-.5 19.167-.5 28.5c-.667.667-2.167 1.834-4.5 3.5s-9.166 2.5-20.5 2.5c-8.666 0-18-.332-28-1s-22.666-2.333-38-5l-50-8-4-1c-12.666-2-24-4.167-34-6.5s-26.5-7.333-49.5-15-37.332-13.834-43-18.5-8.5-15.335-8.5-32.002v-33c0-10.667.334-21 1-31 0-24 .334-37.5 1-40.5s5.335-5.5 14.002-7.5l17-1c4 0 7.667-.833 11-2.5s9.833-7.167 19.5-16.5 14.5-19 14.5-29c0-13.333-7.833-24-23.5-32s-27-13.167-34-15.5-15.167-4.5-24.5-6.5l-4-1-26-2-29-5c-11.333-2-20.666-3-28-3-15.332 0-28.332 4.333-39 13l-9 8c-12 13.333-18 24.666-18 34 0 13.332 13 24.665 39 33.998l20 7c4 1.334 6 8.667 6 22 0 12-1.332 28.333-4 49s-4.333 36-5 46-1 31.667-1 65l-2 77-1 35-1 53v45l-2 35-2 51c0 14-.333 22.833-1 26.5s-1.667 6.834-3 9.5l-4 3-23 4-21 10-11 10c-14.667 18.668-19.667 34-15 46 2 6.668 7.167 12.668 15.5 18s22.166 10.667 41.5 16l25 6 30 6 21 4c26 6 45.666 9 59 9 14.666 0 29-6 43-18s21-27 21-45c0-12.667-3-20.667-9-24s-10.834-5.833-14.5-7.5-6.835-2.834-9.502-3.5l-30-11c-3.333-.668-5.333-7-6-19s-1-28-1-48v-41l-4-26v-62l1-30 1-18c0-14.668 3.667-22 11-22s27.166 4 59.5 12S318 336 360 342l78 8 5 1c9.332 0 15.832 2.166 19.5 6.5S468 370 468 382c0 8-.668 17.332-2 28l-4 33c-1.334 11.332-2 24-2 38 0 13.332 1.5 30.332 4.5 51s4.5 36.666 4.5 48c0 14-3 22.332-9 25l-22 5c-4.668.666-9.168 2.166-13.5 4.5s-12.167 8.332-23.5 18-17 22.5-17 38.5c0 10 3 17 9 21l18 11c14.667 6.666 23.667 10.333 27 11l4 1 14 3h4l27 9 19 3 28.5 3.5c8.333 1 17.833 1.5 28.5 1.5 16 0 27.5-1.667 34.5-5s13.5-13.5 19.5-30.5 9-28.5 9-34.5c0-5.333-1.333-9-4-11s-9-5.667-19-11l-20-10-9-7c-5.333-7.333-8.5-15.833-9.5-25.5S563 564.666 563 522l-1-108v-27l1-89-1-81-1-69v-26c1.333-8.668 7.333-13 18-13 6 0 11 .332 15 1 6 0 13.167-4.668 21.5-14S629 75.332 631 62z"/><glyph glyph-name="I" unicode="I" horiz-adv-x="263" d="M255 608l-13-5.002-46-11c-6-1.333-10.334-11.666-13-31s-4-55-4-107l1-107 1-101v-8l1-24 2-44 1-36c0-18.666 1.332-29.333 4-32l31-8c16-4 26.5-12.5 31.5-25.5s7.5-23.167 7.5-30.5c0-9.333-3.668-16.333-11-21s-21.334-10-42-16l-20-5-3-1-13-1-5-1-46-10-36-5c-4.668-1.333-9.5-2-14.5-2H58c-10 0-17.5 2.5-22.5 7.5S24.665-3.002 18 8.998s-10 21-10 27c0 12.667 11 23 33 31l6 3 23 11c8.666 4.667 13.666 8 15 10l-2 33 2 34-5 56-1 5 1 113-4 112c0 38.667-.5 64.334-1.5 77s-2.168 26.668-3.5 42c-4 4-8.334 6.668-13 8l-16 3c-2.668.668-6.668 2.835-12 6.502S17.332 590.667 8 600s-14 18.666-14 28c0 8.666 4 18 12 28 4.667 4 12.167 7.666 22.5 11s30.833 8 61.5 14c10 2.666 19.333 4.5 28 5.5l31.5 3.5c12.333 1.332 23.833 2 34.5 2 23.333 0 40-5 50-15l4-3 7-9c6-8 10.5-15.668 13.5-23s4.5-13.667 4.5-19c0-8.667-2.667-13.667-8-15z"/><glyph glyph-name="J" unicode="J" horiz-adv-x="437" d="M403 667c8.667-12.667 13-24.334 13-35 0-20.668-13.667-34-41-40l-8-1c-6.667-1.334-11.334-4.334-14-9s-4-11.335-4-20.002c0-7.333 1-22 3-44l2-70 1-75v-76c0-58-2.334-111.333-7-160l-2-16-2-15-6-29c-8-28-18.834-49.167-32.5-63.5s-29.835-24.833-48.502-31.5-31.667-10.667-39-12-15.666-2-25-2l-15 1c-22 2-40.332 8-55 18l-15 11-2 2c-.666.667-3 1.334-7 2-6-2-9-8-9-18l-8-11c-9.332-9.332-18-14-26-14-6.666 0-14.5 3.168-23.5 9.5s-15 13.167-18 20.5-5.832 20.666-8.5 40l-1 22v25l-3 34-1 4-1 66v36c0 28 10.334 42 31 42 6 0 11.168-2.168 15.5-6.5s10.167-10.5 17.5-18.5 11.5-13.168 12.5-15.5 3.167-13.167 6.5-32.5l7-21c2-4.667 2-10.667 0-18l8-27c1.333-5.333 4.5-13.5 9.5-24.5s9.5-19.5 13.5-25.5 10-12 18-18l14-10c7.333-4 15.333-6 24-6 16 0 30.833 6.333 44.5 19s22.334 27.834 26 45.5 5.835 31.335 6.502 41.002 1 22.834 1 39.5c0 9.334-.167 22.334-.5 39s-.5 36.668-.5 60v20l-2 53c0 51.334-.667 85.334-2 102s-2.333 30.668-3 42v42c0 15.334-1.667 24.334-5 27s-13 4-29 4c-11.333 0-19.5 1.334-24.5 4s-11.833 8-20.5 16-15 12.334-19 13c-2 2-3 7.334-3 16 .667 5.334 1 9.667 1 13 1.333 6 7.5 12 18.5 18s31.167 13 60.5 21l29 6 17 3 13 2 28 7 31 2 15 3c10 1.333 17.833.5 23.5-2.5S395 679.667 403 667z"/><glyph glyph-name="K" unicode="K" horiz-adv-x="600" d="M605 675c0-6-2.17-12.33-6.502-18.997s-15.166-19.334-32.5-38l-16-16-4-2-51-47-85-80-24-24-19-19c-14-14-21-22.668-21-26 0-1.334 2.334-6 7-14l10-16 1-3c4.668-7.334 12.835-18.667 24.502-34l45-58 46-58c12.333-15.333 22.5-27 30.5-35l4-5 43-43c11.333-12 18.833-20.833 22.5-26.5s6.5-14.5 8.5-26.5l1-12c0-20.667-2.333-33.667-7-39s-17.334-8-38-8c-6 0-12.668 2.333-20 7s-17.334 13.667-30 27l-65 68-11 11-23 27-44 47-30 33-32 33-13 14-4 5c-9.334 11.333-16 17-20 17-3.334 0-8-3.667-14-11l-33-35-4-5c-5.334-5.333-10.334-10.666-15-16-1.334-4-2-19.332-2-46v-29l1-19c0-10.666.332-22.166 1-34.5s.5-20-.5-23 3.5-5.832 13.5-8.5h17c4.666.668 9.166 0 13.5-2s12.165-7.832 23.498-17.5 17-20.166 17-31.5c0-8-3-15-9-21-3.333-4.666-9.666-8.5-19-11.5s-27-7.166-53-12.5l-21-4-3-1-30-3-11-1-14-1-20-2-5-1c-12 0-21 1.168-27 3.5S44.333-9.662 35-.996l-11 15c-2 4-3 7.668-3 11 0 15.334 9.334 24.667 28 28s29.668 6.666 33 10 5 12 5 26c0 6-.166 12.832-.5 20.5s-.5 16.166-.5 25.5v9l-4 103-5 120v77c0 11.332-.166 22-.5 32s-.5 19.332-.5 28v44c0 14-1.332 22-4 24l-27 6-16 6c-8.666 5.332-16.166 13.165-22.5 23.498S-3 627.335-3 636c0 17.334 15 27.667 45 31l39 4 20 2 59 11 8 1c22.668 0 37.168-.333 43.5-1s12.834-4 19.5-10 12-13.333 16-22 6-16 6-22c0-10-3.332-16.667-10-20l-15-7c-15.332-6-25.665-9.667-30.998-11s-10-2-14-2c-2-1.333-3-4.333-3-9 0-6 .333-18 1-36s1-35.333 1-52c0-7.333-.167-17.5-.5-30.5s-.5-28.833-.5-47.5v-18l3-22 4 2c9.333 4 19.333 11 30 21s30.667 31 60 63l27 27c38.667 39.333 63.334 64 74 74s20.168 18.5 28.5 25.5 13.667 12 16 15 4.166 5.167 5.5 6.5l-12 20-3 7c-5.334 12-8 20.667-8 26 0 10 7.332 17.5 22 22.5s35.833 9.833 63.5 14.5l59.5 10c12 2 21.333 3 28 3 10.667 0 17.667-2.667 21-8s5-15 5-29z"/><glyph glyph-name="L" unicode="L" horiz-adv-x="491" d="M479 208c-2.667-22.667-4.334-40.834-5-54.5s-1-28.168-1-43.5V82c0-30-6.834-46.5-20.5-49.5S405.33 24.665 352 18l-18-2-88-13-87-15-31-7-3-1c-2-.668-5.334-1-10-1-5.334 0-11 .832-17 2.5S84.33-12 75-4l-8 7-14 13C37.665 29.33 31 42.33 33 55c1.332 8 4.832 14.832 10.5 20.5S56.665 86 66 90s14 10.166 14 18.5V142l-4 94v9l2 134v76c0 13.332-.168 26.5-.5 39.5S77 520.33 77 533l2 23c0 12.666-.834 20.5-2.5 23.5S68.33 586 57 590l-16 4c-8 2.666-14 5.5-18 8.5s-8.5 7.666-13.5 14S1.33 631.33 0 642c0 14 4.332 23.832 13 29.5S42.332 683 75 689l27 4h38l31 2h9c32 0 54-3 66-9s20.5-17.168 25.5-33.5 7.5-27.834 7.5-34.5c0-9.334-3.333-16-10-20s-16.667-7.5-30-10.5-23.333-4.668-30-5-11.667-.5-15-.5c-1.333 0-3.833-10.668-7.5-32s-5.5-71.667-5.5-151l-5-146v-18c0-70 1.167-108.833 3.5-116.5S194 107 216 107l82 5 36 4h27c10.667 0 17.167 1.333 19.5 4s4.166 11 5.5 25l10 94c2.666 20.667 4.666 34 6 40s4.332 14.833 9 26.5 11.333 17.5 20 17.5c7.333 0 16-4.333 26-13s16.833-16.167 20.5-22.5 5.5-15.833 5.5-28.5v-22c-2-12-3.333-21.667-4-29z"/><glyph glyph-name="M" unicode="M" horiz-adv-x="829" d="M829 650c3.333-13.333 5-22.662 5-27.995 0-9.333-4-16-12-20s-23.332-7-46-9c-10 0-18.5-11-25.5-33s-10.5-58.667-10.5-110c0-40.667 1.5-76.167 4.5-106.5s4.5-49.833 4.5-58.5v-59c-2-15.333-3.666-29.333-5-42s-2-23.667-2-33c0-10.667 1.5-17.834 4.5-21.5s8.834-6.168 17.5-7.5l21 1c2 0 4.834-.834 8.5-2.5s9.5-7.5 17.5-17.5c4.668-2.668 9.168-7.5 13.5-14.5s6.5-13.834 6.5-20.5c0-10.668-9-19.668-27-27l-26-8-34-7c-6.666-1.334-16.5-3-29.5-5s-22.166-3-27.5-3c-22 0-39.332.5-52 1.5s-24 6.832-34 17.5-15 20.666-15 30 7.668 17.665 23 24.998l4 2 24 8c10.668 3.333 17.668 7.166 21 11.5s5 12.5 5 24.5c0 10-1.666 32.666-5 68l-1 94 1 122c6.668 42.666 10 73 10 91 0 16.666-3.666 27-11 31-3.332 3.332-12.165-7.835-26.498-33.502s-32.5-60.333-54.5-104-56-114.834-102-213.5l-30-67-9-22c-4.667-11.334-11-19-19-23s-22-6-42-6c-14 0-26.667 6-38 18s-21.833 27.666-31.5 47-19 40.665-28 63.998l-25.5 68-35 96-35 94c-4.667-4-7.334-13.167-8-27.5s-1-29.833-1-46.5v-31l-2-94-1-119c-2-18-3-31.667-3-41 0-11.333 2.5-18.5 7.5-21.5s15.832-4.5 32.5-4.5c9.332-2 16.665-6 21.998-12s8.833-10.833 10.5-14.5 3.5-7.167 5.5-10.5c4.667-15.333 7-25.666 7-31 0-10.666-5.333-18.166-16-22.5s-29.667-7.665-57-9.998-49-3.5-65-3.5c-22 0-38.833 1.833-50.5 5.5S40.333-11.333 31-2l-9 12c-5.333 8.667-8 17.334-8 26 0 10.668 5.333 17.835 16 21.502s21.167 6.167 31.5 7.5 15.833 10.166 16.5 26.5S79 148.666 79 214v125l3 106c4.667 37.333 7 64.666 7 82 0 11.332-1 18.832-3 22.5s-6.333 7.166-13 10.5l-16 3c-7.333 1.332-12.833 3.165-16.5 5.498s-7.5 5.5-11.5 9.5l-7 11c-9.333 18.667-13.333 32.667-12 42 1.333 11.333 6.5 18.833 15.5 22.5s32.5 8.167 70.5 13.5l28 4c22 2 37.333 3 46 3s21.667-1.5 39-4.5 31.833-14 43.5-33 20.834-48.667 27.5-89 12.668-71.333 18-93 11-42.167 17-61.5l5-12 13-35v-4l13-44 2-7 7-17 2-7 17-40 10-20c3.334-1.333 5.334-1.666 6-1 6 4.668 11.334 12 16 22s11.668 28.334 21 55l47 108c37.334 84.668 70.334 153.5 99 206.5s47.5 83.334 56.5 91S660 700 694 700l47-2h4l24-3c21.334-4 35.667-8.666 43-14s13-15.665 17-30.998z"/><glyph glyph-name="N" unicode="N" horiz-adv-x="676" d="M673 658c2-9.333 2.996-16.662 2.996-21.995 0-11.333-8.333-19-25-23l-25-7c-14.667-2.667-23.834-7.834-27.5-15.5s-5.5-27.835-5.5-60.502c0-39.333.332-81.833 1-127.5l2-132.5c0-15.333-.168-30-.5-44s-.5-27.667-.5-41v-18c-1.334-73.333-2-116-2-128 0-8 .332-13.333 1-16s-.167-5.167-2.5-7.5-9.666-8-22-17-26.165-13.5-41.498-13.5c-19.333 0-35.166 6.167-47.5 18.5S443 50.67 405 108.003l-13 20-11 18-48 83-58 117-6 11-58 114-14 28c-5.332 12.666-8.832 20.166-10.5 22.5s-4.166 3.5-7.5 3.5c-3.332-2.668-6.5-11.668-9.5-27s-4.5-36.667-4.5-64v-28c0-6.667 1.334-22.667 4-48s4-54.333 4-87c0-36.667-2-69.334-6-98s-6-48.668-6-60 1.334-18.834 4-22.5 8-6.835 16-9.502l16-1c8 0 16.334-3.332 25-10s15.668-16 21-28l3-7c2-6 3-11.666 3-17 0-14.666-9.5-25.833-28.5-33.5S168.333-27 121-27H92c-5.332.667-9 1-11 1C59.667-22 44.334-17.333 35-12S21-.667 21 6c-2 15.333-3 26.666-3 34 0 10 2.667 16.5 8 19.5s14.166 6.332 26.5 10 20 7.666 23 12S80 95.664 80 110.997c0 6.667-.168 14-.5 22s-.5 17-.5 27v337c0 38-1 59.667-3 65-4.668 2-9.668 4-15 6l-12 4-7 3c-7.334 2-14.667 8-22 18l-4 7c-6 12-10.333 22.333-13 31s-3.667 14.334-3 17c2 14 15.333 24 40 30l73 7h4l21 3c9.333 1.334 16 1.667 20 1 22.667 0 39.667-3.333 51-10s21-18.667 29-36l4-11 4-10 4-15 13-23 39-85 19-40 21-47 43-94c24.667-54 39.334-85.333 44-94l30-52c5.334-9.333 10.834-16.166 16.5-20.5s9.835-6.5 12.502-6.5c5.333 0 8.833 2.668 10.5 8s2.5 14 2.5 26c0 8-.167 16.168-.5 24.5s-.5 16.834-.5 25.5v10l-1 37c0 76.668.833 133.335 2.5 170.002s3.667 61.667 6 75l5.5 32c1.333 8 2 14.333 2 19 0 8.667-2.167 13.834-6.5 15.5s-15.5 2.5-33.5 2.5c-3.333 0-7.833 2.168-13.5 6.5s-11.834 12-18.5 23-10 20.5-10 28.5c0 14 23 26.668 69 38l6 2 22 8c9.332 2.668 16.665 4 21.998 4 16 2 30 3 42 3 24 0 42.333-3.832 55-11.5s20.667-18.833 24-33.5z"/><glyph glyph-name="O" unicode="O" horiz-adv-x="671" d="M643 324c0-35.333-4.002-65.67-12.002-91.003s-22.667-57.333-44-96-45.666-69-73-91S457.5 8.83 426.5.497 373-12.67 359-14.003s-29.666-2-47-2h-38c-13.332 1.334-23.165 2.834-29.498 4.5S227.667-6.667 213-2l-31 12c-37.333 17.332-63.833 36.832-79.5 58.5S75 108.832 67 124.5s-15 31.667-21 48-10.5 32.333-13.5 48S28 253.667 28 273l-1 21c0 20.667 1.167 41.5 3.5 62.5s6.833 45 13.5 72 16.334 53 29 78 25.668 46.833 39 65.5 28.334 35 45 49c27.334 25.333 54.334 44.333 81 57s54.335 20.334 83.002 23c27.333 0 52.166-2.166 74.5-6.5S442.666 681 470 667c14.667-6 37-19.832 67-41.5s55.167-58.833 75.5-111.5S643 398 643 324zm-110.002 3.996l-.005 35.5c0 11.667.333 23.167 1 34.5 0 22.667-2 47-6 73s-10.333 48.5-19 67.5-18.167 33.167-28.5 42.5-18.166 15.833-23.5 19.5-14.165 8.5-26.498 14.5-31.5 9-57.5 9-46.5-2.833-61.5-8.5-34.5-18.667-58.5-39-44-48.333-60-84-27.167-71-33.5-106-10.166-62.833-11.5-83.5-2-38-2-52c0-17.333 1.834-34 5.5-50s10.335-36.333 20.002-61 23.167-44.334 40.5-59 43-25.668 77-33c10.667-1.334 18.334-2 23-2 52 0 101.834 26.332 149.5 79s71.5 120.333 71.5 203z"/><glyph glyph-name="P" unicode="P" horiz-adv-x="583" d="M503 608c23.333-27.333 41.17-54 53.502-80s18.5-51 18.5-75c0-44.668-21-86.668-63-126s-93.833-70.667-155.5-94-99.834-36.5-114.5-39.5l-41.5-8.5c-13-2.667-20.168-6.334-21.5-11v-73c0-9.334 4.666-15 14-17l19-3c3.332 0 7.165-1.5 11.498-4.5s9.666-8.668 16-17S250.33 43.665 253 37s4-12.335 4-17.002c0-8-3.334-13.5-10-16.5s-13.335-5.5-20.002-7.5-17.5-4.5-32.5-7.5-24.667-4.833-29-5.5-11.166-1-20.5-1c-14.666-1.333-28.166-2.333-40.5-3s-20.832-1-25.5-1c-19.332 0-34.665 5.167-45.998 15.5s-18.5 20.5-21.5 30.5-4.5 16-4.5 18c0 18.667 11.667 28 35 28 16 0 26.167 2.667 30.5 8s6.5 19.333 6.5 42c0 13.333-.167 26.333-.5 39s-.5 25-.5 37v14l1 127v110l3.5 37.5c1 11 1.5 22.167 1.5 33.5 0 12-1.333 20.167-4 24.5s-6.167 7.666-10.5 10-10.5 4.832-18.5 7.5l-21.5 7c-6.333 2-12.166 7.832-17.5 17.5s-8.665 16.333-9.998 20-2 8.5-2 14.5c-.667 6-1 10-1 12 0 10.667 4.167 18.167 12.5 22.5s28.5 10.833 60.5 19.5l16 4 57 9 22 3 5 1c4.667.667 15.5 1.334 32.5 2s27.167 1 30.5 1h31l24-1 23-2c18 0 34.5-1.666 49.5-5s32.167-8.665 51.5-15.998 35.666-15.333 49-24 26.665-21 39.998-37zm-39.997-57c-7.333 12-18.666 21.833-34 29.5s-30.832 12.5-46.5 14.5-28.5 3-38.5 3-27-1.5-51-4.5-43.666-6.5-59-10.5-25.5-8.667-30.5-14l-13.5-15c-4-16.667-6-64.334-6-143 0-43.334-.5-74.5-1.5-93.5s-.832-28.834.5-29.5c6-4 11.334-6 16-6 3.334 0 24.667 4 64 12l29 6 4 2c18.667 5.332 37 13.5 55 24.5s38.167 26.666 60.5 47 40 41 53 62 19.5 40.5 19.5 58.5c0 18.666-7 37.666-21 57z"/><glyph glyph-name="Q" unicode="Q" horiz-adv-x="672" d="M640 299c-7.333-54-18.67-96.832-34.002-128.5s-27.333-54-36-67-17-23.666-25-32-17-16.665-27-24.998-16-13.166-18-14.5l-27-16c-2.667-1.332-4-4-4-8 0-6 2-12.166 6-18.5s8.667-12.5 14-18.5l20-24 3-2c8.667-9.332 18-16.332 28-21l5-3 9-4c12.667-4.666 16-12.666 10-24-2.667-6-12-14-28-24s-30.333-15-43-15c-17.333 0-36.166 10.834-56.5 32.5s-35.332 40.835-45 57.502-17.166 27.667-22.5 33-10.332 8.666-15 10-11.333 2-20 2h-54c-6 0-14.667 1.832-26 5.5s-33.166 12-65.5 25S132.334 45.67 117 59.003 86 93.168 70 121.5s-26.833 52-32.5 71-8.5 43.167-8.5 72.5l-1 23-1 13v33c0 9.333 1.333 24.333 4 45 8 43.333 19.833 82.5 35.5 117.5s30.167 61.667 43.5 80 34.333 40.5 63 66.5 56 43.333 82 52c26 10 45.333 15 58 15s27-3.333 43-10 29-11.167 39-13.5l29-6.5c9.333-2 17.5-4.833 24.5-8.5s29.333-17.834 67-42.5 68.667-58.835 93-102.502S645 430.333 645 369c0-13.333-.333-23.833-1-31.5s-2-20.5-4-38.5zM529.997 411l-3 27.004c-6 45.333-15.332 78-28 98s-24.166 35.667-34.5 47-23 20.833-38 28.5-30.832 11.5-47.5 11.5c-25.332 0-51-6.833-77-20.5s-48-31.5-66-53.5-36.332-52.667-55-92l-17-40c-11.332-32.667-18.665-58.334-21.998-77s-5.334-35.835-6-51.502-1-26.5-1-32.5v-19l3-27c7.332-40.667 18.665-71.334 33.998-92s30.833-36.168 46.5-46.5 31.834-16.5 48.5-18.5h26c4.668.666 8 1 10 1 4.668 2 3.668 8-3 18l-7 12-7 12-6 11c-4.666 9.332-7 18-7 26 0 12.666 4.334 20.166 13 22.5s16 3.5 22 3.5c13.334 0 26.667-3.334 40-10 6-2 11.333-5.168 16-9.5s9.667-10.167 15-17.5l11-16c6.667-8.667 12.667-13 18-13 4.667 0 12.667 6 24 18l20 21 2 2c13.333 16.667 27.666 44 43 82l15 44c8 31.333 13 56.666 15 76s3 44.332 3 75z"/><glyph glyph-name="R" unicode="R" horiz-adv-x="651" d="M642 68c0-13.333-1.83-22.672-5.496-28.005s-11.834-9.833-24.5-13.5-22.335-5.5-29.002-5.5c-5.333 0-10.666 1.167-16 3.5s-12.665 6.833-21.998 13.5l-79 57-98 74-44 32c-14 10.667-23.333 18.667-28 24l-24 20c-3.333 0-8-.333-14-1-14.667-3.333-28.334-6.166-41-8.5s-22.335-2.832-29.002-1.5l-3-4 1-94c0-19.332.167-31.332.5-36s1.166-8.333 2.5-11l25-4c10.666-2.667 18.666-5.667 24-9s12.165-11 20.498-23 12.5-22.333 12.5-31c0-11.333-6.333-19.666-19-25s-24.667-9.5-36-12.5-20.333-5.166-27-6.5l-14-2-22-3-38-2-6 1-24 3-32 2c-5.333 0-11.333 3.334-18 10l-6 7c-8 15.334-12 27-12 35 0 13.334 8.667 21.334 26 24s29 5.335 35 8.002 9 12.334 9 29c0 9.334-1 24.167-3 44.5s-3.667 38.833-5 55.5v113l-3 222c0 13.333-1 21.333-3 24s-8 4-18 4c-21.333 0-38 10.667-50 32-7.333 11.333-11 21.666-11 31 0 2.666 1 6.333 3 11s6.667 9.334 14 14l50 19 30 13 21 1 100 21 25 3c39.333 4.668 70.333 7 93 7 16 0 31-1.166 45-3.5s32.333-7 55-14 41.667-14.166 57-21.5 34-19.665 56-36.998 38.833-34 50.5-50 18.667-31 21-45 3.5-23.334 3.5-28c0-27.334-10.5-54.834-31.5-82.5S530.333 364.33 481 329l-12-8c-4-2-15.333-6.5-34-13.5s-28-13.168-28-18.5c0-7.334 9-19.667 27-37s53.667-48.666 107-94l21-19 37-28 38-23c3.333-4.666 5-11.333 5-20zM486.004 604.994c-6 3.333-14.666 6.004-26 8.004s-26.332 3-45 3c-16.666 0-37-1-61-3-15.332 0-37.5-3.333-66.5-10s-52-13.334-69-20-27.832-13.335-32.5-20.002l-6-112c0-31.333-.332-53.833-1-67.5s-1.333-25.834-2-36.5c0-4.668 1.833-8.5 5.5-11.5s7.5-4.5 11.5-4.5 13.667 2 29 6l29 7 4 1c12 4 23.833 8.166 35.5 12.5s31.667 12.832 60 25.5 58.833 32.5 91.5 59.5 54 48.666 64 65 15 31.5 15 45.5c0 21.332-12 38.665-36 51.998z"/><glyph glyph-name="S" unicode="S" horiz-adv-x="571" d="M531 502V467.002c-1.332-8-2-13.667-2-17-3.332-16-13.332-24-30-24-5.332 0-10.832 1.167-16.5 3.5s-11.833 7.666-18.5 16-12.667 17.165-18 26.498l-4 7-4 65c0 60-24.667 90-74 90-19.333 0-43-6.667-71-20l-28-15c-22-12.667-40.167-25.5-54.5-38.5S183 532.667 171 516s-20.667-30-26-40-8-18.667-8-26c0-14 10-28.167 30-42.5S223 374 275 350l64-29 32-15 6-3 32-16c38.667-18 68.167-37.5 88.5-58.5S528 185.667 528 163c0-27.333-13.5-56.5-40.5-87.5S437.833 24 419.5 14 376-4.333 344-11c-20.667-3.333-37.334-5-50-5h-34c-16.668 0-27.668.5-33 1.5s-12.334 2.833-21 5.5-19 7-31 13-22.668 9-32 9c-14.668 0-22-14.667-22-44-1.334-4.667-5.334-7-12-7-3.334 0-6.5.333-9.5 1s-6.334 2-10 4L73-24c-7.334 4-12.167 8.167-14.5 12.5S54.334 2.666 53 18l-4 27v7c-.666 4.666-1 14-1 28v108c0 15.332-.666 27.665-2 36.998-.666 2 1.334 5.333 6 10s12 6 22 4l22-7c16-8 25-15.667 27-23v-14c-.666-5.333-.5-10.666.5-16s3.5-13.332 7.5-24c8.668-28.666 19.5-48.166 32.5-58.5S192.17 80 210.5 78s29.667-3 34-3H258c17.333 0 33.666 2 49 6l4 1 20 6 14 6 29 11.5c9.332 3.668 17.165 8 23.498 13s9.5 11.5 9.5 19.5c0 6-2.333 10.834-7 14.5l-15 12c-5.333 4.334-10.666 7.834-16 10.5l-36 23-2 2-15 8-26 14-4 2-35 24c-2.666 1.334-11.5 6.334-26.5 15l-41 23C171.167 292.667 163 297.334 159 300l-36 25c-20 14-35 27.833-45 41.5L48 407c-6.666 10.667-10 22.667-10 36 0 4.667.5 10.667 1.5 18l2.5 18 6 23c4 16 10.334 31.667 19 47s19.835 31.833 33.502 49.5 30.334 35.5 50 53.5 44.168 32.667 73.5 44c32 14 57.334 21 76 21 16.668 0 37.668-3.833 63-11.5s42.667-14.167 52-19.5 17-12 23-20l5 12 3 8 4 15c5.333 9.333 14.333 14 27 14 8 0 17.667-3 29-9 8-6 14.167-16.167 18.5-30.5s6.5-37.833 6.5-70.5V502z"/><glyph glyph-name="T" unicode="T" horiz-adv-x="525" d="M525 483c0-7.333-3.328-14.006-9.995-20.006s-14.667-9-24-9c-2.667 0-9.334 1.5-20 4.5s-21 13.667-31 32-16.668 45.5-20 81.5l-2 18c0 10.667-5 19.667-15 27s-20.668 10-32 8c-17.334-4-29.334-13.667-36-29s-11.168-30.666-13.5-46-3.5-43.665-3.5-84.998l-6-106v-67c0-76 1.166-126.167 3.5-150.5s4.832-37.5 7.5-39.5l27-3 12-2c28.666-9.333 45.166-20.666 49.5-34s6.665-21.165 6.998-23.498.5-5.166.5-8.5c0-8-4-14.166-12-18.5s-24-8.5-48-12.5l-55-12-23-6h-4l-5-1h-24l-29-5c-4.667-1.332-16-.665-34 2.002s-31.333 10.334-40 23-13 23-13 31c0 14 11.667 24.668 35 32l15 2c14 2 23.333 5.668 28 11s7 17 7 35c0 16-2.667 50.668-8 104l-1 5v117l-3 79-1 106v19c0 19.334-1.167 31.667-3.5 37s-8.833 8.666-19.5 10l-25-7-28-3c-14 0-23-2-27-6s-7.667-14-11-30l-6-70-8-27c-2.667-11.334-5.334-19.667-8-25s-9.335-8-20.002-8c-5.332 0-11.332.667-18 2s-15 8-25 20l-4 5c-.666 1.333-.166 16.166 1.5 44.5S5 563.33 5 636c0 8.666 6.168 16.333 18.5 23s32.167 11.667 59.5 15l30 4 38 5h13c10.667 2.667 21 5 31 7l46 3 21 2 61 12 38 3 71 8 34 1c19.333 0 32.833-3.833 40.5-11.5S518 686.333 518 667l1-64 2-67 1-19 1-11z"/><glyph glyph-name="U" unicode="U" horiz-adv-x="655" d="M636 677c6.667-11.333 9.998-21.66 9.998-30.994 0-11.333-6.667-21-20-29l-27-10-28-11c-1.333-3.333-2-6.333-2-9 .667-6.667 1.167-18.334 1.5-35s.5-32.335.5-47.002l1-123 1-79v-15l-1-29c0-30-2-55-6-75s-10.333-40.5-19-61.5-17.167-38.167-25.5-51.5-19.666-26.833-34-40.5-33-24.5-56-32.5-40.332-13.167-52-15.5-27.5-3.5-47.5-3.5c-27.332 0-47.165.833-59.498 2.5s-26.833 5.834-43.5 12.5l-34 18c-23.333 16.668-41.333 32.668-54 48s-24.167 35.834-34.5 61.5-18 54.668-23 87-7.5 66.834-7.5 103.5c0 27.334-.833 60.667-2.5 100s-2.5 59.666-2.5 61l1 30v15c0 8.666-2 14-6 16l-37 9c-4.667 0-10.334 3.332-17 10l-5 5c-15.334 19.332-23 34.332-23 45s9 19 27 25l41 11c62.666 12.666 107.666 19 135 19 16.666 0 29.166-1.668 37.5-5s16.5-10.667 24.5-22 12-23.333 12-36c0-15.333-4.834-24.333-14.5-27l-31.5-8.5c-11.334-3-20-5.167-26-6.5-2.668-2.667-4.5-4.834-5.5-6.5s-1.834-10-2.5-25-1-51.834-1-110.5v-89c0-28.668.332-56.335 1-83.002 0-43.333 2.5-74.833 7.5-94.5s13.166-38.334 24.5-56S235.83 58.333 247.5 51 275 40 295 40c8.666 0 26.666 1.166 54 3.5S402.5 67 427.5 107 465 214.667 465 310l1 81 2 82c0 43.332-1.168 73.165-3.5 89.498S446.665 587 418 587c-10 0-19.668 6-29 18l-9 13c-4.668 12-7 19.667-7 23 0 9.333 7.5 16.333 22.5 21s39.5 11.667 73.5 21l15 4 31 8c10.666 2 22.333 3.833 35 5.5s23 2.5 31 2.5c26.667 0 45-8.667 55-26z"/><glyph glyph-name="V" unicode="V" horiz-adv-x="655" d="M664 642c-6-14-16.166-21.837-30.5-23.504s-22.5-3.5-24.5-5.5-6.666-10-14-24l-24-51-2-3-58-141-57-142-28-71-12-28-21-48-4-10c-2-5.333-5.166-14.666-9.5-28s-8.165-26-11.498-38l-14-40c-6.667-10.666-13.334-16-20-16-5.334 0-14 2-26 6l-28 11c-19.334 7.334-32 16-38 26s-20.334 45-43 105l-31 87c-2.668 6.668-5.168 13.5-7.5 20.5s-4.167 14.168-5.5 21.5l-5 14-27 92-27 92c-10 52.668-16.333 82.168-19 88.5s-10.334 10.5-23 12.5h-6l-12 1c-7.334 0-14.5 2.5-21.5 7.5S2 569.33-2 577.997l-4 8c-3.334 10-5.5 18-6.5 24s-1.168 10-.5 12c2 3.334 8.332 7 19 11l16 6 4 1 3 1 58 8 29 6 30 5c34.666 4.668 59.666 7 75 7s27.332-5.832 36-17.5 13-23.5 13-35.5c0-17.332-14.334-32.332-43-45l-19-6c-18.668-4.666-28-11-28-19 0-7.332 8.666-36 26-86l30-115 2-9 52-160.5c6.666-19.666 11.666-31.5 15-35.5 4.666-4.666 8.333-3.666 11 3s5.334 15.335 8 26.002l24 61 15 35 49 114 62 144 1 3c17.334 28.667 28.167 47.334 32.5 56s5.166 14.668 2.5 18l-20 10-7 4c-6.668 4-10.335 8-11.002 12-18 29.334-27 47-27 53 0 8.668 15.333 16.335 46 23.002l93 19 17 1c19.333 0 35.333-6 48-18s19-26 19-42c0-4-1.333-10-4-18z"/><glyph glyph-name="W" unicode="W" horiz-adv-x="922" d="M930 671c7.333-18 10.998-29.665 10.998-34.998 0-6.667-2.333-11.5-7-14.5s-13.334-7.167-26-12.5l-21-8c-17.334-4-28.667-12-34-24s-13.666-40.167-25-84.5-22.165-80.833-32.498-109.5l-32-88-26-71c-6.333-17.333-11.166-32.333-14.5-45l-2-11-3-15-21-53c-6.666-16-11.5-28.167-14.5-36.5s-8.166-23.666-15.5-46-18.665-33.5-33.998-33.5c-6.667 0-15.667 2-27 6l-27 8c-25.333 9.334-43.166 23.667-53.5 43s-23.832 64-40.5 134l-14 64c-10.666 57.333-17.166 94.333-19.5 111s-3.5 28-3.5 34l-16 69-11-14c-2-2-5.832-8.333-11.5-19s-14.833-30.667-27.5-60l-29-69-5-12-18-47c-23.333-58.667-41-110.667-53-156l-1-4-11-27-1-4-7-28c-6.667-28-21-40.333-43-37l-29 6-10 1-6 1c-6 .667-11.667 3.167-17 7.5s-9.333 9-12 14-5 12.833-7 23.5l-8 43-2 12-13 117-11 82-3 26-8 99v6l-10 68-6 61c-2 16-5.833 25-11.5 27l-20.5 7c-8 1.333-18 9.666-30 25s-18 27.332-18 36c0 10.666 11.333 19 34 25s43 10.332 61 13l10 1 82 10c5.333.666 11.666 1 19 1 17.332 0 30.165-6 38.498-18s13-20.168 14-24.5 1.5-7.834 1.5-10.5c0-20-12-34.668-36-44l-29-8c-2-.668-2.333-10.5-1-29.5s2-44.168 2-75.5l2-20 3-29 6-70 5-63 3-32 9-94 2-4 3-10 9 17 5 13 24 63 23 63 68.5 185.5c20.333 55 33.666 87.166 40 96.5S406 609.666 418 613l5 1 14 3 17 6c4.666 1.333 9.833 1.166 15.5-.5s13.834-6.168 24.5-13.5 17.335-13.334 20.002-18l4-15 5-15 14-103 15-84 3-17 8-49 4-28c12-53.334 19.833-87.334 23.5-102s7.5-25.335 11.5-32.002l2-2 5-6 5 7 2 2c4.667 7.333 9.5 17.833 14.5 31.5s12.833 37.834 23.5 72.5l6 22 51.5 150c10.333 29.334 20.166 53 29.5 71s17.665 35.334 24.998 52 11 28.335 11 35.002-2 10.667-6 12-16 2-36 2c-8 0-16 6-24 18l-15 31c-6 12-9 20.333-9 25 0 6 5.333 10.333 16 13l15 1 4 1 43 11 50 8 26 4 11 1c29.333 0 48-1.667 56-5s15.333-14 22-32z"/><glyph glyph-name="X" unicode="X" horiz-adv-x="678" d="M683 640c0-19.333-1.996-33.164-5.996-41.497s-11.333-14.5-22-18.5l-24-2c-12.667-1.333-23.5-6.166-32.5-14.5s-25.5-24.832-49.5-49.5l-74-80-70-77c-8-10.666-12-19.666-12-27 0-8 6.167-19.666 18.5-35l36.5-45 42.5-54.5c16.333-21.666 30.166-41 41.5-58s20.165-29.332 26.498-37 11.833-12.833 16.5-15.5l2-2 3-2c5.333-1.333 10.666-2 16-2 8.666 0 22 1.333 40 4 6 .667 13.666-3.666 23-13l6-9c6-14 9-25.666 9-35 0-17.332-13-28.665-39-33.998l-38-9-5-1h-5l-78-5h-24c-22 0-38 .5-48 1.5s-20.334 7.833-31 20.5l-9 16c-1.334 5.333-2 9.333-2 12 0 11.333 5.332 18.666 16 22l12 3c8 0 14 1 18 3s6.666 6 8 12l-23 29-29 43-13 18-23 32-40 55-4-2c-37.334-22.668-56-47-56-73-5.334-34-24-59.334-56-76l22-10c15.332-7.334 23.832-17.334 25.5-30s2.5-20.668 2.5-24c0-14-7.334-24.168-22-30.5S190.666-13.33 150-17.996l-49-4H80c-22 2-39.167 6-51.5 12S6.667 6.336 0 21.004s-10 25.333-10 32c0 10 12 19 36 27l6 1 3 1 29 3 30 7 30 39 56 81 31.5 45c11 16 21.167 29.667 30.5 41s15.166 18.666 17.5 22 3.832 6 4.5 8l-1 6-74 124-74 122c-5.334 3.332-13.667 5-25 5-3.333 0-10.333-.668-21-2-7.333 2-14.666 5.166-22 9.5s-13.665 12.665-18.998 24.998-8 22.5-8 30.5c0 9.333 6.667 16.333 20 21l25 8 3 1c60 16 110 24 150 24h27c16.667 0 29.5-6.833 38.5-20.5s13.5-26.5 13.5-38.5c0-15.333-12.333-26-37-32l-9-2c-7.333-1.333-13.333-3-18-5s-6.334-5-5-9l11-21 36-55 6-10c19.332-26.667 32-45.167 38-55.5s10-19.5 12-27.5l8 3c1.332.667 6.5 6.667 15.5 18l36.5 45 40.5 49.5c11.666 14.333 21.833 25.166 30.5 32.5l-1 3-19 9-8 4c-17.333 9.332-26 22.665-26 39.998 0 6.668 2.667 15 8 25s21.166 18.5 47.5 25.5S549 691 641 691c9.332 0 18.665-4.832 27.998-14.5s14-21.833 14-36.5z"/><glyph glyph-name="Y" unicode="Y" horiz-adv-x="635" d="M641 662c.667-2.667 1.002-6.337 1.002-11.004 0-2.667-1.333-9.334-4-20s-6.5-18.5-11.5-23.5-14.167-7.5-27.5-7.5c-18 0-31.667-6-41-18l-42-63-9-14-12-21-14-23-46-84-9-19-24-46c-11.333-20.668-19.5-38-24.5-52s-8.5-28-10.5-42l-2-82-1-42c2-3.334 7-5.334 15-6l17 2c18.667 2 34-5 46-21s18-28.334 18-37c0-11.334-16-22-48-32-8-3.334-17.667-5.667-29-7l-35-8-7-1-3-1-41-1-20-2-16-2c-5.333-.667-9.333-1-12-1-15.333 0-32.333 9.333-51 28l-8 8-7 8c-4.667 5.333-7 10.666-7 16 0 10.666 11.333 20.333 34 29l8 3 19 3c14 2 21.667 8.333 23 19l1 13 1 3-2 84v17c0 20-2.333 34.5-7 43.5l-14 26.5-18 32-6 11-46 73c-32.667 51.333-56.167 92.666-70.5 124s-26.5 52-36.5 62-28.333 16.666-55 20c-2 1.332-4.333 3.832-7 7.5s-6.667 10.333-12 20-8 19.5-8 29.5c0 22 24.667 37.333 74 46l34 3h64c18.667 0 31.834-1.667 39.5-5s14.5-10.833 20.5-22.5 9-21.5 9-29.5c0-8.667-5.166-19.667-15.5-33s-23.165-18.333-38.498-15l2-7 67-111 48-80c12-20 19-30.667 21-32 2.667-2 5.667-2.833 9-2.5s7.166 4 11.5 11 11.665 20.333 21.998 40 19.666 38.334 28 56S396.333 513.332 413 536s26 41 28 55c-2.668-1.333-5.335-2-8.002-2h-6c-17.333 0-29.833 7.333-37.5 22s-11.5 26.334-11.5 35c0 13.334 10.167 23.834 30.5 31.5S465 692.334 517 699l58 7c23.333 0 39.5-2.667 48.5-8s14.833-17.333 17.5-36z"/><glyph glyph-name="Z" unicode="Z" horiz-adv-x="558" d="M519 570l-10.002-13.002-45-50-81-97-80-100-34-43c-36.667-46.667-64.334-83-83-109s-36-52.333-52-79l-2-4-5-11c-2.668-6-2.668-11.333 0-16s7.333-7 14-7c9.333 0 26.833 3 52.5 9l67 15.5c19 4.333 35.833 7.666 50.5 10s36.667 5.5 66 9.5l14 4c5.333 2 9.5 4.332 12.5 7s5.167 9.333 6.5 20l3 16 1 10v38c0 6.667.667 13.834 2 21.5s3.166 16.835 5.5 27.502 5.332 21 9 31 8.833 20 15.5 30 14 15 22 15c7.333 0 16-4.833 26-14.5s16.333-16.667 19-21 4-11.166 4-20.5c0-8-1-19.832-3-35.5s-4-33.5-6-53.5l-1-11-7-55-4-30v-4l-4-14c-7.333-16-19.666-27.5-37-34.5S406-1 360-5c-11.332 0-29-2.332-53-7L196-37l-8-2-47-10c-21.332-4.666-36.665-7-45.998-7-6 0-15 2.668-27 8l-10 5-5 3C35-28.665 24.167-15.665 20.5-1S14.666 22.67 14 26s-1 7.334-1 12c0 11.334 3.666 24.834 11 40.5S47 124 71 168l15 27c24 41.334 41.666 70.167 53 86.5s36.665 49.833 75.998 100.5l62 84 31.5 38 38.5 45 27.5 32c5.667 6.667 10.167 16 13.5 28-20.667 0-39.167-2-55.5-6s-35.833-8.333-58.5-13l-108-15-13-2-4-1c-5.333-2-9.166-5.333-11.5-10s-4.165-14.334-5.498-29l-8-60-1-9-6-47c-2-15.334-4.5-25.167-7.5-29.5S100.333 381 91 381c-13.333 0-23.666 3.333-31 10-14.666 10-22 31.333-22 64l3 31 4 59c0 44 3.668 72.333 11 85s24.334 22 51 28l62 14 16 4 60 14 58 12c30 6 54 9 72 9 21.334 0 39.834-3.333 55.5-10s28.668-13.5 39-20.5 22.667-18.833 37-35.5 21.5-31.667 21.5-45c0-8.667-3-18.667-9-30z"/><glyph glyph-name="bracketleft" unicode="[" horiz-adv-x="263" d="M237 619l-13-5c-10-2.668-17.5-4.335-22.5-5.002s-9.834-1-14.5-1c-6.668.667-10.668 1-12 1-9.334-1.333-14-53-14-155l1-107 1-101v-8l1-24 2-152 1-114c0-18.667 1.332-29.334 4-32l31-8c16-4 26.5-12.5 31.5-25.5s7.5-23.168 7.5-30.5c0-9.334-3.668-16.334-11-21s-21.334-10-42-16l-20-5-3-1-13-1-5-1-62-2c-8 0-13.668 8.332-17 25s-5 37.666-5 63c0 10.666.166 19.5.5 26.5s.832 13.166 1.5 18.5l2 112-5 164-1 5 1 113-4 112c0 40.666-.5 69.333-1.5 86l-3.5 56c-3.334 8-6.667 17.333-10 28s-5 21.334-5 32c0 12 2.5 22 7.5 30s13.167 13.334 24.5 16 21.333 4.5 30 5.5l31.5 3.5c12.333 1.334 23.833 2 34.5 2 23.333 0 40-5 50-15l4-3 7-9c6-8 10.5-15.666 13.5-23S245 639.334 245 634c0-8.667-2.667-13.667-8-15z"/><glyph glyph-name="backslash" unicode="\" horiz-adv-x="625" d="M605 0c-4.667-16-13.333-23.998-26-23.998-4.667 0-8.667 3-12 9s-7.333 12.667-12 20-10.667 15.333-18 24l-38 50-75 103-83 97-27 33-50 60-61 73-28 35-88 107-48 54c-11.333 13.333-17 26.666-17 40 0 3.332.667 8.332 2 15 7.333 20 18.333 30 33 30 5.333 0 11.333-2.168 18-6.5s15.667-12.334 27-24 27.333-30.835 48-57.502l61-78 53-70 64-87 7-9 40-52 33-43 71-95 27-35 47-60c20-26 33.833-46.5 41.5-61.5S606 20 606 10c0-4.667-.333-8-1-10z"/><glyph glyph-name="bracketright" unicode="]" horiz-adv-x="263" d="M228-87c3.333-8 6.667-17.332 10-28s5-21.333 5-32c0-12-2.5-22-7.5-30s-13.167-13.333-24.5-16-21.5-4.5-30.5-5.5L149-202c-12-1.333-23.333-2-34-2-23.333 0-40 5-50 15l-4 3-7 9c-6 8-10.5 15.667-13.5 23S36-140.334 36-135c0 8.666 2.667 13.666 8 15l13 5c10 2.666 17.5 4.333 22.5 5s9.833 1 14.5 1c6.667-.667 10.667-1 12-1 9.333 1.333 14 53 14 155l-1 107-1 101v8l-1 24-2 152-1 114c0 18.667-1.333 29.334-4 32l-31 8c-16 4-26.5 12.5-31.5 25.5S40 639.67 40 647c0 8.668 4 15.5 12 20.5S73.667 678 93 684l20 5 3 1 13 1 5 1 62 2c8 0 13.667-8.332 17-25s5-37.666 5-63c0-10.666-.167-19.5-.5-26.5s-.833-13.166-1.5-18.5l-2-112 5-164 1-5-1-113 4-112c0-40.666.5-69.333 1.5-86z"/><glyph glyph-name="asciicircum" unicode="^" horiz-adv-x="420" d="M387 460l-1.003-17c-3.333-19.334-14-29-32-29-15.333 0-36.333 8.332-63 25l-29 18-18 10-23 15-23-15-18-10-29-18c-26.667-17.334-48-26-64-26s-26.333 10-31 30l-1 17c0 4.666 3.667 10.666 11 18l4 2 35 25c6.667 6 13.834 11.666 21.5 17s16.835 11 27.502 17 22.333 13.832 35 23.5 21 15.833 25 18.5h14l59-42c10-5.333 19-10.833 27-16.5l24-17.5 34-25 4-2c7.333-7.333 11-13.333 11-18z"/><glyph glyph-name="grave" unicode="`" horiz-adv-x="480" d="M339 572c1.333-3.333.002-8.67-3.998-16.002-6.667-16-17-24-31-24-8 0-17.833 2.833-29.5 8.5s-24.5 14.834-38.5 27.5l-26 22-17 15c-9.333 7.334-18.833 15.5-28.5 24.5s-14.5 17.5-14.5 25.5c0 4 1.667 10.168 5 18.5l10 24.5c3.333 8 6.666 14 10 18s7.332 6.334 12 7 7.666-.332 9-3c14.666-16.666 32.666-33.666 54-51 5.332-5.332 10.165-9.665 14.498-12.998s8.5-6.333 12.5-9l11-14 8-8 31-31 3-4c6-5.333 9-11.333 9-18z"/><glyph glyph-name="a" unicode="a" horiz-adv-x="506" d="M486 62c2-6 3.002-11.672 3.002-17.005 0-9.333-3.667-17.333-11-24s-22.333-15-45-25-41.667-15-57-15c-21.333 0-34.666 9.333-40 28l-4 17c-4 .667-8.332.667-13 0-18.666-7.333-38.833-14.666-60.5-22s-42.334-12.665-62-15.998-36.835-5-51.502-5c-36 0-65 8-87 24s-33 42-33 78c0 15.333 7.167 36 21.5 62s32.333 45.833 54 59.5 49.834 27.834 84.5 42.5 59.168 23.5 73.5 26.5l48 10C324.17 289.166 333 295.333 333 304c-2 11.332-3.666 24.5-5 39.5s-4.5 29.666-9.5 44S303 409 287 409c-12.666 0-26.166-3.168-40.5-9.5s-45.832-27-94.5-62-76.333-52.834-83-53.5c-20-3.334-29 7.666-27 33 0 18 24.833 48.832 74.5 92.5S217.334 475 270 475c14 0 28.668-2 44-6 41.334-12.668 69.334-36 84-70s22-92.334 22-175c0-15.334-.332-32-1-50s-1.333-34.668-2-50c0-24 1.333-37 4-39 8 .666 16.333 1 25 1 10 0 18.667-1.668 26-5s12-9.667 14-19zm-144.998 92.995c0 12.667-2.832 22.168-8.5 28.5s-12.166 9.5-19.5 9.5c-62-6.666-111.332-21.333-148-44s-55-44-55-64c0-4 1.668-8.5 5-13.5s14-7.5 32-7.5c16 0 38.168 2.5 66.5 7.5s56.667 15.167 85 30.5 42.5 33 42.5 53z"/><glyph glyph-name="b" unicode="b" horiz-adv-x="549" d="M526 309c5.333-17.333 7.995-32.998 7.995-46.998 0-18-4-36-12-54s-20.667-38-38-60-36-40.833-56-56.5-44.333-31.167-73-46.5-52.167-26.166-70.5-32.5-38.166-10.832-59.5-13.5l-18-3-52-7-28-4-28-1h-11l-14 1c-18.666 0-31.333 8.668-38 26s-10 29.334-10 36c0 14 9 23.834 27 29.5s28.667 10.168 32 13.5 5 10.334 5 21c0 8-1 20.334-3 37s-4 34.668-6 54l1 100-1 89-1 22v13c.667 6 1.334 14.668 2 26s1 26.334 1 45l-2 33v35.5c0 11.668 1 21.5 3 29.5v4c-2.666 4-9 6-19 6h-21c-9.332 0-18.665 4.668-27.998 14l-6 7c-5.333 10-8.666 18.334-10 25s-1 12 1 16c1.334 2.668 3.334 4.668 6 6s9.335 4.334 20.002 9l59 15 17 5 14 4c6 2 11.666 3 17 3 12.666 0 26.333-9.666 41-29 10-15.332 15-27 15-35l-6-26-2-53-3-57v-46.5c0-3.666.333-5.833 1-6.5l3-3 42 4c10 0 22-.833 36-2.5s35-5.5 63-11.5 50.167-11.833 66.5-17.5 35.333-14.834 57-27.5 38.667-25.835 51-39.502S520 328.333 526 309zm-87.005-67.998c10 23.333 15 41 15 53 0 18-15 35.666-45 53s-64 26-102 26c-15.333 0-34-1.668-56-5s-39.5-8.834-52.5-16.5-20.667-14.668-23-21-3.5-21.5-3.5-45.5v-71c0-16-.167-30.668-.5-44s-.5-25.667-.5-37c0-18.667.667-30.5 2-35.5s5-7.5 11-7.5l18 2 18 3 4 1 29 7c42.667 12.667 76.667 29.5 102 50.5s44.5 38.5 57.5 52.5 21.833 25.667 26.5 35z"/><glyph glyph-name="c" unicode="c" horiz-adv-x="469" d="M441 130c.667-6 1-10.335 1-13.002 0-13.333-3.333-24.666-10-34s-21-22-43-38l-28-19-16-8-14-9c-35.333-18.666-70-28-104-28-11.333 0-26.5 1.5-45.5 4.5s-34.833 7.334-47.5 13S106.833 14.667 90.5 30 63.667 57 59 65s-11.167 23.668-19.5 47S27 157 27 177c0 12 .333 23.5 1 34.5s2.5 23.168 5.5 36.5 7.333 27.834 13 43.5S59.334 323 68 339l24 39c20 26.668 36.334 45.835 49 57.502S169.67 458 189 468l23 11 7 2 17 5c10 3.333 20 5 30 5 9.334 0 23.667-3.333 43-10l8-3 25-13c3.333.667 5.833 2.167 7.5 4.5s3.167 8.333 4.5 18 4.833 16.167 10.5 19.5 11.5 4 17.5 2c4.667-.667 11-3.667 19-9 11.333-9.333 18.166-17.666 20.5-25s3.5-24.665 3.5-51.998v-6l-7-100-2-22-1-4-4-10c-5.334-6.667-12.334-10-21-10-8 0-16.5 3-25.5 9s-15.334 16-19 30-5.5 38-5.5 72l-1.5 4.5c-.334 1-3.334 5.167-9 12.5s-14.835 11-27.502 11c-12 0-25.667-4.333-41-13s-32.666-22.667-52-42l-30-34c-16.666-20.667-29.166-38.834-37.5-54.5S125.667 232.333 119 211l-5-18c-6-26-9-47-9-63 0-20.668 6.168-35.168 18.5-43.5s27-13.5 44-15.5 28.834-3 35.5-3c14 0 35.668 3 65 9 21.334 5.332 37.5 10.832 48.5 16.5s34.168 20.166 69.5 43.5l15 10c8.668 6.666 16.335 10 23.002 10s11.167-3.334 13.5-10S441 134.666 441 130z"/><glyph glyph-name="d" unicode="d" horiz-adv-x="540" d="M541 39c1.333-15.333-3.5-25.664-14.5-30.997s-30.668-10.5-59-15.5-47.167-7.5-56.5-7.5c-16 0-30 9-42 27l-4 8c-6 .667-12.667 0-20-2l-32-12-34-11c-7.333-.667-14-1.5-20-2.5s-13.333-1.5-22-1.5c-10 0-28.167 1.667-54.5 5S130.334 8.17 105 22.503 62.67 51.167 54 65.5s-15 26.334-19 36-6.666 19.668-8 30-2 19.167-2 26.5c0 9.333 1.668 24.666 5 46 6 28 14.168 52.666 24.5 74s27.167 46 50.5 74l43 47c32.667 30 58 48.832 76 56.5s33.333 13.333 46 17 23.667 5.5 33 5.5c12.667 0 23.667-3 33-9l20-14 3 6c.667.667.5 10.167-.5 28.5S357 532 357 562v51c-2.667 2-6.5 3.833-11.5 5.5S330.667 621 316 621c-9.333 1.333-18.333 5-27 11l-11 9c-2.667 3.333-5.167 8-7.5 14s-3.5 10.667-3.5 14c0 12 6.333 20.667 19 26l12 2 10 3 29 6c23.333 4.667 41.666 7 55 7 9.332 0 19.832-2.333 31.5-7s19.833-11 24.5-19 7-21.667 7-41l-3-99V422l-1-63v-59l1-59c0-2-.5-8.833-1.5-20.5S449 196.333 449 183l3-30c2-18 3-31.333 3-40 0-7.333-.667-14.333-2-21 1.333-1.333 5.5-3.333 12.5-6s24.167-4 51.5-4c5.333 0 10.333-4.5 15-13.5s7.667-18.833 9-29.5zM361 293.002l-6 51c-4.666 34-17.666 51-39 51-7.332 0-19.332-4.333-36-13s-42-31.667-76-69l-32-39c-18.666-28-32.833-50.333-42.5-67s-15.5-28.667-17.5-36l-1-3-3-24c-2-14.667-2.667-24-2-28 4.667-34.667 41-52 109-52 16.667 0 40.667 6.333 72 19l22 10c23.333 12 37.666 22 43 30s8 22.667 8 44v36z"/><glyph glyph-name="e" unicode="e" horiz-adv-x="479" d="M438 111c0-10.667-2.167-19.834-6.5-27.5S418.334 67.33 405 58l-16-13-6-4c-8-4.668-14.5-8.168-19.5-10.5s-18.332-8.167-40-17.5S281.335-3.333 262-8s-38.665-7-57.998-7c-73.333 0-119.666 21.5-139 64.5s-30.5 70.333-33.5 82-4.5 24.167-4.5 37.5c0 12.667.168 25.334.5 38s3.167 31.335 8.5 56.002 14.5 49.667 27.5 75 29.833 49.166 50.5 71.5 37.834 38.832 51.5 49.5 28.835 19.5 45.502 26.5 31.667 12.5 45 16.5 25.666 6 37 6c14 0 26.166-2.668 36.5-8s24.165-13.834 41.498-25.5 31.5-25.168 42.5-40.5 18.5-34.334 22.5-57l2-24v-49c0-32.668-3.333-53.335-10-62.002s-22.667-14.334-48-17l-9-2-26-2-104-22-85-19-19-5-3-1-14-5c-12.667-2.668-19-10-19-22 0-3.334.5-7.5 1.5-12.5s3.167-14.668 6.5-29 10.666-24.834 22-31.5S159.666 64 183 64l21 1h6c35.333 4.666 79.333 20.333 132 47l30 18 23 13c2.667 1.333 6.667 2 12 2 18.667 0 29-11.333 31-34zm-91 267c0 8.667-.667 14.665-2 17.998-1.333 8.667-4.333 17.334-9 26s-11.667 13-21 13c-11.333 0-25.333-4.832-42-14.5s-29.167-17.666-37.5-24S215.667 380.334 201 367s-28-28.666-40-46l-18-28c-6-8-10.167-14.5-12.5-19.5S127 264.67 127 262l1-11c3.333 2.668 8.833 5.168 16.5 7.5S179 265.668 225 273l49 10 14 3 33 9c12 2.667 19.333 8.167 22 16.5s4 30.5 4 66.5z"/><glyph glyph-name="f" unicode="f" horiz-adv-x="331" d="M416 647c0-6.667-2.666-12.666-8-18s-11-7.332-17-6l-22 5-20 8-7 3c-2 .668-6.332 1-13 1h-18c-18.666 0-33.666-5.332-45-16s-21.332-30.333-30-59l-1-4-12-52c-4.666-22.667-7-39-7-49 0-8.667 2.668-14 8-16l33 4 12 1c20 0 36.168-2.167 48.5-6.5S336 428 336 412c0-8-2.5-16-7.5-24s-12.832-14.167-23.5-18.5-29.666-7.833-57-10.5c-18.666 0-30.333-4-35-12s-7-28-7-60v-35l-2-104c0-7.333-.167-14-.5-20s-.5-11.333-.5-16c0-12 5-20.5 15-25.5s18.5-9 25.5-12S256.667 65.667 262 57l2-6c4.667-15.333 7-25.333 7-30 0-9.333-6.333-15.666-19-19s-40.667-7.332-84-12l-27-2-19-2c-8-1.332-15-2-21-2H88C77.333-16 66.833-11.33 56.5-2S41 17.668 41 29s7.667 21 23 29 26.333 12.667 33 14 10.167 10.5 10.5 27.5.5 38.5.5 64.5v51c0 16.667.333 32.667 1 48l2 41c0 14.667-7 22-21 22-10.667 0-24.667-3.667-42-11l-13-4c-3.333-.667-8.333-1-15-1-27.333 0-41 11.667-41 35 0 4 .833 10 2.5 18s9 16.167 22 24.5S43 406 83 418l27 6 4 6c.667 2.667 3.334 19 8 49s8.668 57.333 12 82l5 22c16 52.667 33.334 87.667 52 105 22 24 49 36 81 36h12c5.334-1.333 9.334-2 12-2l30-7c35.334-14 59.167-25.667 71.5-35s18.5-20.333 18.5-33z"/><glyph glyph-name="g" unicode="g" horiz-adv-x="523" d="M524 451c7.333-11.333 11-22.34 11-33.008 0-17.333-8.334-28.166-25-32.5s-32-6.5-46-6.5c-.668-1.332-1.835-6.5-3.502-15.5s-2.5-29.5-2.5-61.5l1-95 2-61c0-50.666.333-88.833 1-114.5s1.334-49.5 2-71.5c0-38.667-1.166-69.167-3.5-91.5s-6.165-43.833-11.498-64.5-13.666-36.167-25-46.5-27.332-18.666-48-25-33-9.832-37-10.5-15-1-33-1h-43c-8 0-13.666.334-17 1l-28 5-25 5-26 5h-8c-32 10-54.832 18.834-68.5 26.5s-21.833 15.168-24.5 22.5c-3.333 14 .334 21.668 11 23 6 0 14-.832 24-2.5s38.334-7.166 85-16.5l52-5h24c28.668 0 50 4.5 64 13.5s23.334 22.5 28 40.5l6 35c2 10.668 4 23.335 6 38.002s3 27.334 3 38c0 16.668-1.166 28.668-3.5 36s-5.165 10.667-8.498 10l-85-24c-6-1.333-15.833-2.166-29.5-2.5s-25.834-.832-36.5-1.5l-32 3c-22 3.334-38.834 7.334-50.5 12S90.833 2.33 60.5 26.997s-45.5 57.667-45.5 99c0 14.667 1.832 31.834 5.5 51.5s10.666 42.335 21 68.002 27.332 56.834 51 93.5S145 405.834 179 429.5 247.333 465 282 465c26.666 0 52.666-7 78-21l9-5 2 10c4 14.667 12.332 24 25 28l60-2h34c7.332 1.333 15.665-3 24.998-13zM364 125.992L364 237.984v52c0 18.667-1 30.834-3 36.5l-12.5 35.5c-6.333 18-17.166 27-32.5 27-12.666 0-28-6.332-46-19s-33.332-25.666-46-39-28.666-32.665-48-57.998l-23-35c-10.666-18-18.833-33.333-24.5-46s-10.834-27-15.5-43-7.835-28.167-9.502-36.5-2.5-15.5-2.5-21.5c0-17.333 6.5-29.666 19.5-37s37.167-11 72.5-11c6 0 13.667.834 23 2.5s20.5 4.335 33.5 8.002 22.833 6.834 29.5 9.5 18 8.335 34 17.002 28.667 17.334 38 26 13.666 15.335 13 20.002z"/><glyph glyph-name="h" unicode="h" horiz-adv-x="568" d="M562 102c9.333-11.333 13.996-22.007 13.996-32.007 0-11.333-4.167-19.166-12.5-23.5s-18.666-7.5-31-9.5l-37.5-6-25-2h-55c-20.666 0-34.666 1.334-42 4-16.666 8-27.666 15.168-33 21.5s-8 12.834-8 19.5c0 8.668 3.334 15 10 19s13.335 6.334 20.002 7l8 3 21 7c8.667 2 13.834 3.834 15.5 5.5s2.5 5.835 2.5 12.502v18l-7 107v6l-4 27c-9.332 51.333-32.665 77-69.998 77-14.667 0-31.334-2.333-50-7l-20-6-45-17c-22-7.333-35-13.666-39-19s-6-19.332-6-42v-24l-1-149c0-8.666 1.666-14 5-16s10.332-3.666 21-5 18-3.665 22-6.998 8-9.333 12-18 6-15.667 6-21c0-20.667-29.668-37-89-49l-20-2H74c-18.668 0-31.335 1.167-38.002 3.5s-14.5 8.5-23.5 18.5-13.5 18.667-13.5 26c0 9.333 5.833 16.833 17.5 22.5s20.667 9.334 27 11 12.166 2.835 17.5 3.502c.666 5.332 1.833 23.832 3.5 55.5s2.5 107.166 2.5 226.5l-1 8-1 50v73c1.333 46.666 2 73.333 2 80 0 5.333-.667 8.666-2 10l-5 4-26-2c-9.333 0-20.666 4.332-34 13l-15 16c-9.332 12.666-13.332 22.666-12 30 2 10.666 9 18.333 21 23l4 2 57 16 25 7 17 2c30.668 0 50.668-10.833 60-32.5s14-68.167 14-139.5l-3-33-3.5-21.5c-1-6.333-1.5-12.833-1.5-19.5 0-12 8.668-18 26-18l50 11c8 2 19 3 33 3h19c20.668 0 38.835-2.5 54.502-7.5s38.167-16 67.5-33 49.833-34.5 61.5-52.5 20.167-48.333 25.5-91l2-17v-48c0-32.667 1.667-51.5 5-56.5s15.333-7.5 36-7.5c4.667 0 11-5 19-15z"/><glyph glyph-name="i" unicode="i" horiz-adv-x="272" d="M200 593c-.667-6-1.668-11-3-15s-3.334-9.334-6-16c-13.334-24-26.334-36-39-36-7.334 0-15.167 2-23.5 6s-17.666 8.832-28 14.5-16.332 13.333-18 23S80 587 80 593l2 17c4 23.333 10.168 39.5 18.5 48.5S121 672 137 672c2.668 0 6.168-.5 10.5-1.5s14.167-6.667 29.5-17 23-30.5 23-60.5zm51-548c2-8 3-14.668 3-20 0-7.334-3.168-12.834-9.5-16.5S226.665 1.33 210-2l-25-3-8-1-32-2-33-2-8-1c-8-1.334-19.334.833-34 6.5S45.164 9.667 39.497 21s-8.5 19.666-8.5 25c0 12.666 19.333 25 58 37l4 1 4 6c.667 1.332.834 10.5.5 27.5S97 167.33 97 216l-3 127-14 5-16 1c-10.666 0-19.666 3-27 9-8 8.666-13.832 16.5-17.5 23.5S14 393.665 14 397c0 10.666 5.668 20 17 28s32 15.332 62 22l28 6c10.668 2.666 19 4 25 4 3.334 0 7-1 11-3s10.334-6 19-12 14-11 16-15 3-11.668 3-23l-1-25-4-109-2-136-1-14v-7c-.666-10 1-17 5-21l23-5c2.668 0 5-.334 7-1 2-2 6-4.5 12-7.5S245.667 64.33 251 45z"/><glyph glyph-name="j" unicode="j" horiz-adv-x="228" d="M174 613c-6-22.667-12.5-39.167-19.5-49.5S138 548 126 548c-8.668 0-19 3.333-31 10s-20 14.667-24 24-6 21.666-6 37l1 11c4.666 25.332 10.5 41.832 17.5 49.5s18.832 10.833 35.5 9.5c14.666 0 27.833-6.833 39.5-20.5S176 640.333 176 625c0-2.667-.667-6.667-2-12zm43-179c9.332-12.667 13.998-22.994 13.998-30.994 0-10.667-9.333-20-28-28l-27-12c-4.667-1.333-7-7.666-7-19 0-4.666.5-10.833 1.5-18.5l2.5-19.5c.667-5.333 1-15 1-29 0-18.667-.167-37.334-.5-56s-.5-37.335-.5-56.002v-27l-2-84-2-39c0-37.333-2.167-67-6.5-89s-10.833-44.333-19.5-67-18.5-39-29.5-49-30.167-17.333-57.5-22l-21-3c-18.667 0-32.667.833-42 2.5s-24.333 6.167-45 13.5l-5 2-35 13-13 5-27 10c-24 10-39.667 25.333-47 46 15.333 6.667 25.666 10 31 10 6.666 0 17.833-2.167 33.5-6.5s30.167-8 43.5-11 29.666-4.5 49-4.5l19 1c36.666 3.333 59.833 13.166 69.5 29.5s14.5 55.832 14.5 118.5v177l-1 100v18c0 17.332-.833 27.165-2.5 29.498s-8.5 4.5-20.5 6.5l-17 3-3 1-10 3c-24 12.667-34.333 28.667-31 48 0 7.333 2.167 12.166 6.5 14.5s21.833 9.165 52.5 20.498l23 8 7 2c2 .667 8.667 2.167 20 4.5s24 3.5 38 3.5l12 1h15c20.667 0 36.334-6.667 47-20z"/><glyph glyph-name="k" unicode="k" horiz-adv-x="499" d="M504 60c4-1.333 6-5.665 6-12.998 0-6.667-2.332-13.667-7-21l-9-11c-10.666-11.333-21.666-17-33-17-12.666 0-27.333 6.333-44 19l-8 6-19 19-6 6-64 57-71 64-9 7-4 5c-4 3.333-8.333 5-13 5-6 0-15.167-6.833-27.5-20.5s-19.166-21.834-20.5-24.5-3-11.168-5-25.5-3-22.167-3-23.5c0-5.333 1.168-9.166 3.5-11.5s7.167-4.832 14.5-7.5l6-2 13-4 6-2c2-.666 4.667-2.333 8-5l10-11c4-7.333 6-14.333 6-21 0-13.333-5.333-21.666-16-25l-20-6c-46.667-9.332-77-14-91-14-5.333.668-9 1-11 1-20 2-34.167 4.5-42.5 7.5s-16.833 9.668-25.5 20-13 19.834-13 28.5c0 10 8.333 17.668 25 23l7 1 18 4c9.333 2.668 15.166 6.335 17.5 11.002s3.5 15.334 3.5 32c0 12-.168 23.668-.5 35s-.5 22.667-.5 34v14c.666 9.333 1.166 24.5 1.5 45.5s.5 40.5.5 58.5v35c-2.668 20.667-4.668 39-6 55l-2 25c-4.668 39.333-7 75.666-7 109 0 9.332.166 18.332.5 27s1.832 23.666 4.5 45c-.668 2-1.668 3.666-3 5l-32-4c-9.334-1.334-18.667 1.666-28 9l-9 9c-6 8-9 17.332-9 28v6l5 10c2 4 6.5 7.666 13.5 11s20.833 6.832 41.5 10.5 39 5.5 55 5.5c20.667 0 36.334-2.668 47-8 7.334-4.668 12-9.335 14-14.002s3-14.667 3-30c0-10-.332-28.5-1-55.5s-1-47.167-1-60.5c-.666-5.333-.5-21 .5-47s1.5-57.333 1.5-94v-29c0-13.333-.166-26-.5-38s-.5-23.333-.5-34l1-11 9 1 64 59 23 22c6 6 9 10.667 9 14s-5 12.666-15 28l-3 14c1.334 9.332 6.167 15.832 14.5 19.5s26.833 7.166 55.5 10.5l7 1 8-1h8l16 4c8 2 18.667 3.666 32 5 43.333 0 68.5-8.834 75.5-26.5S489 383 489 375c0-12-10.667-19-32-21l-9-1-21-1c-6 0-11.5-.834-16.5-2.5s-10-4-15-7S383.333 334 374 326l-13-12-11-10-3-2-22-16c-6.667-5.334-11.667-9.834-15-13.5s-5-7.5-5-11.5c0-12.668 47.667-65.335 143-158.002l19-17 15-13 2-2z"/><glyph glyph-name="l" unicode="l" horiz-adv-x="247" d="M234 60c6-14 9.002-24.33 9.002-30.998 0-8-7-14.667-21-20l-21-7-4-1c-4.667-.667-14.334-1.834-29-3.5L127-7l-36-4c-3.334-.668-8.334-1-15-1C51.333-12 34.666-4.167 26 11.5S13 37.667 13 43c0 6.666 3 11.666 9 15s15.5 5.832 28.5 7.5 21.667 6.333 26 14 6.5 28.167 6.5 61.5c0 19.333-.333 54.666-1 106s-1 88-1 110l-1 112 2 50v4c2 17.332 3 29.665 3 36.998 0 12-2 19-6 21l-27 1-9 1c-24 5.333-38 17.666-42 37-2 11.332-.333 19.832 5 25.5S24.333 659 45 669l10 4 30 9 6 1 22 1c16 0 26.667-.834 32-2.5s12-7.168 20-16.5l7-8c4.667-9.334 7-21 7-35 0-9.334-.333-26.167-1-50.5s-1-43.833-1-58.5c0-8.667-.333-25-1-49s-1-47-1-69l-1-114V179l2-88c.667-.667 5.167-2.5 13.5-5.5s16.333-5.667 24-8S227 70.667 231 64z"/><glyph glyph-name="m" unicode="m" horiz-adv-x="806" d="M800 69c5.333-8.667 8.003-16.34 8.003-23.007s-3.333-13.334-10-20l-47-8-3-1-17-6-3-1-18-3-34-3c-24 0-40.667 1-50 3s-16.333 5.832-21 11.5-8.334 11-11 16-4 10.166-4 15.5c0 10.666 3.666 17.666 11 21s14.665 5 21.998 5c15.334 1.332 24.834 4.5 28.5 9.5s5.5 17.832 5.5 38.5c0 7.332-.166 15.5-.5 24.5s-.5 18.5-.5 28.5v10l-6 89-1 8-2 16-3 13-4 13c-5.332 17.332-11.165 28.832-17.498 34.5s-15.833 8.5-28.5 8.5c-8.667 0-16.334-.668-23-2s-15-4.167-25-8.5-24.668-13.333-44-27-32.834-25.667-40.5-36-11.5-25.166-11.5-44.5c0-6 .166-15.666.5-29s.5-27 .5-41v-67c0-1.332 2-3.165 6-5.498s12.332-6.166 25-11.5 20.666-12.165 24-20.498 5-14.5 5-18.5c0-13.333-8-21.666-24-25l-19-3-8-1-21-1-43-4c-20-2-35-3-45-3-12 0-20.5 1.334-25.5 4s-11 8.335-18 17.002S297 59.665 297 69c0 12 4.166 19.332 12.5 22s17.165 5 26.498 7 16.666 3 22 3c.666 6 1.333 21 2 45s1 57.666 1 101c0 10-.5 18.666-1.5 26s-3.5 17.5-7.5 30.5-10.833 27.332-20.5 43S307.666 370 289 370c-6.668 0-23.835-4.334-51.502-13s-45.5-19-53.5-31-12-43.334-12-94v-26c0-13.334-.333-26-1-38s-2-24-4-36-3-22-3-30c0-12 2.667-20.334 8-25s15.333-7 30-7c4 0 7.5-1.5 10.5-4.5s7.333-9.334 13-19 8.5-17.5 8.5-23.5c0-6.668-3.667-11.668-11-15s-20.666-6.667-40-10l-46-5-47-5h-9c-14 0-25.166 1.333-33.5 4S31.667-.833 25 5.5 15 20 15 30s6 18.333 18 25 26.334 13 43 19c2 1.333 3 5.333 3 12 0 8-.166 16.5-.5 25.5S78 129.667 78 139v89l3 76c0 .667.668 6 2 16s2 17.667 2 23c0 8.667-1.5 14.667-4.5 18s-8.832 5.666-17.5 7l-3 1-16 3-12 3c-18 6-28 15-30 27-2 8-.166 15.166 5.5 21.5s19 14.165 40 23.498 39.5 14 55.5 14h8c3.334-1.333 11.834-3.666 25.5-7S160 438.334 166 417l3-10 49 12c12 2.667 25 4 39 4h26c9.334-2 18.5-3.667 27.5-5s14.5-2.166 16.5-2.5 8.834-2.5 20.5-6.5 22.168-8.332 31.5-13 15.334-8.333 18-11l21-17c6.668 2 13.335 5 20.002 9l8 6 9 7c6.667 5.333 16.667 10.333 30 15s27.166 8.5 41.5 11.5 25.5 4.833 33.5 5.5 15 1 21 1c34.666 0 65.5-8.5 92.5-25.5s47-37.5 60-61.5S753 272.667 753 218v-35c-1.334-8-2.334-15.5-3-22.5s-1.5-14.667-2.5-23-1.5-16.833-1.5-25.5c0-9.333 1.332-15.333 4-18s8-4.667 16-6l9-1 5-1c4.666 0 11.333-5.667 20-17z"/><glyph glyph-name="n" unicode="n" horiz-adv-x="540" d="M539 60c2.667-16.667-2.17-29-14.504-37s-36.166-12-71.5-12h-32c-34 0-56 1.833-66 5.5s-17.5 12-22.5 25-7.5 21.833-7.5 26.5c0 13.333 10 20 30 20 19.334 0 30.167 2.833 32.5 8.5s3.5 26.5 3.5 62.5l-3 111-1 8c-1.333 18.667-2.833 32.834-4.5 42.5s-5.167 20.835-10.5 33.502-13.666 21.667-25 27-29.332 8-54 8c-12 0-27.332-3.667-46-11l-10-4-18-7c-18.666-8.667-30.666-19.667-36-33s-8-41.333-8-84l-1-92v-24l1-56 26-9c19.334-7.333 29-18.666 29-34 0-7.332-2.332-14-7-20s-10.833-10.832-18.5-14.5-17.5-6.166-29.5-7.5l-39-6-5-1c-8-1.332-15.5-2-22.5-2h-15.5c-9.333 0-19.666.834-31 2.5s-21.5 10.168-30.5 25.5-13.5 26.334-13.5 33 5.334 12.335 16 17.002l35 9 6 3c4.668 3.333 7 9.666 7 19 0 5.332-.332 23.665-1 54.998s-1 54.333-1 69c-.666 61.333-1 98.666-1 112v15c1.334 6 2 10 2 12-2 4-4 7-6 9l-25 5c-20.666 4-33.666 15-39 33-1.332 8-2 13-2 15 0 10.666 5.334 18.666 16 24s24.835 10 42.502 14 29 6.5 34 7.5 10.167 1.832 15.5 2.5h24c11.333 0 18.833-1.834 22.5-5.5s6.5-11.835 8.5-24.502c.667-1.333 3.167-1.666 7.5-1s14.333 2.835 30 6.502 33.167 5.5 52.5 5.5c11.333 0 20-.333 26-1 24 0 42.667-2.167 56-6.5s31.833-13.5 55.5-27.5 42-31.167 55-51.5 21-41 24-62 4.5-38.5 4.5-52.5l-3-139c-1.333-2.667 3.334-6.334 14-11S516.334 86.666 529 82c4.667-2.667 8-10 10-22z"/><glyph glyph-name="o" unicode="o" horiz-adv-x="527" d="M494 294c4-18 6-36.33 6-54.998 0-34-8-71.333-24-112s-38.166-73.167-66.5-97.5-61.5-38.5-99.5-42.5l-20-2h-8l-19 1-22 1h-6l-6 1-22 3c-20.666 2.667-36.333 5.834-47 9.5s-23.167 9.668-37.5 18-29 19.667-44 34-27.333 31-37 50-14.5 41.5-14.5 67.5l-1 23c0 31.333 2.5 56.666 7.5 76s16 44 33 74 40.167 53.166 69.5 69.5 51 27.165 65 32.498 29 8.666 45 10l17 2 11 1c9.333 0 19-.334 29-1s31.167-4.5 63.5-11.5 59.333-25.168 81-54.5 37.167-61.667 46.5-97zm-96-41.998c0 16.667-2 32-6 46-5.332 25.332-12.165 44.5-20.498 57.5s-20.666 24.332-37 34-33.165 14.5-50.498 14.5c-22.667 0-41.334-5.668-56-17l-29.5-23c-5-4-12.668-11.168-23-21.5s-20.834-26.834-31.5-49.5-18-48.668-22-78l-2-26c0-8 .666-16.168 2-24.5s3.5-17.5 6.5-27.5 5.332-17.168 7-21.5 6.166-12.167 13.5-23.5 17.165-21.5 29.498-30.5 24.666-14.667 37-17 20.832-3.5 25.5-3.5c15.332 0 45.332 9 90 27s67 79.333 67 184z"/><glyph glyph-name="p" unicode="p" horiz-adv-x="539" d="M493 177c-10-16-22.997-32-38.997-48s-37.333-32.834-64-50.5-54.334-31.5-83-41.5l-10-3-54-16-30-9-34-5c-1.334-3.334-2.334-8.167-3-14.5s-1-23.833-1-52.5v-29l3-44c2.666-5.333 8-10.333 16-15s19.666-7 35-7c6.666 0 14.333-5.833 23-17.5s13-20.167 13-25.5c0-11.333-17.667-21.333-53-30l-20-5-16-3-32-4-23-4c-12.667-2-21.667-3.167-27-3.5s-11-.5-17-.5c-7.333 0-14 .833-20 2.5s-12.5 4.834-19.5 9.5-12.833 9.168-17.5 13.5-7 10.167-7 17.5c0 9.333 4.167 16.166 12.5 20.5s15.166 6.5 20.5 6.5c15.332 2 24.665 5.666 27.998 11s5 19 5 41v474c0 13.332-.332 21.5-1 24.5s-2.333 5.832-5 8.5H36c-26 0-40.333 7-43 21s-4 22-4 24c0 9.332 8.667 18 26 26l22 11 3 1 21 6 48 19c8 3.332 14.333 5 19 5 5.333 0 12.166-1.668 20.5-5s14.665-7.834 18.998-13.5 8.5-14.5 12.5-26.5l64 3c14.667 0 28.334-.834 41-2.5s29.835-5.335 51.502-11.002 40-11.667 55-18 40.667-21.666 77-46S523 312.334 523 267c0-28-10-58-30-90zm-76.997 53c16 23.332 24 42.665 24 57.998 0 16.667-6.333 30-19 40s-23.667 16.5-33 19.5-22 5.833-38 8.5-31.667 4-47 4c-7.333 0-16-.5-26-1.5s-22.5-2.833-37.5-5.5-27-5.667-36-9-15.5-8-19.5-14l-4-115c-1.333-63.333-2-98.666-2-106 0-4.666 1.5-8.5 4.5-11.5s8.167-4.5 15.5-4.5c4 0 8.667.5 14 1.5s14.333 4.5 27 10.5l43 18 3 2 45 27c19.333 13.334 36.5 26.834 51.5 40.5s26.5 26.168 34.5 37.5z"/><glyph glyph-name="q" unicode="q" horiz-adv-x="557" d="M552 426c3.333-10 5.002-17.668 5.002-23 0-18.668-11-28-33-28-21.333 0-33.666-4.334-37-13s-5-43.335-5-104.002l-6-107-2-61c0-126.667 1-206.667 3-240s5.668-50 11-50l14 6c4-1.333 8.168-3.5 12.5-6.5s10.667-9 19-18 12.5-17.833 12.5-26.5c0-5.333-3-10-9-14s-12.667-7-20-9l-26-9-4-2-27-7-26-2c-6.667-1.333-12.5-2-17.5-2h-10.5c-8.667 0-16.334 1.667-23 5l-7 6c-14.668 11.333-22 20-22 26 0 4.667 3 11.334 9 20s9.666 14.835 11 18.502 2 9.834 2 18.5c0 6.668-.834 17.5-2.5 32.5s-3.835 32.668-6.502 53-4.334 34.167-5 41.5-1 14-1 20l1 12v8c.666 2.667 1 5.167 1 7.5v4.5c0 4-.668 6.667-2 8l-4 3-97-13c-10.668-1.333-19.335-2-26.002-2-28 0-55.333 5-82 15s-43.334 17-50 21-18.668 13.167-36 27.5-30.5 30.833-39.5 49.5-13.5 41-13.5 67c0 22 5.166 46 15.5 72s26.832 55.833 49.5 89.5 46.833 60.667 72.5 81 51.334 34.333 77 42 44.668 12.834 57 15.5 23.167 4 32.5 4c14 0 30-3.332 48-10l15-7c.667-.666 2.334.167 5 2.5s6.335 6.333 11.002 12 10 8.5 16 8.5l56-5c26 0 43.5-1.833 52.5-5.5S537.667 448 545 438zM372.002 321l.002 24.997c0 8-4.5 15-13.5 21s-20.5 9-34.5 9c-8.667 0-17.5-1.667-26.5-5s-20-9.833-33-19.5-30.833-25.5-53.5-47.5-41.5-46.333-56.5-73-25.5-48-31.5-64-9-31-9-45c0-8.667 1.167-17.667 3.5-27s8.833-17.666 19.5-25 28.667-13 54-17l25-2c24.667 0 41.667.834 51 2.5s22.666 6.5 40 14.5l12 7c23.332 12 36.665 21.334 39.998 28s5 24.668 5 54c0 12 .333 29.334 1 52s1 39.335 1 50.002l5 50z"/><glyph glyph-name="r" unicode="r" horiz-adv-x="374" d="M349 313l-11.996-37.002c-10-28-22.667-42-38-42-7.333 0-16 4.333-26 13s-15 26.334-15 53c0 4 .333 9 1 15s1 10.668 1 14l3 19 10.5 44c1 4 .833 7.668-.5 11-2.667 6-6.667 7-12 3-3.333-1.332-7.333-4.165-12-8.498s-7.667-7.5-9-9.5l-18-25-3-4c-14-21.333-26-49-36-83l-10-56c-8-44-12-75-12-93 0-20.667 7-35.667 21-45l28-9 18-9c8-6 12-14.333 12-25s-4.333-20-13-28c-8-5.333-17.333-9.333-28-12s-22-4-34-4l-32-2-23-2-9-1-54-4c-4-.667-7.333-.334-10 1s-8.334 6-17 14l-11 11c-7.334 9.332-11 18.332-11 27 0 12.666 9.332 21.833 28 27.5s32.666 8.5 42 8.5c1.332 0 2 4 2 12 0 4.667-.168 12.5-.5 23.5s-.5 25.167-.5 42.5v17c0 24-.334 43.667-1 59l-2 45c0 10 .166 16.833.5 20.5s1.165 11.334 2.498 23 2 20.5 2 26.5c0 7.334-1.333 12.334-4 15s-7.334 4.668-14 6H37c-5.334-.666-14.334 4.334-27 15C0 392-5.5 401.17-6.5 407.5S-8 418.335-8 421c0 7.334 3.832 13.167 11.5 17.5S27.334 449.333 52 458l24 7c9.333 2 18 3 26 3 17.333 0 30.5-4.5 39.5-13.5s13.5-21.167 13.5-36.5c-.667-8-1-13.667-1-17 0-9.333 1.667-14 5-14l6 2 33 37c6 6 15.167 12.5 27.5 19.5s25.166 10.5 38.5 10.5c15.332 0 32.665-6 51.998-18 28.667-20 43-42.333 43-67 0-16-3.333-35.333-10-58z"/><glyph glyph-name="s" unicode="s" horiz-adv-x="448" d="M429 367l-1-29c0-18.667-1-32.334-3-41s-5.333-18.168-10-28.5-7.5-16.5-8.5-18.5-3.667-5.834-8-11.5S388 230 380 230c-12.667 0-22 5.332-28 16s-10 19.5-12 26.5-3 16.166-3 27.5c0 10 1 23.666 3 41v20c0 22-10 33-30 33-6.667 0-16.667-2.834-30-8.5s-25.5-11.168-36.5-16.5-19.167-10-24.5-14l-28-21-25-23-19-18c-3.333-4.668-5-8.668-5-12 0-11.334 9.667-21 29-29l57-25 17-7 7-4 8-3 14-9 25-11c10-2.668 17.667-5.168 23-7.5s24-12.834 56-31.5 48-41.335 48-68.002c0-16-10-34.667-30-56l-14-12c-17.333-14.667-34.333-25-51-31s-39.667-9-69-9c-19.333 0-36.666.833-52 2.5s-34.332 5.5-57 11.5l-17 4-10 3-10 4c-34 12.667-57.166 22.167-69.5 28.5S25.67 43.33 21 47.998c-7.332 10.667-10.665 19-9.998 25 1.333 8.667 5 15.334 11 20s13.667 7 23 7c8.667 0 16.667-.666 24-2s18.666-4.665 34-9.998l15-5 19-7c12-4.667 29.832-8.334 53.5-11s38.666-4.335 45-5.002 14.165-1 23.498-1c7.333 0 13.666.667 19 2s12.165 3.5 20.498 6.5 9.833 8.833 4.5 17.5c-2.667 4.667-7 9.334-13 14s-18.667 12.668-38 24c-8 6-21 12.834-39 20.5s-48.333 19.5-91 35.5c-10 2.668-18.667 7.335-26 14.002-13.333 8.667-23.666 17.5-31 26.5s-13 20-17 33-6 23.5-6 31.5c0 11.333 4.334 26.333 13 45s20.668 35.334 36 50 33 28.668 53 42 33.834 22.167 41.5 26.5 17.335 8.333 29.002 12 23.167 5.5 34.5 5.5c12.667 0 37.667-7.333 75-22l10-5c8-4 15.333-7 22-9l6 19c4 12.667 11.333 19 22 19 5.333 0 11-2.333 17-7s10.667-10 14-16c6.667-8.667 10.667-16.167 12-22.5s2-19.5 2-39.5v-15z"/><glyph glyph-name="t" unicode="t" horiz-adv-x="364" d="M355 63l-13.002-20-2-2c-4-5.332-10.167-11-18.5-17s-20.833-14.166-37.5-24.5-34.667-15.5-54-15.5l-24 2c-24.667 4-43.667 10.668-57 20-20.667 12.668-35.167 27.835-43.5 45.502s-12.5 47.167-12.5 88.5l-1 22v86c0 24-.833 39.167-2.5 45.5s-6.167 9.5-13.5 9.5c-2 0-9.667-1.333-23-4l-13-1c-22.667 0-37.5 5.833-44.5 17.5s-11.667 20.5-14 26.5-3.5 11.667-3.5 17c0 2.667.833 6.167 2.5 10.5s8.167 9.166 19.5 14.5 25.333 9.665 42 12.998 26.334 5.166 29 5.5 7.335.5 14.002.5c1.333 1.332 3.5 5 6.5 11S96 434.33 96 457v31c-2 10.666-3.5 20.5-4.5 29.5s-1.167 16.166-.5 21.5c0 34 12.333 51 37 51 11.333 0 27.333-4.168 48-12.5s31-19.167 31-32.5c0-5.333-2.5-15.666-7.5-31s-7.5-31.665-7.5-48.998c0-31.333 11.333-45.666 34-43 14.667 2 26.167 5 34.5 9s14.333 6.168 18 6.5 6.834.834 9.5 1.5c8 0 18.5-5.832 31.5-17.5s19.5-22.833 19.5-33.5c0-8.667-6-16.667-18-24l-25-11c-30.666-9.333-52.5-15.833-65.5-19.5s-21.166-5.5-24.5-5.5c-2.666-.667-5-8.834-7-24.5s-3-33.168-3-52.5c0-13.334-.166-25.834-.5-37.5S195 190.666 195 180v-14l-2-33v-9.5c0-3 1.668-10.833 5-23.5 4-23.333 14.334-35 31-35 7.334 0 14.667 2.333 22 7l22 13 30 23c17.333 13.333 29.333 20 36 20 3.333 0 9-2.333 17-7s12-12 12-22c0-9.333-4.333-21.333-13-36z"/><glyph glyph-name="u" unicode="u" horiz-adv-x="539" d="M530 66c3.333-8.667 4.998-16.333 4.998-23 0-10.667-19-23.667-57-39s-60.333-23-67-23c-8 0-14.667 3.5-20 10.5s-9.333 12.833-12 17.5l-4 8c-.667 2-2.667 2.667-6 2s-11.666-3-25-7c-7.332-3.333-17.165-6.166-29.498-8.5S288.334 0 273 0c-30 0-64.166 7.834-102.5 23.5S105 58.67 89 82s-24 64-24 122c0 8-.166 15.834-.5 23.5S64 243 64 251v17.5c0 5.668.334 10.835 1 15.502 0 10.667-1.666 17.167-5 19.5s-10.665 6.166-21.998 11.5l-13 8C14.335 330.333 6.835 337.666 2.502 345s-6.5 14.666-6.5 22c0 17.332 13.667 30.665 41 39.998l20 7 7 2 9 2 24 5c11.333 2 21 3 29 3 25.333 0 40.333-14 45-42l-6-124v-62l2-20 2-22 3-17c4.667-26 11.167-43.5 19.5-52.5s22.833-13.5 43.5-13.5h12c4 .667 7 1 9 1 12.667 0 28.667 4.667 48 14l31 13c14.667 6.667 24.167 12.834 28.5 18.5s8.166 17.168 11.5 34.5v194c0 4-5 7.668-15 11l-23 1c-3.334-.666-6.667 0-10 2s-9.333 7.834-18 17.5-13 19.835-13 30.502 4 18.334 12 23l27 11 34 13c16 4.668 27.333 7 34 7 2.667 0 11.667-2 27-6s25.666-12.332 31-25 8-48.666 8-108v-74c0-33.332-1.834-61.5-5.5-84.5S458 127 458 117c0-8.666 1.332-14.333 4-17s8-5 16-7l3-1h13c3.332 0 9.665-2 18.998-6 8-5.333 13.667-12 17-20z"/><glyph glyph-name="v" unicode="v" horiz-adv-x="531" d="M542 414c-1.333-8.667-5.833-16.166-13.5-22.5s-19.334-12-35-17-25.835-9.832-30.502-14.5-12-17.666-22-39l-40-85-59-125c-20.667-52.666-34-85.666-40-99s-11.333-22-16-26l-16-6c-12-4-22.333-6-31-6-18.667 0-34 10-46 30l-12 19-4 6c-3.333 6-12.166 25.834-26.5 59.5S119.334 165 100 217l-12 37c-6.667 25.334-11.334 41.5-14 48.5S67.33 314.67 62 318l-26 3c-12 2-21.668 7.668-29 17-10 16-15 28.334-15 37 0 12.668 10.666 22 32 28l32 7 38 7c32 4 55.332 6 70 6 20.666 0 35.666-4.332 45-13l9-9c7.332-9.332 11-18.665 11-27.998 0-14.667-6-24.167-18-28.5s-21.668-7.333-29-9-12-2.5-14-2.5l-2-14c2-12.667 7.666-35.334 17-68l19-58 20-54 2-4 9-15c6-8 9.666-12.334 11-13l30 50 5 10 19 40c17.332 38 36.665 71.332 57.998 100 16.667 24.666 25 40.666 25 48 0 5.332-4 9.665-12 12.998l-16 2c-4 .667-8 3.834-12 9.5s-7.167 13.168-9.5 22.5-3.5 15-3.5 17c0 11.334 6.833 19.667 20.5 25s31.834 9.333 54.5 12 37.5 4.167 44.5 4.5 12.168.5 15.5.5c34.668 0 56.835-1.5 66.502-4.5S544 445.667 544 433z"/><glyph glyph-name="w" unicode="w" horiz-adv-x="785" d="M773 383l-36.003-16c-26-12-46.333-37.832-61-77.5l-50-136.5-15-46-17.5-50.5c-5-14.332-7.833-23.5-8.5-27.5l-10-36c-1.333-4.666-5.666-8.666-13-12s-15.332-5-24-5c-11.332 0-21.832 2.834-31.5 8.5s-17.333 13.168-23 22.5-13.5 27-23.5 53l-10 28c-8.667 26-15 46.168-19 60.5s-9.5 37.334-16.5 69-12.5 54.168-16.5 67.5-7.333 21.334-10 24h-4l-42-94-11-29-45-120c-8-32.666-14.333-53-19-61s-13.667-12-27-12c-6.667 0-18.334.834-35 2.5s-28.668 15.835-36 42.502l-4 11-25 89-22 82-5 19-12 47c-6.668 28-12.5 44.667-17.5 50s-21.5 12.666-49.5 22l-16 5c-3.334.666-6.667 3.666-10 9s-6.333 11-9 17l-3 7c-2.667 6-4 11.666-4 17 0 8 5.833 14.332 17.5 19s32.834 9.666 63.5 15l18 2 31 4 12 1 24 1c24 0 42-5 54-15s18-21.668 18-35c0-14-7.332-25.334-22-34l-25-11v-21c0-4 2.334-13.5 7-28.5l14-44.5 32-108c4-2.668 10 3.832 18 19.5s18.668 47.833 32 96.5l2 3 48 113c18.668 44 36.668 66 54 66 12 0 31-10 57-30 4-4 6.834-7.833 8.5-11.5s4.168-13.5 7.5-29.5l2-6 11-64 12-58c10.668-40.667 24-80.334 40-119 6 3.332 10 6.332 12 9s5.668 11 11 25l4 10 7 22 18 43 31 70c10.668 20 16 32 16 36 0 3.332-2.332 6.665-7 9.998s-11.5 7.5-20.5 12.5-15 11.5-18 19.5-4.5 18.333-4.5 31c0 14 8.834 23.333 26.5 28s56.168 7 115.5 7c12.668 0 22.335-.5 29.002-1.5s15.333-4.5 26-10.5 16-16.333 16-31c0-6-1.333-12.167-4-18.5s-7-11.833-13-16.5z"/><glyph glyph-name="x" unicode="x" horiz-adv-x="514" d="M503 46c6-7.333 9.002-15.007 9.002-23.007 0-10.667-4.167-19.167-12.5-25.5s-17.5-9.5-27.5-9.5c-23.333 0-46.333-.167-69-.5s-45-.833-67-1.5c-14.667 0-24 1.667-28 5-5.333 2.667-9.5 7.667-12.5 15s-4.5 13.666-4.5 19c0 8 2 14 6 18l11 9c6 3.332 9 5.332 9 6 0 2-11.667 19-35 51l-41 56c-3.333-2-8.333-7.168-15-15.5s-21.667-28.834-45-61.5l-10-15c-.667-2-.167-5 1.5-9s6.5-7.334 14.5-10l19-3c6.667-.668 10-10 10-28 0-17.334-8.5-28-25.5-32s-56.167-6-117.5-6c-24.667 0-40.5 1.332-47.5 4s-13.667 8.833-20 18.5-9.5 17.167-9.5 22.5c0 14.667 14.667 26 44 34l24 3 9 1c5.333 0 11 4 17 12s17.667 29.333 35 64c10 17.333 22.667 34.333 38 51l21 23 2 3 2 6c-.667 4.667-12.834 25.5-36.5 62.5s-38.335 60.333-44.002 70-8.834 16.167-9.5 19.5H76c-11.334-1.333-20.334.334-27 5s-14 10.835-22 18.502-12 16.834-12 27.5c0 11.334 7.666 20.5 23 27.5s28.832 11.5 40.5 13.5 31.5 3 59.5 3l28 4c12 1.334 19.666 2 23 2 17.332 0 29.332-9 36-27l1-4c1.332-9.332 2-15.665 2-18.998 0-14-12.668-22.667-38-26v-6c0-2.667 1.332-7.667 4-15s6.666-15.833 12-25.5l24-41.5 18-28 22 21c27.332 25.333 45 43.166 53 53.5s12.666 18.832 14 25.5l-1 2-19 6c-12 4-18 11.666-18 23 0 4.666 1.5 11.166 4.5 19.5s9.832 14 20.5 17 37 7.166 79 12.5l17 3 13 1 14 1c16.666 0 29-1.334 37-4s14-9.5 18-20.5 6-21.168 6-30.5c0-20.668-17.334-31-52-31h-6c-2-2-6.668-6.168-14-12.5s-17-15.834-29-28.5l-24-25-53-58c-17.334-19.334-26-31.334-26-36 0-1.334 1.332-4.667 4-10l11-9 54-76 5-7 24-30c10-13.333 18.332-21.666 25-25s22-6.665 46-9.998l15-1c.666-.668 2.333-1.668 5-3s6-4.667 10-10z"/><glyph glyph-name="y" unicode="y" horiz-adv-x="570" d="M504 181l-2.995-127.006c0-52.667-.833-89.5-2.5-110.5s-5.167-42.5-10.5-64.5l-3-13-3-18c-6-22-14.833-38.5-26.5-49.5s-28.334-18.667-50-23-49.835-6.5-84.502-6.5c-14.667 0-28.667 1-42 3s-32 6.667-56 14l-29 9-13 4-17 7c-21.333 8.667-35.666 15.334-43 20s-12.332 9.5-15 14.5-4 9.168-4 12.5c0 5.334 3 9.834 9 13.5s16.334 5.5 31 5.5c10 0 26.5-3.332 49.5-10l67-20c21.668-6.666 39.5-10 53.5-10 17.334 0 32 3.334 44 10s21 16 27 28l6 11 10 48c2 10 3.668 20 5 30s2 20.334 2 31c0 19.334-1 32.5-3 39.5s-4.666 10.168-8 9.5l-42-14c-12-4.666-38.332-7-79-7-24.666 0-45.833 4.334-63.5 13s-28.5 14.168-32.5 16.5-16.167 11-36.5 26-36.5 33.668-48.5 56-20.333 56.834-25 103.5c0 7.334-.167 14.5-.5 21.5s-.5 14.168-.5 21.5l2 33c.667 3.334 1 6.834 1 10.5v7.5c0 8.668-1.333 14.5-4 17.5s-5.834 5-9.5 6-10 2-19 3-15 3-18 6-6.5 7.5-10.5 13.5l-9 19c-1.334 6.668-2 11.335-2 14.002 0 10.667 8.332 19 25 25l21 8 7 2 22 5 31 6c6.666 1.333 13.333 2 20 2 10.667 0 21.167-4.667 31.5-14s15.5-20.666 15.5-34c0-6-.333-17.5-1-34.5s-1-30.832-1-41.5v-104l2-20c5.333-51.332 13.333-84 24-98s31.334-21 62-21c16 0 34.334 4.334 55 13l29 13c16 8 28.334 15 37 21s14 11 16 15l9 23c10 32 15 63 15 93 0 25.334-2.832 46.334-8.5 63s-12.833 27.335-21.5 32.002l-26 3-12 3c-8.667 2-15.334 6-20 12-10.668 10.667-16 20.334-16 29 0 14 14.666 28 44 42l38 12 12 2c15.332 3.334 26.665 5 33.998 5 12.668 0 25.168-5 37.5-15s19.667-17 22-21 3.5-12 3.5-24c0-8.666-.333-24.166-1-46.5s-1-39.165-1-50.498v-4l1-109v-17z"/><glyph glyph-name="z" unicode="z" horiz-adv-x="456" d="M432 219c5.333-9.333 8.004-17.333 8.004-24 0-4-1-10.833-3-20.5l-8-37.5-15-70v-4c-6.667-24-13.5-39.167-20.5-45.5s-22.5-9.5-46.5-9.5l-14-1-76-8-116-12-5-1c-36-6-59.333-9-70-9-10 0-19.5 4-28.5 12s-15.167 15.167-18.5 21.5-5 15.166-5 26.5c0 3.332.667 11.5 2 24.5s13 33 35 60 70.667 78.5 146 154.5l23 23c20.667 20 34.667 34 42 42s13.333 16 18 24c-10.667 3.332-24.667 5-42 5-4.667 0-10-.334-16-1s-10.667-1-14-1l-17-2-21-4c-20.667-3.334-33.834-7.667-39.5-13s-9.5-17.333-11.5-36c-3.334-20-9.334-37.167-18-51.5s-17.668-21.5-27-21.5c-10 0-18.668 4.5-26 13.5s-11 22.167-11 39.5l5 58 3 27c3.332 20 10.665 33.833 21.998 41.5s37.333 16.5 78 26.5c32.667 6 56.667 10 72 12s32 3 50 3l48 3c30.667 0 51.667-2.167 63-6.5s21.333-15.333 30-33 13-32.5 13-44.5c0-11.333-6-23.666-18-37l-37-34-2-2-63-67-45-46-12-10-2-2-19-24c-2.667-4.666-8.334-11.166-17-19.5L182 115c-7.334-7.332-14.667-16.332-22-27l-24-23c.667-6 5.667-8.332 15-7l16 2 44 10c11.333 3.334 24.666 6.167 40 8.5S283.666 82 303 82l12 4c6 3.333 10.667 7.5 14 12.5s7 13.167 11 24.5l18 58 9 26c1.333 8 5 16.167 11 24.5s13 12.5 21 12.5c10 0 19-5.333 27-16z"/><glyph glyph-name="braceleft" unicode="{" horiz-adv-x="263" d="M237 619l-13-4.998c-10-2.667-17.5-4.334-22.5-5s-9.833-1-14.5-1c-6.667.666-10.667 1-12 1-6-1.334-9-13.334-9-36 0-26 4.333-64.668 13-116 4.667-12.668 9.334-27.168 14-43.5s7-32.5 7-48.5c0-4-1.166-11.668-3.5-23S184 315.667 166 297s-27-30.668-27-36c0-4.668 5.334-11.335 16-20.002s17.668-16.5 21-23.5 5.667-15.667 7-26 2-20.833 2-31.5c0-16-2.333-32.667-7-50s-8.5-30.166-11.5-38.5S162 55 162 47c0-16 .5-33 1.5-51s2.167-34 3.5-48c0-10 .333-17 1-21s2-7.666 4-11l30-8c16-4 26.5-12.5 31.5-25.5s7.5-23.166 7.5-30.5c0-9.332-3.667-16.332-11-21s-21.333-10-42-16l-20-5-3-1c-8.667 2.668-18 6-28 10s-20.333 10.334-31 19-19.167 23-25.5 43S69-80 65-62L64 50c0 16 1.833 37.168 5.5 63.5S75 156.335 75 163c0 11.334-1.167 21.834-3.5 31.5S66 212.67 62 220s-10.167 15.167-18.5 23.5S31 258.666 31 264c0 6.666 6 16 18 28s24.333 23.332 37 34c4 5.332 6 12 6 20 0 7.332-2.667 22.332-8 45s-8 41.333-8 56c0 28-2.5 52.5-7.5 73.5L53 583c0 18 8.5 41.667 25.5 71s30.5 44.666 40.5 46 18.833 2 26.5 2H162c15.333 0 26.333-.834 33-2.5s13.667-5.5 21-11.5l4-3 7-9c6-8 10.5-15.668 13.5-23s4.5-13.667 4.5-19c0-8.667-2.667-13.667-8-15z"/><glyph glyph-name="bar" unicode="|" horiz-adv-x="265" d="M180-198H80v898h100v-898z"/><glyph glyph-name="braceright" unicode="}" horiz-adv-x="263" d="M236 264c0-4.667-3.998-11.003-11.998-19.003s-14-15.5-18-22.5-7.333-16.333-10-28-4-22.167-4-31.5c0-8.667 1.833-26.667 5.5-54s5.5-46.333 5.5-57l-1-114c-2-10-5.833-26.333-11.5-49s-14.5-38.667-26.5-48-23-16.166-33-20.5-19.667-8.165-29-11.498l-3 1-20 5c-35.333 10-53 22.332-53 37 0 7.332 2.5 17.5 7.5 30.5s15.5 21.5 31.5 25.5l30 8c1.333 2.666 2.5 6.666 3.5 12s1.5 12 1.5 20c0 4.666.833 22 2.5 52s2.5 46.666 2.5 50c-.667 6.666-1 10.666-1 12-2.667 8-7 21.832-13 41.5s-9 38.5-9 56.5c0 18.666.5 30.833 1.5 36.5s3 11.834 6 18.5 10.167 15 21.5 25 17 17 17 21c0 5.334-9 17.334-27 36s-28.167 33.668-30.5 45-3.5 19.667-3.5 25c0 17.333 2.167 33.5 6.5 48.5s9.166 28.833 14.5 41.5c8.666 52 13 91.333 13 118 0 22.667-3 34-9 34-4-.667-8.334-1-13-1-4 0-8.834.333-14.5 1S51.666 611.334 43 614l-13 5c-5.333 1.334-8 6.667-8 16 0 11.333 6 25 18 41l7 9 4 3c6.667 4.667 14.167 8.167 22.5 10.5S93 702 107 702l39-2c10.667-.667 24.667-15.667 42-45s26-51.333 26-66c0-8.667-3.833-25.667-11.5-51S191 482.334 191 447c0-14.666-1.667-30.333-5-47l-11-54c0-8 2-14.667 6-20 12-10.667 24.167-22.167 36.5-34.5S236 270 236 264z"/><glyph glyph-name="asciitilde" unicode="~" horiz-adv-x="487" d="M418 426c0-8.667-.167-18.167-.5-28.5S412.667 377 404 367l-10-11c-17.333-22-42.333-33-75-33-16 0-30.333 2.167-43 6.5s-24.334 10.166-35 17.5-20 14.5-28 21.5-16 14.5-24 22.5c-8.668 6.666-16.335 10-23.002 10-4 0-9.333-2-16-6-9.333-7.334-16.5-14.667-21.5-22s-7.5-17-7.5-29c0-9.333-6.667-14-20-14-11.333 0-22.5 3.333-33.5 10s-16.833 15-17.5 25c0 8 1 18.5 3 31.5s6.167 23.667 12.5 32 14 17.5 23 27.5 17.333 17.167 25 21.5 17.834 7.5 30.5 9.5c5.334.667 9.334 1 12 1 13.334 0 29-5 47-15l18-15c22-20.667 40.834-35.167 56.5-43.5S304.667 402 312 402c4.668-.667 9.335-.167 14.002 1.5s7.334 4.834 8 9.5c-1.332 5.334-.832 9.167 1.5 11.5s3.5 7.166 3.5 14.5c0 6.666-.332 12.333-1 17 0 10 4.168 16.667 12.5 20s17.167 6 26.5 8c6 4 11 6 15 6 9.333 0 16-7.167 20-21.5s6-28.5 6-42.5z"/><glyph glyph-name="nonbreakingspace" horiz-adv-x="267"/><glyph glyph-name="exclamdown" unicode="¡" horiz-adv-x="246" d="M190 409c0-10-1-18.666-3-26s-6.333-15.332-13-24c-8-13.332-16.5-22.832-25.5-28.5S130 322.668 120 324c-12 0-21.833 4.5-29.5 13.5S77.333 357.667 74 371s-5 24-5 32c0 26 3.167 43.5 9.5 52.5S97.333 470.667 116 474c22.667 2.667 40.667-2 54-14s20-29 20-51zm-7-454l-3-107-2-53-1-5-3-10c-9.333-30.666-21-51.333-35-62l-10-6c-8-5.333-17-8-27-8-18 0-28.667 7.333-32 22l-2 13-4 24 5 27 2 71 1 7 8 84 2 32c0 51.333.5 87.666 1.5 109s2.5 45 4.5 71c-.667 48.666-1 76.333-1 83 0 4.667 3.167 10.667 9.5 18s14.833 12.333 25.5 15c16.667 2.667 29.167-1.833 37.5-13.5s13.833-28 16.5-49 4.5-42.167 5.5-63.5 1.5-48.666 1.5-82V-45z"/><glyph glyph-name="cent" unicode="¢" horiz-adv-x="482" d="M448 130c0-18-3-32.333-9-43s-20.668-24.667-44-42l-27-19-15-8-16-9c-11.334-6-21.834-10.833-31.5-14.5S284.33-12.334 271-15c0-12.668-.168-24.668-.5-36s-.5-21.667-.5-31v-26c0-28-1.168-45.5-3.5-52.5S257-171 245-171c-10.668.667-17.335 6.167-20.002 16.5s-4 32.5-4 66.5l4 68-22 2c-22 4.667-40.167 9.5-54.5 14.5s-29.166 14-44.5 27S77.334 48.333 70 59s-15.333 28-24 52-13 48.333-13 73c0 20.667 2.5 43.834 7.5 69.5S57 307.67 75 339c7.333 14.668 18 31.668 32 51s28.5 35.667 43.5 49 34.5 25.333 58.5 36l13 6 2 62v45c0 14 8.667 21 26 21 10.667-.667 17.167-5.167 19.5-13.5s3.5-27.833 3.5-58.5l-2-49h12c15.333 0 28.666-3.333 40-10l25-14 4 2c2.666 2 4.166 3.667 4.5 5s1.332 6.833 3 16.5S365 503.667 371 507s12 4 18 2c6-.667 13.332-4.667 22-12s14.166-14.666 16.5-22 3.5-24.665 3.5-51.998v-6l-6-100-2-22-1-4-5-10c-5.334-6.667-12.334-10-21-10-8 0-16.5 3.167-25.5 9.5s-15.334 16.166-19 29.5-5.5 37.332-5.5 72l-1.5 4.5c-.334 1-3.334 5.166-9 12.5s-14.835 11-27.502 11c-6.667 0-14.334-1.668-23-5l-12-5 1-79 1-79V79c18.666 3.332 34.333 8.165 47 14.498s36.667 21.5 72 45.5l13 8c8.667 6.667 16.334 10 23 10s11.335-3 14.002-9 4-12 4-18zM225 77v75l-1 76-1 81-1 80c-24.668-12.666-43.168-33-55.5-61S148 264 148 220c0-50.666 4-84.833 12-102.5S183.33 87.333 206 80z"/><glyph glyph-name="sterling" unicode="£" horiz-adv-x="557" d="M536 235c10-7.333 15-14.67 15-22.002s-6.666-28-20-62-22.332-64.5-27-91.5-8.666-42.5-12-46.5-12.665-6.667-27.998-8l-36-1c-9.333-2-22-3.667-38-5s-39-2-69-2l-117-1-16-1-36-1-63 4c-23.333 0-38 1.333-44 4s-11.333 8.167-16 16.5-7 15.166-7 20.5c0 18 13.333 30.332 40 37 17.333 2.666 29.833 4.166 37.5 4.5s13.834.5 18.5.5c2.668 0 4.668 2.666 6 8s3.167 17.332 5.5 36 5.166 35.333 8.5 50l11 35c3.332 9.333.665 14.833-8.002 16.5s-21 2.5-37 2.5l-16-1c-13.333-2.667-26.333-4-39-4-28.667 0-43 9.667-43 29s15.333 29 46 29c11.333 0 20.333-.333 27-1l15-1h29c30 0 46.667 8.5 50 25.5s7.5 43 12.5 78 8.667 54.167 11 57.5 7.5 34.333 15.5 93l5 22c16 52.667 33.333 87.667 52 105 22 24 49 36 81 36h12c5.333-1.333 9.333-2 12-2l30-7c35.333-14 59.166-25.667 71.5-35s18.5-20.333 18.5-33c0-6.667-2.668-12.667-8-18s-11-7.333-17-6l-22 5-20 8-7 3c-2 .667-6.334 1-13 1h-18c-18.668 0-33.668-5.333-45-16s-21.334-30.334-30-59l-1-4-28-149c-6.668-22-12-40.5-16-55.5s-6-27.168-6-36.5 3.166-14.834 9.5-16.5 20.832-2.5 43.5-2.5l34 3c10 2.666 21.332 4 34 4 19.332 0 33.5-.834 42.5-2.5s15.832-4.5 20.5-8.5 7-9.334 7-16c0-5.334-2-10.167-6-14.5s-11.168-7.166-21.5-8.5-30.834-2-61.5-2c-12.668 0-25-.166-37-.5s-23.334-.5-34-.5c-13.334 0-23.334.668-30 2-2 0-5-.166-9-.5s-7.668-6-11-17-6.667-23.166-10-36.5-5-28.665-5-45.998c0-16 .833-25.667 2.5-29s8.834-5 21.5-5h26.5c9 0 18.168.333 27.5 1h11l23 2 42 3h22c18 0 29 13.333 33 40s8.834 47 14.5 61 14.5 23.667 26.5 29 23.668 8 35 8c9.334 0 16.667-1.667 22-5z"/><glyph glyph-name="currency" unicode="¤" horiz-adv-x="630" d="M570 356c0-26.667-3.5-51.667-10.5-75S542 236 528 216l24-23c10-10 15-21.333 15-34 0-13.333-5-25.333-15-36s-22-16-36-16c-16 0-29.667 5.667-41 17l-19 19c-40.667-28-87.667-42-141-42s-100.333 14-141 42l-19-19c-11.333-11.333-25-17-41-17-13.333 0-25.166 5.167-35.5 15.5S63 145 63 159c0 12.667 5 24 15 34l24 23c-14 20-24.5 41.333-31.5 64S60 328 60 356c0 26.667 3.5 51.667 10.5 75S88 476 102 496l-24 23c-10 10-15 21.333-15 34 0 13.333 5 25.333 15 36s22 16 36 16c16 0 29.668-5.667 41-17l19-19c40.668 28 87.668 42 141 42s100.334-14 141-42l19 19c11.334 11.333 25 17 41 17 13.334 0 25.167-5.167 35.5-15.5S567 567 567 553c0-12.667-5-24-15-34l-24-23c14-20 24.5-41.333 31.5-64s10.5-48 10.5-76zm-91 0c0 47.333-15.668 87.665-47 120.998s-70 50-116 50-85-16.667-117-50-48-73.666-48-121c0-48 15.832-88.5 47.5-121.5S269.332 185 316 185c46 0 84.667 16.334 116 49S479 307.334 479 356z"/><glyph glyph-name="yen" unicode="¥" horiz-adv-x="635" d="M641 662l-.993-23.006c-4-16-8.5-26.5-13.5-31.5s-14.167-7.5-27.5-7.5c-18 0-31.667-6-41-18l-42-63c0-1.333-1.5-3.833-4.5-7.5s-4.5-5.834-4.5-6.5l-12-21-14-23-46-84-9-19-24-46c-6-10.668-11.167-20.5-15.5-29.5s-7.5-16.834-9.5-23.5l7 1 19 1c22 0 38-1.334 48-4s20.5-9.668 31.5-21 16.5-22.667 16.5-34c0-9.333-4.5-17-13.5-23s-23.833-9-44.5-9l-65 1h-10l-1-35-1-42c1.333-1.333 3-2.666 5-4s5.333-2 10-2l17 2c20 0 35.667-7.5 47-22.5s17-26.832 17-35.5c0-11.332-16-22-48-32-10.667-4.666-20.334-7-29-7l-35-8-7-1-3-1-41-1-20-2-16-2c-15.334 0-26.667 1.5-34 4.5s-17 10.5-29 22.5l-8 8-7 8c-4.667 5.334-7 10.667-7 16 0 10.667 11.333 20.334 34 29l8 3 19 3c15.333 0 23 6.334 23 19l1 13 1 3-2 60c-14.667 0-25.334-.666-32-2s-12.335-2.332-17.002-3c-5.333 0-11.333 1.334-18 4s-13.667 7.335-21 14.002-11 11-11 13c-3.333 4.667-6.5 10.667-9.5 18s-4.5 13-4.5 17c0 9.333 2 15 6 17s9.333 3 16 3l13 1 70 3c0 2.667-1.5 6.334-4.5 11s-5.833 9.668-8.5 15l-18 32-6 11-46 73c-32.667 51.334-56.167 92.667-70.5 124s-26.5 52-36.5 62-28.333 16.667-55 20c-2 1.333-4.333 3.833-7 7.5s-6.667 10.334-12 20-8 19.5-8 29.5c0 22 24.667 37.334 74 46l34 3h64c18.667 0 31.834-1.666 39.5-5s14.5-10.832 20.5-22.5 9-21.5 9-29.5c0-8.666-3.832-17.833-11.5-27.5s-14.833-15.5-21.5-17.5-13.667-3-21-3l2-7c0-1.333 5.833-11.666 17.5-31l48.5-79.5 49-80.5c12-20 19-30.832 21-32.5s5-2.5 9-2.5c4.667 0 7 1.668 7 5 7.333 11.334 16.166 26.834 26.5 46.5s19.665 38.335 27.998 56.002 20.666 37.667 37 60 25.165 35 26.498 38 2 8.833 2 17.5c-2.666-1.333-5.333-2-8-2h-6c-17.333 0-29.833 7.333-37.5 22s-11.5 26.334-11.5 35c0 13.334 10.167 23.834 30.5 31.5S465 692.334 517 699l58 7c23.333 0 39.5-2.667 48.5-8s14.833-17.333 17.5-36z"/><glyph glyph-name="brokenbar" unicode="¦"/><glyph glyph-name="section" unicode="§" horiz-adv-x="571" d="M492 245c-3.333-8-5-14-5-18-2.668-12-7.835-24.667-15.502-38s-16.5-26.833-26.5-40.5-19.667-24.834-29-33.5-18.166-15.668-26.5-21S371 83 359 77l24-22c10.668-10 21.668-18.168 33-24.5s23.167-16 35.5-29 18.5-29.834 18.5-50.5c0-20-9.167-40.334-27.5-61s-34.666-35.168-49-43.5S362.334-168 343-172s-35.666-6-49-6h-27c-12.666 0-21.833.5-27.5 1.5s-12.834 3.166-21.5 6.5l-27 2c-22.668 7.332-39.668 13-51 17s-25.334 11.332-42 22v5l-1 65c0 10.666 4.332 16 13 16s29.333-10.334 62-31 55.667-31 69-31h19c18 0 32.667 1.332 44 4l3 1 16 5c5.333 3.332 9.333 5 12 5 15.333 6 25.333 10.166 30 12.5s9.167 5.165 13.5 8.498 6.5 8 6.5 14c0 4.667-2 8.667-6 12l-25 18-29 18-2 2-12 6-20 11-4 2-28 19c-2 1.333-16.333 9.666-43 25s-47 28-61 38-28.5 24.832-43.5 44.5-22.5 45.166-22.5 76.5c0 10 1 21 3 33 3.333 8 5 14 5 18 2.667 12 7.834 24.666 15.5 38s16.668 26.832 27 40.5 22.5 26.666 36.5 39 30 22.832 48 31.5l-25 14c-15.332 6.666-26.165 12.666-32.498 18s-15.333 13.832-27 25.5-17.5 29.5-17.5 53.5c0 14.666 2.5 28.833 7.5 42.5s14.5 28.334 28.5 44 27.167 27.5 39.5 35.5 27.666 13.834 46 17.5S277.666 673 291 673h27c12 0 21-.5 27-1.5s13.333-3.166 22-6.5h29l42-19 20.5-8c5-2 7.5-5.666 7.5-11v-5c0-15.332-.5-25.832-1.5-31.5s-3.5-12.666-7.5-21-8.333-12.5-13-12.5c-6.667 0-22 6.668-46 20s-43 20.667-57 22c-8 0-16.5.333-25.5 1l-26.5 2c-6.667 0-11.667-.333-15-1l-19-5c-2 0-3.833-.333-5.5-1s-3.5-2-5.5-4c-13.333-5.333-21.833-10-25.5-14l-12-12.5c-4.333-4.333-6.5-9.166-6.5-14.5 0-4.666 2-8.666 6-12l16-27 34-18 2-2 12-6 21-11 3-2 28-19c6-1.332 14.167-3.665 24.5-6.998s20.833-7.833 31.5-13.5 17.334-9.334 20-11 10-7.168 22-16.5c21.334-14.668 39.167-31.668 53.5-51s21.5-44.667 21.5-76c0-10-1-21-3-33zm-98-23C406.665 239.333 413 255.333 413 270c0 17.333-7.333 32.833-22 46.5s-38.334 29.5-71 47.5h-11c-2.668 0-8-2-16-6l-22-12c-20-11.333-34.834-21.5-44.5-30.5S205.166 292.667 191.5 274 171 237.333 171 220c0-36 36.667-71.667 110-107 7.333 4.667 14.666 9.667 22 15l23 12c14.666 8.667 27.166 20.667 37.5 36z"/><glyph glyph-name="dieresis" unicode="¨" horiz-adv-x="354" d="M317 581c0-18-5-32.332-15-43s-23.668-16-41-16c-4.668.668-8 1-10 1-28.668 4.668-43 24-43 58l3 26c8.666 32 23 49 43 51 18.666 3.334 33.833-4.833 45.5-24.5S317 596.333 317 581zm-161 0c0-34-14.337-53.334-43.004-58-20-2.668-36 1.332-48 12s-18 26-18 46c0 15.332 5.833 32.832 17.5 52.5s26.834 27.833 45.5 24.5c10.668-1.333 19.335-5.666 26.002-13s12.334-20 17-38z"/><glyph glyph-name="ordfeminine" unicode="ª" horiz-adv-x="329" d="M316 435c.667-2.667 1.002-5.996 1.002-9.996 0-6-2.333-11.333-7-16s-14.334-10.167-29-16.5-26.668-9.5-36-9.5c-13.334 0-22.334 6-27 18l-2 11h-9c-12-4.667-25.5-9.5-40.5-14.5s-28-8.5-39-10.5-21.834-3-32.5-3c-23.334 0-42.334 5.167-57 15.5s-22 27.166-22 50.5c2 15.332 8.166 30.832 18.5 46.5S56 523.67 68 531.003 96.667 546.668 118 556s37.332 15.166 48 17.5 21.5 4.832 32.5 7.5 16.5 6.666 16.5 12c-.668 7.332-1 14.665-1 21.998-2.668 30.667-11.668 46-27 46-8 0-16-1.667-24-5s-28.668-16.833-62-40.5S49 580 45 580c-12-2-18 5-18 21 2 12 18.832 32.167 50.5 60.5S141.667 704 175 704c10.666 0 25-2.667 43-8s31.666-19 41-41 14-60 14-114c0-5.333-.334-16.5-1-33.5s-1-27.167-1-30.5c0-16.667 1-25.667 3-27 5.332.667 10.665 1 15.998 1 6 0 11.5-1.167 16.5-3.5s8.167-6.5 9.5-12.5zm-93.998 61.004c0 16-6.334 24-19 24-45.334-4.666-80.167-15.833-104.5-33.5s-32.833-32.167-25.5-43.5c2.667-4.667 10.667-7 24-7 5.333 0 11.833.667 19.5 2s18 3 31 5 28.667 8 47 18 27.5 21.667 27.5 35z"/><glyph glyph-name="guillemotleft" unicode="«"/><glyph glyph-name="logicalnot" unicode="¬"/><glyph glyph-name="macron" unicode="¯" horiz-adv-x="360" d="M318 572c-5.333-4.667-17-7-35-7l-57 1c-41.333 0-67-.5-77-1.5l-36.5-3.5c-14.333-1.334-24.166-2.667-29.5-4-4.666-1.333-9.833-.5-15.5 2.5S55 568 47 576l-8 12c-2 3.333-4.5 9.333-7.5 18S27 620.334 27 623c0 7.334 1.167 12.167 3.5 14.5S38 641.666 46 643l12 1 113 6 20 1 42 4 17 1c32 0 53.833-7 65.5-21S333 608.33 333 597c0-9.334-5-17.667-15-25z"/><glyph glyph-name="macron" unicode="ˉ" horiz-adv-x="360" d="M318 572c-5.333-4.667-17-7-35-7l-57 1c-41.333 0-67-.5-77-1.5l-36.5-3.5c-14.333-1.334-24.166-2.667-29.5-4-4.666-1.333-9.833-.5-15.5 2.5S55 568 47 576l-8 12c-2 3.333-4.5 9.333-7.5 18S27 620.334 27 623c0 7.334 1.167 12.167 3.5 14.5S38 641.666 46 643l12 1 113 6 20 1 42 4 17 1c32 0 53.833-7 65.5-21S333 608.33 333 597c0-9.334-5-17.667-15-25z"/><glyph glyph-name="degree" unicode="°"/><glyph glyph-name="plusminus" unicode="±"/><glyph glyph-name="twosuperior" unicode="²"/><glyph glyph-name="threesuperior" unicode="³"/><glyph glyph-name="acute" unicode="´" horiz-adv-x="370" d="M340 722c5.333-12 9.666-22.166 13-30.5s5-14.832 5-19.5c0-8.666-14.334-25.333-43-50l-16-14-27-22c-13.334-12-26-21.167-38-27.5s-22-9.5-30-9.5c-14 0-23.168 5.167-27.5 15.5s-6.667 16.5-7 18.5-.5 4-.5 6c0 5.333 2.667 11.666 8 19l4 3 32 31 6 9 12 13 28 23c10 8 19.667 16.332 29 25s17 17.333 23 26c6.667 6.667 14 4.667 22-6 4-2.667 6.333-6 7-10z"/><glyph glyph-name="mu" unicode="µ" horiz-adv-x="539" d="M530 66c3.333-8.667 5.004-16.33 5.004-22.998 0-10.667-19-23.667-57-39s-60.333-23-67-23c-8 0-14.667 3.5-20 10.5s-9.333 12.833-12 17.5l-4 8h-10c-4.667 0-11.667-1.667-21-5-10-5.333-19.667-8-29-8-12.667-2.667-26.667-4-42-4-30 0-60.667 6.667-92 20l-6 2 1-5v-14l2-88c2 0 7.167-1.833 15.5-5.5s17.166-6.834 26.5-9.5c4 0 8.332-4 13-12l3-4c6-14 9-24.334 9-31 0-8-7-14.668-21-20l-21-7-4-1c-4 0-13.334-1-28-3s-28.668-3.668-42-5l-36-4c-3.334-.668-8.334-1-15-1-24.668 0-41.335 7.832-50.002 23.5s-13 26.166-13 31.5c0 6.666 3.5 12 10.5 16s13.5 6 19.5 6c19.333 2.666 31 8.666 35 18s6 37.332 6 84V93c-6.667 15.332-11.834 31.165-15.5 47.498S65 178 65 204l-1 47v17.5c0 5.667.332 10.834 1 15.5 0 10.668-1.668 17.168-5 19.5s-10.667 6.167-22 11.5c-6 5.333-10.333 8-13 8-10.667 7.333-18.167 14.833-22.5 22.5s-6.5 15.5-6.5 23.5c0 16 13.667 28.667 41 38l20 7 7 2 9 2 24 5c11.333 2 21 3 29 3 25.333 0 40.333-14 45-42l-6-124v-62l2-20 2-22 3-17c4.667-26 11.167-43.5 19.5-52.5s22.833-13.5 43.5-13.5h12c4 .667 7 1 9 1 12.667 0 28.667 4.667 48 14l31 13c14.667 6.667 24.167 12.834 28.5 18.5s8.166 17.168 11.5 34.5v194c0 4-5 7.668-15 11l-23 1c-3.334 0-7 1.168-11 3.5s-10 8-18 17-12 18.834-12 29.5 4 18.335 12 23.002l27 11 34 13c13.332 3.333 24.332 5 33 5h11c26.666-6.667 42.666-16.334 48-29s8-48.668 8-108v-74c0-33.334-1.834-61.5-5.5-84.5S458 127 458 117c0-8.668 1.332-14.335 4-17.002s8-5 16-7l3-1h13c3.332 0 9.665-2 18.998-6 6.667-4 11.167-7.5 13.5-10.5s3.5-6.167 3.5-9.5z"/><glyph glyph-name="paragraph" unicode="¶"/><glyph glyph-name="periodcentered" unicode="·" horiz-adv-x="175" d="M148 388c0-38-8.667-58.333-26-61s-28.666-4-34-4c-18 0-32.666 6-44 18s-17 27.667-17 47c0 18 6.5 37.667 19.5 59s29.834 30.333 50.5 27c12-1.333 21.668-6 29-14s13.667-22.333 19-43z"/><glyph glyph-name="periodcentered" unicode="∙" horiz-adv-x="175" d="M148 388c0-38-8.667-58.333-26-61s-28.666-4-34-4c-18 0-32.666 6-44 18s-17 27.667-17 47c0 18 6.5 37.667 19.5 59s29.834 30.333 50.5 27c12-1.333 21.668-6 29-14s13.667-22.333 19-43z"/><glyph glyph-name="cedilla" unicode="¸" horiz-adv-x="448" d="M306-135l-10.996-9.997c-13.333-11.333-27-19.5-41-24.5s-32.667-7.5-56-7.5c-10.667 0-24.834 2.333-42.5 7s-28.668 10-33 16-6.5 11-6.5 15c0 7.333 3.666 14.666 11 22s13.665 10.332 18.998 9c17.333-2 32.333-4.334 45-7s21-4 25-4 9.5 1.166 16.5 3.5 8.167 7.165 3.5 14.498c-2 3.334-6.333 7.334-13 12s-18.334 12-35 22c-6.668 5.334-11.668 9.834-15 13.5S164-41.33 156-28c-2 3.334-1.334 8.5 2 15.5S165.333 2 170 10l41-1c.666-7.332 1.666-14.832 3-22.5S218.666-26 224-28c7.333-1.332 14.333-3.832 21-7.5s18-10.333 34-20 27.5-18 34.5-25S324-95 324-103c0-9.333-6-20-18-32z"/><glyph glyph-name="onesuperior" unicode="¹"/><glyph glyph-name="ordmasculine" unicode="º" horiz-adv-x="343" d="M321 597c2.667-10.667 4.003-22.67 4.003-36.003 0-12-1-23.167-3-33.5s-9.833-33.166-23.5-68.5-46.167-55.665-97.5-60.998l-13-2h-5l-12 1-14 1h-8l-14 2c-21.333 3.332-40.333 9.665-57 18.998l-21 16c-26 24-39 51-39 81l-1 15c0 20.667 1.667 37.334 5 50s10.333 28.835 21 48.502 27 34.834 49 45.5c15.333 9.334 28.166 16 38.5 20s20.165 6.334 29.498 7l11 1 7 1h15.5c4.334 0 14.834-1.832 31.5-5.5s29.668-8.333 39-14 19.667-15.667 31-30 20-33.5 26-57.5zm-61.997-27.003c0 5.333-.5 11-1.5 17s-3.334 17-7 33-12.835 28-27.502 36-27.666 12-39 12c-13.332 0-29.665-7-48.998-21l-13-10c-24-25.334-38.333-55.667-43-91l-1-17c0-3.333.167-7.5.5-12.5s2.833-14.167 7.5-27.5c.667-6 4.167-13.667 10.5-23s12.833-16.5 19.5-21.5 13.667-8.167 21-9.5 14-2 20-2c10.667 0 30.334 5.833 59 17.5s43 51.5 43 119.5z"/><glyph glyph-name="guillemotright" unicode="»"/><glyph glyph-name="onequarter" unicode="¼"/><glyph glyph-name="onehalf" unicode="½"/><glyph glyph-name="threequarters" unicode="¾"/><glyph glyph-name="questiondown" unicode="¿" horiz-adv-x="616" d="M485 409c0-19.333-4.5-36-13.5-50s-18-23.668-27-29-18.833-7.334-29.5-6c-12 0-21.5 4.332-28.5 13s-13.167 24.333-18.5 47l-3 21c0 24.667 3.333 41.5 10 50.5s19.334 15.167 38 18.5c21.334 2.667 38.667-2 52-14s20-29 20-51zM590-13l-2.002-25.006c-4-18-11.333-31.833-22-41.5l-45.5-43c-19.667-19-51.167-40.833-94.5-65.5l-48-26c-24-11.333-44.167-20.166-60.5-26.5s-37.666-12.332-64-18-47.5-8.5-63.5-8.5c-12 0-31.832 3.334-59.5 10s-54.166 21.668-79.5 45-38 52.334-38 87c0 16 2.168 30.334 6.5 43s12.334 27.335 24 44.002S70.334-6.17 89 7.496s45.334 31.168 80 52.5l73.5 46c14.334 9.334 34 23.834 59 43.5s45.668 37.835 62 54.502 29.167 34.334 38.5 53l4 8c4 10 11 15 21 15 2.667 0 5.667-1 9-3l11-10c9.333-12.666 14-24.666 14-36 0-14.666-7-35-21-61s-30.333-48.332-49-67-38.667-36-60-52-43-31.332-65-46l-50-34-13-10c-20.667-16.666-36.834-30.666-48.5-42S133.33-103.166 126-113.5s-12-18.833-14-25.5c-4.668-10-7-19.333-7-28 0-20.667 21-31 63-31 27.332 0 53.665 4.167 78.998 12.5s63.333 27.166 114 56.5l39 25 4 3 88 66 16 12 5 3c7.333 5.332 14.333 12 21 20s11.334 12.5 14 13.5S554.334 15 559 15c8 0 14.667-1.334 20-4s9-10.668 11-24z"/><glyph glyph-name="Agrave" unicode="À" horiz-adv-x="704" d="M706 76c4-19.333 6-32.998 6-40.998s-2-13.667-6-17-10-5.666-18-7l-140-22c-22.668 0-39.5 2.334-50.5 7S481 9.67 481 23.003c0 21.334 10.5 35 31.5 41s31.5 12.334 31.5 19c0 17.334-2.668 32-8 44s-10.667 22.334-16 31c-4 12.668-11 20.668-21 24s-30 5-60 5h-60c-23.333-2.666-40.166-4.833-50.5-6.5s-25.832-5.834-46.5-12.5l-115-40-17-23c-8.666-12.668-13-21-13-25 0-3.334 4-7.667 12-13 4.668 0 12.335-1.833 23.002-5.5s17.167-12.667 19.5-27 3.5-22.833 3.5-25.5c0-16.667-9.667-25-29-25l-138 1c-16 0-28.5 3.5-37.5 10.5s-13.5 17.167-13.5 30.5c0 5.333.5 10.666 1.5 16s4 10.165 9 14.498 13.5 7.5 25.5 9.5l28 7c1.333 2 3 4.333 5 7s4 6 6 10l235 562c23.333 35.333 46.333 53 69 53 9.333 0 16.666-.667 22-2l31-6 33-4c10-1.333 17.332-3.666 22-7s10.833-18.832 18.5-46.5l53-183 66-225.5c16.333-56 25.666-90.5 28-103.5S637.666 106.335 647 103s17.5-4.832 24.5-4.5 14-.333 21-2S704 88 706 76zM449 394.002L406.5 553.5c-11 39.667-18.832 60.167-23.5 61.5-4-5.333-7.832-11.833-11.5-19.5L360 571l-97-212c-13.332-27.333-22.832-47.666-28.5-61s-11.833-29.332-18.5-48c7.333-1.332 24.166.335 50.5 5.002l83.5 15c45.332 0 77.832.833 97.5 2.5s29.5 11.167 29.5 28.5c0 10-3.668 25.167-11 45.5zM471 764c1.334-3.333.003-8.67-3.997-16.002-6.667-16-17-24-31-24-8 0-17.833 2.833-29.5 8.5s-24.5 14.834-38.5 27.5l-26 22-17 15c-9.333 7.334-18.833 15.5-28.5 24.5s-14.5 17.5-14.5 25.5c0 4 1.667 10.168 5 18.5l10 24.5c3.333 8 6.666 14 10 18s7.332 6.334 12 7 7.666-.332 9-3c14.666-16.666 32.666-33.666 54-51 5.332-5.332 10.165-9.665 14.498-12.998s8.5-6.333 12.5-9l11-14 8-8 31-31 3-4c6-5.333 9-11.333 9-18z"/><glyph glyph-name="Aacute" unicode="Á" horiz-adv-x="704" d="M706 76c4-19.333 6-32.998 6-40.998s-2-13.667-6-17-10-5.666-18-7l-140-22c-22.668 0-39.5 2.334-50.5 7S481 9.67 481 23.003c0 21.334 10.5 35 31.5 41s31.5 12.334 31.5 19c0 17.334-2.668 32-8 44s-10.667 22.334-16 31c-4 12.668-11 20.668-21 24s-30 5-60 5h-60c-23.333-2.666-40.166-4.833-50.5-6.5s-25.832-5.834-46.5-12.5l-115-40-17-23c-8.666-12.668-13-21-13-25 0-3.334 4-7.667 12-13 4.668 0 12.335-1.833 23.002-5.5s17.167-12.667 19.5-27 3.5-22.833 3.5-25.5c0-16.667-9.667-25-29-25l-138 1c-16 0-28.5 3.5-37.5 10.5s-13.5 17.167-13.5 30.5c0 5.333.5 10.666 1.5 16s4 10.165 9 14.498 13.5 7.5 25.5 9.5l28 7c1.333 2 3 4.333 5 7s4 6 6 10l235 562c23.333 35.333 46.333 53 69 53 9.333 0 16.666-.667 22-2l31-6 33-4c10-1.333 17.332-3.666 22-7s10.833-18.832 18.5-46.5l53-183 66-225.5c16.333-56 25.666-90.5 28-103.5S637.666 106.335 647 103s17.5-4.832 24.5-4.5 14-.333 21-2S704 88 706 76zM449 394.002L406.5 553.5c-11 39.667-18.832 60.167-23.5 61.5-4-5.333-7.832-11.833-11.5-19.5L360 571l-97-212c-13.332-27.333-22.832-47.666-28.5-61s-11.833-29.332-18.5-48c7.333-1.332 24.166.335 50.5 5.002l83.5 15c45.332 0 77.832.833 97.5 2.5s29.5 11.167 29.5 28.5c0 10-3.668 25.167-11 45.5zM457 887c5.334-12 9.667-22.166 13-30.5s5-14.832 5-19.5c0-8.666-14.333-25.333-43-50l-16-14-27-22c-13.333-12-26-21.167-38-27.5s-22-9.5-30-9.5c-14 0-23.167 5.167-27.5 15.5s-6.666 16.5-7 18.5-.5 4-.5 6c0 5.333 2.668 11.666 8 19l4 3 32 31 6 9 12 13 28 23c10 8 19.668 16.332 29 25s17 17.333 23 26c6.668 6.667 14 4.667 22-6 4-2.667 6.334-6 7-10z"/><glyph glyph-name="Acircumflex" unicode="Â" horiz-adv-x="704" d="M706 76c4-19.333 6-32.998 6-40.998s-2-13.667-6-17-10-5.666-18-7l-140-22c-22.668 0-39.5 2.334-50.5 7S481 9.67 481 23.003c0 21.334 10.5 35 31.5 41s31.5 12.334 31.5 19c0 17.334-2.668 32-8 44s-10.667 22.334-16 31c-4 12.668-11 20.668-21 24s-30 5-60 5h-60c-23.333-2.666-40.166-4.833-50.5-6.5s-25.832-5.834-46.5-12.5l-115-40-17-23c-8.666-12.668-13-21-13-25 0-3.334 4-7.667 12-13 4.668 0 12.335-1.833 23.002-5.5s17.167-12.667 19.5-27 3.5-22.833 3.5-25.5c0-16.667-9.667-25-29-25l-138 1c-16 0-28.5 3.5-37.5 10.5s-13.5 17.167-13.5 30.5c0 5.333.5 10.666 1.5 16s4 10.165 9 14.498 13.5 7.5 25.5 9.5l28 7c1.333 2 3 4.333 5 7s4 6 6 10l235 562c23.333 35.333 46.333 53 69 53 9.333 0 16.666-.667 22-2l31-6 33-4c10-1.333 17.332-3.666 22-7s10.833-18.832 18.5-46.5l53-183 66-225.5c16.333-56 25.666-90.5 28-103.5S637.666 106.335 647 103s17.5-4.832 24.5-4.5 14-.333 21-2S704 88 706 76zM449 394.002L406.5 553.5c-11 39.667-18.832 60.167-23.5 61.5-4-5.333-7.832-11.833-11.5-19.5L360 571l-97-212c-13.332-27.333-22.832-47.666-28.5-61s-11.833-29.332-18.5-48c7.333-1.332 24.166.335 50.5 5.002l83.5 15c45.332 0 77.832.833 97.5 2.5s29.5 11.167 29.5 28.5c0 10-3.668 25.167-11 45.5zM529 758l-1-15c-3.334-17.333-13.667-26-31-26-15.333 0-35 7.333-59 22l-28 16-17 10-22 13-22-13-17-10-28-16c-24.667-15.333-44.667-23-60-23-16.667 0-26.667 9-30 27l-1 15c0 5.333 3.333 10.666 10 16l4 2 33 23c6.667 5.332 13.834 10.665 21.5 15.998s17 10.833 28 16.5 21.334 12.334 31 20S358 865 364 869h14l56-38 48-32 33-23 4-2c6.668-5.332 10-10.665 10-15.998z"/><glyph glyph-name="Atilde" unicode="Ã" horiz-adv-x="704" d="M706 76c4-19.333 6-32.998 6-40.998s-2-13.667-6-17-10-5.666-18-7l-140-22c-22.668 0-39.5 2.334-50.5 7S481 9.67 481 23.003c0 21.334 10.5 35 31.5 41s31.5 12.334 31.5 19c0 17.334-2.668 32-8 44s-10.667 22.334-16 31c-4 12.668-11 20.668-21 24s-30 5-60 5h-60c-23.333-2.666-40.166-4.833-50.5-6.5s-25.832-5.834-46.5-12.5l-115-40-17-23c-8.666-12.668-13-21-13-25 0-3.334 4-7.667 12-13 4.668 0 12.335-1.833 23.002-5.5s17.167-12.667 19.5-27 3.5-22.833 3.5-25.5c0-16.667-9.667-25-29-25l-138 1c-16 0-28.5 3.5-37.5 10.5s-13.5 17.167-13.5 30.5c0 5.333.5 10.666 1.5 16s4 10.165 9 14.498 13.5 7.5 25.5 9.5l28 7c1.333 2 3 4.333 5 7s4 6 6 10l235 562c23.333 35.333 46.333 53 69 53 9.333 0 16.666-.667 22-2l31-6 33-4c10-1.333 17.332-3.666 22-7s10.833-18.832 18.5-46.5l53-183 66-225.5c16.333-56 25.666-90.5 28-103.5S637.666 106.335 647 103s17.5-4.832 24.5-4.5 14-.333 21-2S704 88 706 76zM449 394.002L406.5 553.5c-11 39.667-18.832 60.167-23.5 61.5-4-5.333-7.832-11.833-11.5-19.5L360 571l-97-212c-13.332-27.333-22.832-47.666-28.5-61s-11.833-29.332-18.5-48c7.333-1.332 24.166.335 50.5 5.002l83.5 15c45.332 0 77.832.833 97.5 2.5s29.5 11.167 29.5 28.5c0 10-3.668 25.167-11 45.5zM539 822c0-18.667-.665-30.002-1.998-34.002s-4.666-9.667-10-17l-9-10c-6.666-9.333-15.5-16.5-26.5-21.5s-23.832-7.5-38.5-7.5c-12 0-24.166 2.167-36.5 6.5s-23 9.5-32 15.5-16.832 12.167-23.5 18.5-13.833 12.666-21.5 19-13.834 9.5-18.5 9.5c-2.668 0-5.335-.668-8.002-2s-6.5-3.834-11.5-7.5-9.667-8.835-14-15.502-6.5-15-6.5-25c0-8.667-6-13-18-13-9.333 0-19 3.167-29 9.5s-15 13.833-15 22.5c0 6.667 1 15.834 3 27.5s6 21.335 12 29.002 14.5 17.667 25.5 30 25.5 18.5 43.5 18.5c12 0 20.5-.5 25.5-1.5s12.833-4.5 23.5-10.5l16-13c19.333-18.667 35.666-31.5 49-38.5s23.332-10.5 30-10.5c4.666-.667 8.833-.5 12.5.5s5.834 4.167 6.5 9.5c-.666 4-.166 7.667 1.5 11s2.5 12 2.5 26c-.666 10.667 3.5 17.334 12.5 20S498.67 872.334 504 873c4 3.333 8.334 5 13 5 8 0 13.668-6.167 17-18.5s5-24.833 5-37.5z"/><glyph glyph-name="Adieresis" unicode="Ä" horiz-adv-x="704" d="M706 76c4-19.333 6-32.998 6-40.998s-2-13.667-6-17-10-5.666-18-7l-140-22c-22.668 0-39.5 2.334-50.5 7S481 9.67 481 23.003c0 21.334 10.5 35 31.5 41s31.5 12.334 31.5 19c0 17.334-2.668 32-8 44s-10.667 22.334-16 31c-4 12.668-11 20.668-21 24s-30 5-60 5h-60c-23.333-2.666-40.166-4.833-50.5-6.5s-25.832-5.834-46.5-12.5l-115-40-17-23c-8.666-12.668-13-21-13-25 0-3.334 4-7.667 12-13 4.668 0 12.335-1.833 23.002-5.5s17.167-12.667 19.5-27 3.5-22.833 3.5-25.5c0-16.667-9.667-25-29-25l-138 1c-16 0-28.5 3.5-37.5 10.5s-13.5 17.167-13.5 30.5c0 5.333.5 10.666 1.5 16s4 10.165 9 14.498 13.5 7.5 25.5 9.5l28 7c1.333 2 3 4.333 5 7s4 6 6 10l235 562c23.333 35.333 46.333 53 69 53 9.333 0 16.666-.667 22-2l31-6 33-4c10-1.333 17.332-3.666 22-7s10.833-18.832 18.5-46.5l53-183 66-225.5c16.333-56 25.666-90.5 28-103.5S637.666 106.335 647 103s17.5-4.832 24.5-4.5 14-.333 21-2S704 88 706 76zM449 394.002L406.5 553.5c-11 39.667-18.832 60.167-23.5 61.5-4-5.333-7.832-11.833-11.5-19.5L360 571l-97-212c-13.332-27.333-22.832-47.666-28.5-61s-11.833-29.332-18.5-48c7.333-1.332 24.166.335 50.5 5.002l83.5 15c45.332 0 77.832.833 97.5 2.5s29.5 11.167 29.5 28.5c0 10-3.668 25.167-11 45.5zM507 782c0-18-5-32.332-15-43s-23.667-16-41-16c-4.667.668-8 1-10 1-28.667 4.668-43 24-43 58l3 26c8.667 32 23 49 43 51 18.667 3.334 33.834-4.833 45.5-24.5S507 797.333 507 782zm-161 0c0-34-14.336-53.334-43.003-58-20-2.668-36 1.332-48 12s-18 26-18 46c0 15.332 5.833 32.832 17.5 52.5s26.834 27.833 45.5 24.5c10.668-1.333 19.335-5.666 26.002-13s12.333-20 17-38z"/><glyph glyph-name="Aring" unicode="Å" horiz-adv-x="704" d="M706 76c4-19.333 6-32.998 6-40.998s-2-13.667-6-17-10-5.666-18-7l-140-22c-22.668 0-39.5 2.334-50.5 7S481 9.67 481 23.003c0 21.334 10.5 35 31.5 41s31.5 12.334 31.5 19c0 17.334-2.668 32-8 44s-10.667 22.334-16 31c-4 12.668-11 20.668-21 24s-30 5-60 5h-60c-23.333-2.666-40.166-4.833-50.5-6.5s-25.832-5.834-46.5-12.5l-115-40-17-23c-8.666-12.668-13-21-13-25 0-3.334 4-7.667 12-13 4.668 0 12.335-1.833 23.002-5.5s17.167-12.667 19.5-27 3.5-22.833 3.5-25.5c0-16.667-9.667-25-29-25l-138 1c-16 0-28.5 3.5-37.5 10.5s-13.5 17.167-13.5 30.5c0 5.333.5 10.666 1.5 16s4 10.165 9 14.498 13.5 7.5 25.5 9.5l28 7c1.333 2 3 4.333 5 7s4 6 6 10l235 562c23.333 35.333 46.333 53 69 53 9.333 0 16.666-.667 22-2l31-6 33-4c10-1.333 17.332-3.666 22-7s10.833-18.832 18.5-46.5l53-183 66-225.5c16.333-56 25.666-90.5 28-103.5S637.666 106.335 647 103s17.5-4.832 24.5-4.5 14-.333 21-2S704 88 706 76zM449 394.002L406.5 553.5c-11 39.667-18.832 60.167-23.5 61.5-4-5.333-7.832-11.833-11.5-19.5L360 571l-97-212c-13.332-27.333-22.832-47.666-28.5-61s-11.833-29.332-18.5-48c7.333-1.332 24.166.335 50.5 5.002l83.5 15c45.332 0 77.832.833 97.5 2.5s29.5 11.167 29.5 28.5c0 10-3.668 25.167-11 45.5zM480 814c0-25.333-6.664-49-19.997-71s-28.333-37.332-45-46-34.334-13-53-13c-18 0-36.5 8.334-55.5 25s-30.668 34.168-35 52.5-7 30.667-8 37-1.5 13.5-1.5 21.5c0 28 9.166 50.167 27.5 66.5s35.332 25.5 51 27.5 27.166 3 34.5 3c29.332 0 54.165-9.833 74.498-29.5S480 843.333 480 814zm-57.997-8c0 14.668-5.833 26.5-17.5 35.5s-26.5 13.5-44.5 13.5c-11.333 0-21.333-4.332-30-13s-13-19.666-13-33l3-20c3.333-14.666 9.5-25.833 18.5-33.5s18.5-11.5 28.5-11.5c17.333-2.667 30.833 3.833 40.5 19.5s14.5 29.834 14.5 42.5z"/><glyph glyph-name="AE" unicode="Æ" horiz-adv-x="1087" d="M1059 102l-3-16c-6.666-15.332-15.666-25.332-27-30l-83-9-63-10-19-3-7-2-53-5-37-5L667 7l-14-4-17-4-23-5-9-2-20-4c-16-2-29-3-39-3-18.666 0-32 4.668-40 14s-16 27.667-24 55c-2 8 5 14.5 21 19.5s29.834 9 41.5 12 18 10 19 21 1.5 22.167 1.5 33.5c1.334 6.667 2 10.667 2 12 0 12-8.832 19.5-26.5 22.5S485 179 429 179c-4.666-.667-17.5-1-38.5-1s-42.166-3.333-63.5-10l-126-40-23-23c-13.332-14-20-23.333-20-28 0-2.667 3-6 9-10 10.668-3.333 18.835-6.833 24.502-10.5s8.5-13.5 8.5-29.5c0-14.667-2.667-25.5-8-32.5s-15.333-10.5-30-10.5l-138 1c-14.667 0-25.5 2.333-32.5 7s-10.5 12-10.5 22c0 7.333 2.167 15.166 6.5 23.5s9.5 14.665 15.5 18.998 15.333 7.5 28 9.5l30 7 15 17 146 208 138 196 89 124c-7.333-.667-13.5.833-18.5 4.5s-9.667 10.834-14 21.5-6.5 20.335-6.5 29.002c0 3.333 1.667 7.833 5 13.5s19 8.5 47 8.5c14 0 24.833-.833 32.5-2.5s23-5.5 46-11.5 35.833-9 38.5-9l117 14c26.667 3.333 58.667 8 96 14s62.333 9.667 75 11l43 5 71 9c22 4.667 33-14 33-56l1-10v-63l-1-21c0-28-2.167-46.5-6.5-55.5s-11.833-12.167-22.5-9.5l-6 1-12 4c-16 6-26.167 11.833-30.5 17.5s-8.166 17.167-11.5 34.5l-5 28c0 13.333-.5 21.666-1.5 25s-4.832 5-11.5 5c-2.666 0-7.333-.5-14-1.5l-20-3c-6.667-1-16-2.668-28-5s-29.667-6.834-53-13.5l-37-6c-44-7.334-70.167-15.167-78.5-23.5s-12.5-29.5-12.5-63.5v-29c0-13.333-.333-26.5-1-39.5s-1.834-24.5-3.5-34.5l-4-24c-1-6-1.5-12.333-1.5-19 0-10.667 6-16 18-16 5.332 0 17.332 1.5 36 4.5s32.666 5 42 6 27 5 53 12 51 10.5 75 10.5c15.332 0 27-2.167 35-6.5s14.332-12.666 19-25 7-21.832 7-28.5c0-9.332-9.334-16-28-20l-61-8-7-1-64-13-37-8-6-1-4-1-47-14c-15.334-4-23.834-6.832-25.5-8.5s-3.5-7.833-5.5-18.5l4-78 2-36c2-10 6.666-15 14-15 6 0 28.666 5.333 68 16 13.332 1.333 34.165 3.666 62.498 7l92.5 11 16 1c30 0 46.167 3.166 48.5 9.5S967.333 167 972 197l2 18 2 12 2 15 2 11c6 19.332 15 29 27 29 7.333 0 16.333-4.168 27-12.5s17.667-14.834 21-19.5 5-19.335 5-44.002c0-15.333-.167-30.166-.5-44.5s-.5-28.165-.5-41.498v-18zM555 378c-.666 43.334-1.5 87-2.5 131s-4.166 66.668-9.5 68c-2 .668-7.166-1.332-15.5-6S513 561 509 555L359 359c-22.666-29.332-37.333-49-44-59l-32-50c6.667-1.332 23.834-.5 51.5 2.5L422 262h50c38 0 62.168 2.5 72.5 7.5S560 287.67 560 309c0 12.668-1.666 35.668-5 69z"/><glyph glyph-name="Ccedilla" unicode="Ç" horiz-adv-x="599" d="M552 615l-1-55.004-1-31-1-14-2-19v-30l-2-22c0-14.667-9.334-22-28-22-6 0-13 1.667-21 5-14.668 8-24.668 22-30 42l-5 51c0 12.667-1 22.334-3 29S451.33 566.332 444 581s-14.667 25.834-22 33.5-15.666 11.5-25 11.5c-11.332 0-25.332-5.5-42-16.5s-29.833-20.832-39.5-29.5-23.834-23.333-42.5-44-38.335-49.5-59.002-86.5-39.667-79.5-57-127.5c-3.333-7.333-6.5-15-9.5-23s-4.5-14.333-4.5-19c-7.333-26.667-12.5-48-15.5-64s-4.5-28.667-4.5-38c0-40 8.167-67.167 24.5-81.5s48.166-21.5 95.5-21.5c23.332 0 47.332 3.5 72 10.5s50.666 17 78 30 46.832 22.833 58.5 29.5 27 17.334 46 32 31.166 22 36.5 22c4 0 10.332-3.332 19-10s13-15 13-25c0-14-9.668-31.5-29-52.5s-40.667-40.166-64-57.5-39.5-28.665-48.5-33.998-16.5-10-22.5-14c-23.333-12-45-20-65-24 0-4.667 1.167-9.167 3.5-13.5s5.166-6.5 8.5-6.5c6 0 12.332-1.833 19-5.5s18.333-10.667 35-21 28.5-19 35.5-26 10.5-14.5 10.5-22.5c0-9.333-3.5-17.666-10.5-25s-11.333-12-13-14-3.5-3-5.5-3c-13.333-11.332-27-19.5-41-24.5s-32.667-7.5-56-7.5c-10.667 0-24.834 2.334-42.5 7s-28.668 10-33 16-6.5 10.668-6.5 14c0 7.334 3.5 14.5 10.5 21.5s13.5 10.5 19.5 10.5c17.332-2 32.332-4.332 45-7s21-4 25-4 9.5 1.168 16.5 3.5 8.166 7.167 3.5 14.5c-2 3.333-6.334 7.333-13 12s-18.335 12-35.002 22c-6.667 5.333-11.667 9.833-15 13.5s-9 12.167-17 25.5l1 14h-6c-35.333 0-66.833 6-94.5 18s-53.667 29.667-78 53-42 47.666-53 73-18.167 55.665-21.5 90.998l-2 28c0 12.667.667 25.667 2 39s4 29 8 47l13 52c8.667 29.333 16.834 52.833 24.5 70.5s21.335 42.334 41.002 74 41.167 60.835 64.5 87.502 45 46.667 65 60 37.333 23.5 52 30.5 27.334 10.5 38 10.5c12 1.333 20.334 2 25 2 6.668 0 13.335-.667 20.002-2s16-4.333 28-9 22.667-9.334 32-14 14.666-7 16-7l4 3c.666 1.332 1.333 4.332 2 9s1 11.666 1 21c0 16.666 8 25 24 25 3.333 0 6.5-.668 9.5-2s10.833-5.667 23.5-13 21.167-16.5 25.5-27.5 6.5-33.833 6.5-68.5v-12z"/><glyph glyph-name="Egrave" unicode="È" horiz-adv-x="602" d="M588 76l-2.998-15.997c-6.667-15.333-15.667-25.333-27-30l-83-9-63-10-19-3-7-2-53-5-37-5-100-15-14-4-17-4-23-5-9-2-20-4c-16-2-29-3-39-3-18.667 0-32 4.667-40 14s-16 27.666-24 55c-2 8.666 2.667 16.666 14 24s29 11 53 11c2.667 0 4.167 16.5 4.5 49.5s.5 77.5.5 133.5v81c0 12-.167 24.332-.5 37s-.5 25.666-.5 39v77c0 20-1 32-3 36s-9 6-21 6h-18c-6 0-12.833 3.166-20.5 9.5S2.835 547.667-5.498 561s-10.833 23.667-7.5 31c2.667 6.667 8.5 12.167 17.5 16.5s28.5 9.833 58.5 16.5l43 11 119 24c42.667 8 99.667 16.333 171 25l43 5 71 9c22 4.667 33-14 33-56l1-10v-63l-1-21c0-28-2.167-46.5-6.5-55.5s-11.833-12.167-22.5-9.5l-6 1-12 4c-16 6-26.167 11.833-30.5 17.5s-8.166 17.167-11.5 34.5l-5 28c0 13.333-.5 21.666-1.5 25s-4.832 5-11.5 5c-2.666 0-7.333-.5-14-1.5l-20-3c-6.667-1-16-2.668-28-5s-29.667-6.834-53-13.5l-37-6c-44-7.334-70.167-15.167-78.5-23.5s-12.5-29.5-12.5-63.5v-29c0-13.333-.333-26.5-1-39.5s-1.834-24.5-3.5-34.5l-4-24c-1-6-1.5-12.333-1.5-19 0-10.667 6-16 18-16 5.332 0 17.332 1.5 36 4.5s32.666 5 42 6 27 5 53 12 51 10.5 75 10.5c15.332 0 27-2.167 35-6.5s14.332-12.666 19-25 7-21.832 7-28.5c0-9.332-9.334-16-28-20l-61-8-7-1-64-13-37-8-6-1-4-1-47-14c-15.334-4-23.834-6.832-25.5-8.5s-3.5-7.833-5.5-18.5l4-78 2-36c2-10 6.666-15 14-15 6 0 28.666 5.333 68 16 13.332 1.333 34.165 3.666 62.498 7l92.5 11 16 1c30 0 46.167 3.166 48.5 9.5S496.333 141 501 171l2 18 2 12 2 15 2 11c6 19.332 15 29 27 29 7.333 0 16.333-4.168 27-12.5s17.667-14.834 21-19.5 5-19.335 5-44.002c0-15.333-.167-30.166-.5-44.5S588 107.334 588 94V76zM333.002 749.003c1.333-3.333.002-8.67-3.998-16.002-6.667-16-17-24-31-24-8 0-17.833 2.834-29.5 8.5s-24.5 14.835-38.5 27.502l-26 22-17 15c-9.333 7.333-18.833 15.5-28.5 24.5s-14.5 17.5-14.5 25.5c0 4 1.667 10.167 5 18.5l10 24.5c3.333 8 6.666 14 10 18s7.332 6.333 12 7 7.666-.333 9-3c14.666-16.667 32.666-33.667 54-51 5.332-5.333 10.165-9.666 14.498-13s8.5-6.332 12.5-9l11-14 8-8 31-31 3-4c6-5.332 9-11.332 9-18z"/><glyph glyph-name="Eacute" unicode="É" horiz-adv-x="602" d="M588 76l-2.998-15.997c-6.667-15.333-15.667-25.333-27-30l-83-9-63-10-19-3-7-2-53-5-37-5-100-15-14-4-17-4-23-5-9-2-20-4c-16-2-29-3-39-3-18.667 0-32 4.667-40 14s-16 27.666-24 55c-2 8.666 2.667 16.666 14 24s29 11 53 11c2.667 0 4.167 16.5 4.5 49.5s.5 77.5.5 133.5v81c0 12-.167 24.332-.5 37s-.5 25.666-.5 39v77c0 20-1 32-3 36s-9 6-21 6h-18c-6 0-12.833 3.166-20.5 9.5S2.835 547.667-5.498 561s-10.833 23.667-7.5 31c2.667 6.667 8.5 12.167 17.5 16.5s28.5 9.833 58.5 16.5l43 11 119 24c42.667 8 99.667 16.333 171 25l43 5 71 9c22 4.667 33-14 33-56l1-10v-63l-1-21c0-28-2.167-46.5-6.5-55.5s-11.833-12.167-22.5-9.5l-6 1-12 4c-16 6-26.167 11.833-30.5 17.5s-8.166 17.167-11.5 34.5l-5 28c0 13.333-.5 21.666-1.5 25s-4.832 5-11.5 5c-2.666 0-7.333-.5-14-1.5l-20-3c-6.667-1-16-2.668-28-5s-29.667-6.834-53-13.5l-37-6c-44-7.334-70.167-15.167-78.5-23.5s-12.5-29.5-12.5-63.5v-29c0-13.333-.333-26.5-1-39.5s-1.834-24.5-3.5-34.5l-4-24c-1-6-1.5-12.333-1.5-19 0-10.667 6-16 18-16 5.332 0 17.332 1.5 36 4.5s32.666 5 42 6 27 5 53 12 51 10.5 75 10.5c15.332 0 27-2.167 35-6.5s14.332-12.666 19-25 7-21.832 7-28.5c0-9.332-9.334-16-28-20l-61-8-7-1-64-13-37-8-6-1-4-1-47-14c-15.334-4-23.834-6.832-25.5-8.5s-3.5-7.833-5.5-18.5l4-78 2-36c2-10 6.666-15 14-15 6 0 28.666 5.333 68 16 13.332 1.333 34.165 3.666 62.498 7l92.5 11 16 1c30 0 46.167 3.166 48.5 9.5S496.333 141 501 171l2 18 2 12 2 15 2 11c6 19.332 15 29 27 29 7.333 0 16.333-4.168 27-12.5s17.667-14.834 21-19.5 5-19.335 5-44.002c0-15.333-.167-30.166-.5-44.5S588 107.334 588 94V76zM334.002 875.003c5.333-12 9.666-22.166 13-30.5s5-14.832 5-19.5c0-8.666-14.334-25.333-43-50l-16-14-27-22c-13.334-12-26-21.167-38-27.5s-22-9.5-30-9.5c-14 0-23.168 5.167-27.5 15.5s-6.667 16.5-7 18.5-.5 4-.5 6c0 5.333 2.667 11.666 8 19l4 3 32 31 6 9 12 13 28 23c10 8 19.667 16.332 29 25s17 17.333 23 26c6.667 6.667 14 4.667 22-6 4-2.667 6.333-6 7-10z"/><glyph glyph-name="Ecircumflex" unicode="Ê" horiz-adv-x="602" d="M588 76l-2.998-15.997c-6.667-15.333-15.667-25.333-27-30l-83-9-63-10-19-3-7-2-53-5-37-5-100-15-14-4-17-4-23-5-9-2-20-4c-16-2-29-3-39-3-18.667 0-32 4.667-40 14s-16 27.666-24 55c-2 8.666 2.667 16.666 14 24s29 11 53 11c2.667 0 4.167 16.5 4.5 49.5s.5 77.5.5 133.5v81c0 12-.167 24.332-.5 37s-.5 25.666-.5 39v77c0 20-1 32-3 36s-9 6-21 6h-18c-6 0-12.833 3.166-20.5 9.5S2.835 547.667-5.498 561s-10.833 23.667-7.5 31c2.667 6.667 8.5 12.167 17.5 16.5s28.5 9.833 58.5 16.5l43 11 119 24c42.667 8 99.667 16.333 171 25l43 5 71 9c22 4.667 33-14 33-56l1-10v-63l-1-21c0-28-2.167-46.5-6.5-55.5s-11.833-12.167-22.5-9.5l-6 1-12 4c-16 6-26.167 11.833-30.5 17.5s-8.166 17.167-11.5 34.5l-5 28c0 13.333-.5 21.666-1.5 25s-4.832 5-11.5 5c-2.666 0-7.333-.5-14-1.5l-20-3c-6.667-1-16-2.668-28-5s-29.667-6.834-53-13.5l-37-6c-44-7.334-70.167-15.167-78.5-23.5s-12.5-29.5-12.5-63.5v-29c0-13.333-.333-26.5-1-39.5s-1.834-24.5-3.5-34.5l-4-24c-1-6-1.5-12.333-1.5-19 0-10.667 6-16 18-16 5.332 0 17.332 1.5 36 4.5s32.666 5 42 6 27 5 53 12 51 10.5 75 10.5c15.332 0 27-2.167 35-6.5s14.332-12.666 19-25 7-21.832 7-28.5c0-9.332-9.334-16-28-20l-61-8-7-1-64-13-37-8-6-1-4-1-47-14c-15.334-4-23.834-6.832-25.5-8.5s-3.5-7.833-5.5-18.5l4-78 2-36c2-10 6.666-15 14-15 6 0 28.666 5.333 68 16 13.332 1.333 34.165 3.666 62.498 7l92.5 11 16 1c30 0 46.167 3.166 48.5 9.5S496.333 141 501 171l2 18 2 12 2 15 2 11c6 19.332 15 29 27 29 7.333 0 16.333-4.168 27-12.5s17.667-14.834 21-19.5 5-19.335 5-44.002c0-15.333-.167-30.166-.5-44.5S588 107.334 588 94V76zM418.002 761.003l-1.002-15c-3.333-17.333-13.666-26-31-26-15.332 0-35 7.333-59 22l-28 16-17 10-22 13-22-13-17-10-28-16c-24.666-15.333-44.666-23-60-23-16.666 0-26.666 9-30 27l-1 15c0 5.333 3.334 10.666 10 16l4 2 33 23c6.668 5.332 13.835 10.665 21.502 15.998s17 10.834 28 16.5 21.333 12.335 31 20.002 17.5 13.5 23.5 17.5h14l56-38 48-32 33-23 4-2c6.667-5.333 10-10.666 10-16z"/><glyph glyph-name="Edieresis" unicode="Ë" horiz-adv-x="602" d="M588 76l-2.998-15.997c-6.667-15.333-15.667-25.333-27-30l-83-9-63-10-19-3-7-2-53-5-37-5-100-15-14-4-17-4-23-5-9-2-20-4c-16-2-29-3-39-3-18.667 0-32 4.667-40 14s-16 27.666-24 55c-2 8.666 2.667 16.666 14 24s29 11 53 11c2.667 0 4.167 16.5 4.5 49.5s.5 77.5.5 133.5v81c0 12-.167 24.332-.5 37s-.5 25.666-.5 39v77c0 20-1 32-3 36s-9 6-21 6h-18c-6 0-12.833 3.166-20.5 9.5S2.835 547.667-5.498 561s-10.833 23.667-7.5 31c2.667 6.667 8.5 12.167 17.5 16.5s28.5 9.833 58.5 16.5l43 11 119 24c42.667 8 99.667 16.333 171 25l43 5 71 9c22 4.667 33-14 33-56l1-10v-63l-1-21c0-28-2.167-46.5-6.5-55.5s-11.833-12.167-22.5-9.5l-6 1-12 4c-16 6-26.167 11.833-30.5 17.5s-8.166 17.167-11.5 34.5l-5 28c0 13.333-.5 21.666-1.5 25s-4.832 5-11.5 5c-2.666 0-7.333-.5-14-1.5l-20-3c-6.667-1-16-2.668-28-5s-29.667-6.834-53-13.5l-37-6c-44-7.334-70.167-15.167-78.5-23.5s-12.5-29.5-12.5-63.5v-29c0-13.333-.333-26.5-1-39.5s-1.834-24.5-3.5-34.5l-4-24c-1-6-1.5-12.333-1.5-19 0-10.667 6-16 18-16 5.332 0 17.332 1.5 36 4.5s32.666 5 42 6 27 5 53 12 51 10.5 75 10.5c15.332 0 27-2.167 35-6.5s14.332-12.666 19-25 7-21.832 7-28.5c0-9.332-9.334-16-28-20l-61-8-7-1-64-13-37-8-6-1-4-1-47-14c-15.334-4-23.834-6.832-25.5-8.5s-3.5-7.833-5.5-18.5l4-78 2-36c2-10 6.666-15 14-15 6 0 28.666 5.333 68 16 13.332 1.333 34.165 3.666 62.498 7l92.5 11 16 1c30 0 46.167 3.166 48.5 9.5S496.333 141 501 171l2 18 2 12 2 15 2 11c6 19.332 15 29 27 29 7.333 0 16.333-4.168 27-12.5s17.667-14.834 21-19.5 5-19.335 5-44.002c0-15.333-.167-30.166-.5-44.5S588 107.334 588 94V76zM381.002 785.003c0-18-5-32.332-15-43s-23.668-16-41-16c-4.668.668-8 1-10 1-28.668 4.668-43 24-43 58l3 26c8.666 32 23 49 43 51 18.666 3.334 33.833-4.833 45.5-24.5s17.5-37.167 17.5-52.5zm-161 0c0-34-14.337-53.334-43.004-58-20-2.668-36 1.332-48 12s-18 26-18 46c0 15.332 5.833 32.832 17.5 52.5s26.834 27.833 45.5 24.5c10.668-1.333 19.335-5.666 26.002-13s12.334-20 17-38z"/><glyph glyph-name="Igrave" unicode="Ì" horiz-adv-x="263" d="M255 608l-13-5.002-46-11c-6-1.333-10.334-11.666-13-31s-4-55-4-107l1-107 1-101v-8l1-24 2-44 1-36c0-18.666 1.332-29.333 4-32l31-8c16-4 26.5-12.5 31.5-25.5s7.5-23.167 7.5-30.5c0-9.333-3.668-16.333-11-21s-21.334-10-42-16l-20-5-3-1-13-1-5-1-46-10-36-5c-4.668-1.333-9.5-2-14.5-2H58c-10 0-17.5 2.5-22.5 7.5S24.665-3.002 18 8.998s-10 21-10 27c0 12.667 11 23 33 31l6 3 23 11c8.666 4.667 13.666 8 15 10l-2 33 2 34-5 56-1 5 1 113-4 112c0 38.667-.5 64.334-1.5 77s-2.168 26.668-3.5 42c-4 4-8.334 6.668-13 8l-16 3c-2.668.668-6.668 2.835-12 6.502S17.332 590.667 8 600s-14 18.666-14 28c0 8.666 4 18 12 28 4.667 4 12.167 7.666 22.5 11s30.833 8 61.5 14c10 2.666 19.333 4.5 28 5.5l31.5 3.5c12.333 1.332 23.833 2 34.5 2 23.333 0 40-5 50-15l4-3 7-9c6-8 10.5-15.668 13.5-23s4.5-13.667 4.5-19c0-8.667-2.667-13.667-8-15zm-27 155.998c1.332-3.333 0-8.67-4-16.002-6.666-16-17-24-31-24-8 0-17.832 2.833-29.5 8.5s-24.5 14.834-38.5 27.5l-26 22-17 15c-9.332 7.334-18.832 15.5-28.5 24.5s-14.5 17.5-14.5 25.5c0 4 1.668 10.168 5 18.5l10 24.5c3.334 8 6.667 14 10 18s7.333 6.334 12 7 7.667-.332 9-3c14.667-16.666 32.667-33.666 54-51 5.333-5.332 10.166-9.665 14.5-12.998s8.5-6.333 12.5-9l11-14 8-8 31-31 3-4c6-5.333 9-11.333 9-18z"/><glyph glyph-name="Iacute" unicode="Í" horiz-adv-x="263" d="M255 608l-13-5.002-46-11c-6-1.333-10.334-11.666-13-31s-4-55-4-107l1-107 1-101v-8l1-24 2-44 1-36c0-18.666 1.332-29.333 4-32l31-8c16-4 26.5-12.5 31.5-25.5s7.5-23.167 7.5-30.5c0-9.333-3.668-16.333-11-21s-21.334-10-42-16l-20-5-3-1-13-1-5-1-46-10-36-5c-4.668-1.333-9.5-2-14.5-2H58c-10 0-17.5 2.5-22.5 7.5S24.665-3.002 18 8.998s-10 21-10 27c0 12.667 11 23 33 31l6 3 23 11c8.666 4.667 13.666 8 15 10l-2 33 2 34-5 56-1 5 1 113-4 112c0 38.667-.5 64.334-1.5 77s-2.168 26.668-3.5 42c-4 4-8.334 6.668-13 8l-16 3c-2.668.668-6.668 2.835-12 6.502S17.332 590.667 8 600s-14 18.666-14 28c0 8.666 4 18 12 28 4.667 4 12.167 7.666 22.5 11s30.833 8 61.5 14c10 2.666 19.333 4.5 28 5.5l31.5 3.5c12.333 1.332 23.833 2 34.5 2 23.333 0 40-5 50-15l4-3 7-9c6-8 10.5-15.668 13.5-23s4.5-13.667 4.5-19c0-8.667-2.667-13.667-8-15zm-41 278.998c5.332-12 9.665-22.166 12.998-30.5s5-14.832 5-19.5c0-8.666-14.333-25.333-43-50l-16-14-27-22c-13.333-12-26-21.167-38-27.5s-22-9.5-30-9.5c-14 0-23.167 5.167-27.5 15.5s-6.666 16.5-7 18.5-.5 4-.5 6c0 5.333 2.668 11.666 8 19l4 3 32 31 6 9 12 13 28 23c10 8 19.668 16.332 29 25s17 17.333 23 26c6.668 6.667 14 4.667 22-6 4-2.667 6.334-6 7-10z"/><glyph glyph-name="Icircumflex" unicode="Î" horiz-adv-x="263" d="M255 608l-13-5.002-46-11c-6-1.333-10.334-11.666-13-31s-4-55-4-107l1-107 1-101v-8l1-24 2-44 1-36c0-18.666 1.332-29.333 4-32l31-8c16-4 26.5-12.5 31.5-25.5s7.5-23.167 7.5-30.5c0-9.333-3.668-16.333-11-21s-21.334-10-42-16l-20-5-3-1-13-1-5-1-46-10-36-5c-4.668-1.333-9.5-2-14.5-2H58c-10 0-17.5 2.5-22.5 7.5S24.665-3.002 18 8.998s-10 21-10 27c0 12.667 11 23 33 31l6 3 23 11c8.666 4.667 13.666 8 15 10l-2 33 2 34-5 56-1 5 1 113-4 112c0 38.667-.5 64.334-1.5 77s-2.168 26.668-3.5 42c-4 4-8.334 6.668-13 8l-16 3c-2.668.668-6.668 2.835-12 6.502S17.332 590.667 8 600s-14 18.666-14 28c0 8.666 4 18 12 28 4.667 4 12.167 7.666 22.5 11s30.833 8 61.5 14c10 2.666 19.333 4.5 28 5.5l31.5 3.5c12.333 1.332 23.833 2 34.5 2 23.333 0 40-5 50-15l4-3 7-9c6-8 10.5-15.668 13.5-23s4.5-13.667 4.5-19c0-8.667-2.667-13.667-8-15zm31 152.998l-1.003-15c-3.333-17.333-13.666-26-31-26-15.332 0-35 7.333-59 22l-28 16-17 10-22 13-22-13-17-10-28-16c-24.666-15.333-44.666-23-60-23-16.666 0-26.666 9-30 27l-1 15c0 5.333 3.334 10.666 10 16l4 2 33 23c6.668 5.332 13.835 10.665 21.502 15.998s17 10.833 28 16.5 21.332 12.334 31 20 17.5 13.5 23.5 17.5h14l56-38 48-32 33-23 4-2c6.666-5.332 10-10.665 10-15.998z"/><glyph glyph-name="Idieresis" unicode="Ï" horiz-adv-x="263" d="M255 608l-13-5.002-46-11c-6-1.333-10.334-11.666-13-31s-4-55-4-107l1-107 1-101v-8l1-24 2-44 1-36c0-18.666 1.332-29.333 4-32l31-8c16-4 26.5-12.5 31.5-25.5s7.5-23.167 7.5-30.5c0-9.333-3.668-16.333-11-21s-21.334-10-42-16l-20-5-3-1-13-1-5-1-46-10-36-5c-4.668-1.333-9.5-2-14.5-2H58c-10 0-17.5 2.5-22.5 7.5S24.665-3.002 18 8.998s-10 21-10 27c0 12.667 11 23 33 31l6 3 23 11c8.666 4.667 13.666 8 15 10l-2 33 2 34-5 56-1 5 1 113-4 112c0 38.667-.5 64.334-1.5 77s-2.168 26.668-3.5 42c-4 4-8.334 6.668-13 8l-16 3c-2.668.668-6.668 2.835-12 6.502S17.332 590.667 8 600s-14 18.666-14 28c0 8.666 4 18 12 28 4.667 4 12.167 7.666 22.5 11s30.833 8 61.5 14c10 2.666 19.333 4.5 28 5.5l31.5 3.5c12.333 1.332 23.833 2 34.5 2 23.333 0 40-5 50-15l4-3 7-9c6-8 10.5-15.668 13.5-23s4.5-13.667 4.5-19c0-8.667-2.667-13.667-8-15zm9 173.998c0-18-5.002-32.332-15.002-43s-23.667-16-41-16c-4.667.668-8 1-10 1-28.667 4.668-43 24-43 58l3 26c8.667 32 23 49 43 51 18.667 3.334 33.834-4.833 45.5-24.5s17.5-37.167 17.5-52.5zm-161.002 0c0-34-14.336-53.334-43.003-58-20-2.668-36 1.332-48 12s-18 26-18 46c0 15.332 5.833 32.832 17.5 52.5s26.834 27.833 45.5 24.5c10.668-1.333 19.335-5.666 26.002-13s12.334-20 17-38z"/><glyph glyph-name="Eth" unicode="Ð"/><glyph glyph-name="Ntilde" unicode="Ñ" horiz-adv-x="676" d="M673 658c2-9.333 2.996-16.662 2.996-21.995 0-11.333-8.333-19-25-23l-25-7c-14.667-2.667-23.834-7.834-27.5-15.5s-5.5-27.835-5.5-60.502c0-39.333.332-81.833 1-127.5l2-132.5c0-15.333-.168-30-.5-44s-.5-27.667-.5-41v-18c-1.334-73.333-2-116-2-128 0-8 .332-13.333 1-16s-.167-5.167-2.5-7.5-9.666-8-22-17-26.165-13.5-41.498-13.5c-19.333 0-35.166 6.167-47.5 18.5S443 50.67 405 108.003l-13 20-11 18-48 83-58 117-6 11-58 114-14 28c-5.332 12.666-8.832 20.166-10.5 22.5s-4.166 3.5-7.5 3.5c-3.332-2.668-6.5-11.668-9.5-27s-4.5-36.667-4.5-64v-28c0-6.667 1.334-22.667 4-48s4-54.333 4-87c0-36.667-2-69.334-6-98s-6-48.668-6-60 1.334-18.834 4-22.5 8-6.835 16-9.502l16-1c8 0 16.334-3.332 25-10s15.668-16 21-28l3-7c2-6 3-11.666 3-17 0-14.666-9.5-25.833-28.5-33.5S168.333-27 121-27H92c-5.332.667-9 1-11 1C59.667-22 44.334-17.333 35-12S21-.667 21 6c-2 15.333-3 26.666-3 34 0 10 2.667 16.5 8 19.5s14.166 6.332 26.5 10 20 7.666 23 12S80 95.664 80 110.997c0 6.667-.168 14-.5 22s-.5 17-.5 27v337c0 38-1 59.667-3 65-4.668 2-9.668 4-15 6l-12 4-7 3c-7.334 2-14.667 8-22 18l-4 7c-6 12-10.333 22.333-13 31s-3.667 14.334-3 17c2 14 15.333 24 40 30l73 7h4l21 3c9.333 1.334 16 1.667 20 1 22.667 0 39.667-3.333 51-10s21-18.667 29-36l4-11 4-10 4-15 13-23 39-85 19-40 21-47 43-94c24.667-54 39.334-85.333 44-94l30-52c5.334-9.333 10.834-16.166 16.5-20.5s9.835-6.5 12.502-6.5c5.333 0 8.833 2.668 10.5 8s2.5 14 2.5 26c0 8-.167 16.168-.5 24.5s-.5 16.834-.5 25.5v10l-1 37c0 76.668.833 133.335 2.5 170.002s3.667 61.667 6 75l5.5 32c1.333 8 2 14.333 2 19 0 8.667-2.167 13.834-6.5 15.5s-15.5 2.5-33.5 2.5c-3.333 0-7.833 2.168-13.5 6.5s-11.834 12-18.5 23-10 20.5-10 28.5c0 14 23 26.668 69 38l6 2 22 8c9.332 2.668 16.665 4 21.998 4 16 2 30 3 42 3 24 0 42.333-3.832 55-11.5s20.667-18.833 24-33.5zM487.996 795.004c0-18.667-.666-30.002-2-34.002s-4.665-9.667-9.998-17l-9-10c-6.667-9.333-15.5-16.5-26.5-21.5s-23.833-7.5-38.5-7.5c-12 0-24.167 2.167-36.5 6.5s-23 9.5-32 15.5-16.833 12.167-23.5 18.5-13.834 12.666-21.5 19-13.835 9.5-18.502 9.5c-2.667 0-5.334-.668-8-2s-6.5-3.834-11.5-7.5-9.668-8.835-14-15.502-6.5-15-6.5-25c0-8.667-6-13-18-13-9.334 0-19 3.167-29 9.5s-15 13.833-15 22.5c0 6.667 1 15.834 3 27.5s6 21.335 12 29.002 14.5 17.667 25.5 30 25.5 18.5 43.5 18.5c12 0 20.5-.5 25.5-1.5s12.832-4.5 23.5-10.5l16-13c19.332-18.667 35.665-31.5 48.998-38.5s23.333-10.5 30-10.5c4.667-.667 8.834-.5 12.5.5s5.835 4.167 6.502 9.5c-.667 4-.167 7.667 1.5 11s2.5 12 2.5 26c-.667 10.667 3.5 17.334 12.5 20s16.167 4.335 21.5 5.002c4 3.333 8.333 5 13 5 8 0 13.667-6.167 17-18.5s5-24.833 5-37.5z"/><glyph glyph-name="Ograve" unicode="Ò" horiz-adv-x="671" d="M643 324c0-35.333-4.002-65.67-12.002-91.003s-22.667-57.333-44-96-45.666-69-73-91S457.5 8.83 426.5.497 373-12.67 359-14.003s-29.666-2-47-2h-38c-13.332 1.334-23.165 2.834-29.498 4.5S227.667-6.667 213-2l-31 12c-37.333 17.332-63.833 36.832-79.5 58.5S75 108.832 67 124.5s-15 31.667-21 48-10.5 32.333-13.5 48S28 253.667 28 273l-1 21c0 20.667 1.167 41.5 3.5 62.5s6.833 45 13.5 72 16.334 53 29 78 25.668 46.833 39 65.5 28.334 35 45 49c27.334 25.333 54.334 44.333 81 57s54.335 20.334 83.002 23c27.333 0 52.166-2.166 74.5-6.5S442.666 681 470 667c14.667-6 37-19.832 67-41.5s55.167-58.833 75.5-111.5S643 398 643 324zm-110.002 3.996l-.005 35.5c0 11.667.333 23.167 1 34.5 0 22.667-2 47-6 73s-10.333 48.5-19 67.5-18.167 33.167-28.5 42.5-18.166 15.833-23.5 19.5-14.165 8.5-26.498 14.5-31.5 9-57.5 9-46.5-2.833-61.5-8.5-34.5-18.667-58.5-39-44-48.333-60-84-27.167-71-33.5-106-10.166-62.833-11.5-83.5-2-38-2-52c0-17.333 1.834-34 5.5-50s10.335-36.333 20.002-61 23.167-44.334 40.5-59 43-25.668 77-33c10.667-1.334 18.334-2 23-2 52 0 101.834 26.332 149.5 79s71.5 120.333 71.5 203zm-116.005 436c1.333-3.333.002-8.67-3.998-16.002-6.667-16-17-24-31-24-8 0-17.833 2.833-29.5 8.5s-24.5 14.834-38.5 27.5l-26 22-17 15c-9.333 7.334-18.833 15.5-28.5 24.5s-14.5 17.5-14.5 25.5c0 4 1.667 10.168 5 18.5l10 24.5c3.333 8 6.666 14 10 18s7.332 6.334 12 7 7.666-.332 9-3c14.666-16.666 32.666-33.666 54-51 5.332-5.332 10.165-9.665 14.498-12.998s8.5-6.333 12.5-9l11-14 8-8 31-31 3-4c6-5.333 9-11.333 9-18z"/><glyph glyph-name="Oacute" unicode="Ó" horiz-adv-x="671" d="M643 324c0-35.333-4.002-65.67-12.002-91.003s-22.667-57.333-44-96-45.666-69-73-91S457.5 8.83 426.5.497 373-12.67 359-14.003s-29.666-2-47-2h-38c-13.332 1.334-23.165 2.834-29.498 4.5S227.667-6.667 213-2l-31 12c-37.333 17.332-63.833 36.832-79.5 58.5S75 108.832 67 124.5s-15 31.667-21 48-10.5 32.333-13.5 48S28 253.667 28 273l-1 21c0 20.667 1.167 41.5 3.5 62.5s6.833 45 13.5 72 16.334 53 29 78 25.668 46.833 39 65.5 28.334 35 45 49c27.334 25.333 54.334 44.333 81 57s54.335 20.334 83.002 23c27.333 0 52.166-2.166 74.5-6.5S442.666 681 470 667c14.667-6 37-19.832 67-41.5s55.167-58.833 75.5-111.5S643 398 643 324zm-110.002 3.996l-.005 35.5c0 11.667.333 23.167 1 34.5 0 22.667-2 47-6 73s-10.333 48.5-19 67.5-18.167 33.167-28.5 42.5-18.166 15.833-23.5 19.5-14.165 8.5-26.498 14.5-31.5 9-57.5 9-46.5-2.833-61.5-8.5-34.5-18.667-58.5-39-44-48.333-60-84-27.167-71-33.5-106-10.166-62.833-11.5-83.5-2-38-2-52c0-17.333 1.834-34 5.5-50s10.335-36.333 20.002-61 23.167-44.334 40.5-59 43-25.668 77-33c10.667-1.334 18.334-2 23-2 52 0 101.834 26.332 149.5 79s71.5 120.333 71.5 203zm-130.005 559c5.333-12 9.666-22.166 13-30.5s5-14.832 5-19.5c0-8.666-14.334-25.333-43-50l-16-14-27-22c-13.334-12-26-21.167-38-27.5s-22-9.5-30-9.5c-14 0-23.168 5.167-27.5 15.5s-6.667 16.5-7 18.5-.5 4-.5 6c0 5.333 2.667 11.666 8 19l4 3 32 31 6 9 12 13 28 23c10 8 19.667 16.332 29 25s17 17.333 23 26c6.667 6.667 14 4.667 22-6 4-2.667 6.333-6 7-10z"/><glyph glyph-name="Ocircumflex" unicode="Ô" horiz-adv-x="671" d="M643 324c0-35.333-4.002-65.67-12.002-91.003s-22.667-57.333-44-96-45.666-69-73-91S457.5 8.83 426.5.497 373-12.67 359-14.003s-29.666-2-47-2h-38c-13.332 1.334-23.165 2.834-29.498 4.5S227.667-6.667 213-2l-31 12c-37.333 17.332-63.833 36.832-79.5 58.5S75 108.832 67 124.5s-15 31.667-21 48-10.5 32.333-13.5 48S28 253.667 28 273l-1 21c0 20.667 1.167 41.5 3.5 62.5s6.833 45 13.5 72 16.334 53 29 78 25.668 46.833 39 65.5 28.334 35 45 49c27.334 25.333 54.334 44.333 81 57s54.335 20.334 83.002 23c27.333 0 52.166-2.166 74.5-6.5S442.666 681 470 667c14.667-6 37-19.832 67-41.5s55.167-58.833 75.5-111.5S643 398 643 324zm-110.002 3.996l-.005 35.5c0 11.667.333 23.167 1 34.5 0 22.667-2 47-6 73s-10.333 48.5-19 67.5-18.167 33.167-28.5 42.5-18.166 15.833-23.5 19.5-14.165 8.5-26.498 14.5-31.5 9-57.5 9-46.5-2.833-61.5-8.5-34.5-18.667-58.5-39-44-48.333-60-84-27.167-71-33.5-106-10.166-62.833-11.5-83.5-2-38-2-52c0-17.333 1.834-34 5.5-50s10.335-36.333 20.002-61 23.167-44.334 40.5-59 43-25.668 77-33c10.667-1.334 18.334-2 23-2 52 0 101.834 26.332 149.5 79s71.5 120.333 71.5 203zm-43.005 421l-1.002-15c-3.332-17.333-13.665-26-30.998-26-15.333 0-35 7.333-59 22l-28 16-17 10-22 13-22-13-17-10-28-16c-24.667-15.333-44.667-23-60-23-16.667 0-26.667 9-30 27l-1 15c0 5.333 3.333 10.666 10 16l4 2 33 23c6.667 5.332 13.834 10.665 21.5 15.998s17 10.833 28 16.5 21.334 12.334 31 20 17.5 13.5 23.5 17.5h14l56-38 48-32 33-23 4-2c6.668-5.332 10-10.665 10-15.998z"/><glyph glyph-name="Otilde" unicode="Õ" horiz-adv-x="671" d="M643 324c0-35.333-4.002-65.67-12.002-91.003s-22.667-57.333-44-96-45.666-69-73-91S457.5 8.83 426.5.497 373-12.67 359-14.003s-29.666-2-47-2h-38c-13.332 1.334-23.165 2.834-29.498 4.5S227.667-6.667 213-2l-31 12c-37.333 17.332-63.833 36.832-79.5 58.5S75 108.832 67 124.5s-15 31.667-21 48-10.5 32.333-13.5 48S28 253.667 28 273l-1 21c0 20.667 1.167 41.5 3.5 62.5s6.833 45 13.5 72 16.334 53 29 78 25.668 46.833 39 65.5 28.334 35 45 49c27.334 25.333 54.334 44.333 81 57s54.335 20.334 83.002 23c27.333 0 52.166-2.166 74.5-6.5S442.666 681 470 667c14.667-6 37-19.832 67-41.5s55.167-58.833 75.5-111.5S643 398 643 324zm-110.002 3.996l-.005 35.5c0 11.667.333 23.167 1 34.5 0 22.667-2 47-6 73s-10.333 48.5-19 67.5-18.167 33.167-28.5 42.5-18.166 15.833-23.5 19.5-14.165 8.5-26.498 14.5-31.5 9-57.5 9-46.5-2.833-61.5-8.5-34.5-18.667-58.5-39-44-48.333-60-84-27.167-71-33.5-106-10.166-62.833-11.5-83.5-2-38-2-52c0-17.333 1.834-34 5.5-50s10.335-36.333 20.002-61 23.167-44.334 40.5-59 43-25.668 77-33c10.667-1.334 18.334-2 23-2 52 0 101.834 26.332 149.5 79s71.5 120.333 71.5 203zm-42.005 479c0-18.667-.666-30.002-2-34.002s-4.665-9.667-9.998-17l-9-10c-6.667-9.333-15.5-16.5-26.5-21.5s-23.833-7.5-38.5-7.5c-12 0-24.167 2.167-36.5 6.5s-23 9.5-32 15.5-16.833 12.167-23.5 18.5-13.834 12.666-21.5 19-13.835 9.5-18.502 9.5c-2.667 0-5.334-.668-8-2s-6.5-3.834-11.5-7.5-9.668-8.835-14-15.502-6.5-15-6.5-25c0-8.667-6-13-18-13-9.334 0-19 3.167-29 9.5s-15 13.833-15 22.5c0 6.667 1 15.834 3 27.5s6 21.335 12 29.002 14.5 17.667 25.5 30 25.5 18.5 43.5 18.5c12 0 20.5-.5 25.5-1.5s12.832-4.5 23.5-10.5l16-13c19.332-18.667 35.665-31.5 48.998-38.5s23.334-10.5 30-10.5c4.668-.667 8.835-.5 12.502.5s5.834 4.167 6.5 9.5c-.666 4-.166 7.667 1.5 11s2.5 12 2.5 26c-.666 10.667 3.5 17.334 12.5 20s16.168 4.335 21.5 5.002c4 3.333 8.334 5 13 5 8 0 13.668-6.167 17-18.5s5-24.833 5-37.5z"/><glyph glyph-name="Odieresis" unicode="Ö" horiz-adv-x="671" d="M643 324c0-35.333-4.002-65.67-12.002-91.003s-22.667-57.333-44-96-45.666-69-73-91S457.5 8.83 426.5.497 373-12.67 359-14.003s-29.666-2-47-2h-38c-13.332 1.334-23.165 2.834-29.498 4.5S227.667-6.667 213-2l-31 12c-37.333 17.332-63.833 36.832-79.5 58.5S75 108.832 67 124.5s-15 31.667-21 48-10.5 32.333-13.5 48S28 253.667 28 273l-1 21c0 20.667 1.167 41.5 3.5 62.5s6.833 45 13.5 72 16.334 53 29 78 25.668 46.833 39 65.5 28.334 35 45 49c27.334 25.333 54.334 44.333 81 57s54.335 20.334 83.002 23c27.333 0 52.166-2.166 74.5-6.5S442.666 681 470 667c14.667-6 37-19.832 67-41.5s55.167-58.833 75.5-111.5S643 398 643 324zm-110.002 3.996l-.005 35.5c0 11.667.333 23.167 1 34.5 0 22.667-2 47-6 73s-10.333 48.5-19 67.5-18.167 33.167-28.5 42.5-18.166 15.833-23.5 19.5-14.165 8.5-26.498 14.5-31.5 9-57.5 9-46.5-2.833-61.5-8.5-34.5-18.667-58.5-39-44-48.333-60-84-27.167-71-33.5-106-10.166-62.833-11.5-83.5-2-38-2-52c0-17.333 1.834-34 5.5-50s10.335-36.333 20.002-61 23.167-44.334 40.5-59 43-25.668 77-33c10.667-1.334 18.334-2 23-2 52 0 101.834 26.332 149.5 79s71.5 120.333 71.5 203zm-77.005 454c0-18-5-32.332-15-43s-23.668-16-41-16c-4.668.668-8 1-10 1-28.668 4.668-43 24-43 58l3 26c8.666 32 23 49 43 51 18.666 3.334 33.833-4.833 45.5-24.5s17.5-37.167 17.5-52.5zm-161 0c0-34-14.337-53.334-43.004-58-20-2.668-36 1.332-48 12s-18 26-18 46c0 15.332 5.832 32.832 17.5 52.5s26.833 27.833 45.5 24.5c10.667-1.333 19.334-5.666 26-13s12.335-20 17.002-38z"/><glyph glyph-name="multiply" unicode="×"/><glyph glyph-name="Oslash" unicode="Ø" horiz-adv-x="671" d="M643 324c0-35.333-4.002-65.673-12.002-91.006s-22.667-57.333-44-96-45.666-69-73-91-56.5-37.167-87.5-45.5-53.5-13.166-67.5-14.5-29.666-2-47-2h-38c-7.332 0-15.832 1.168-25.5 3.5S227-6.67 213-2.005l-31 12c-14 6.668-23.332 11.335-28 14.002s-13.666 9-27 19l-19-24c-13.332-15.333-23.665-31-30.998-47-4.667-4-8.667-6-12-6-5.333 0-10.166 1.833-14.5 5.5s-7.332 8.167-9 13.5S39-4.67 39-.004c0 9.333 3.5 21 10.5 35s19.168 32.667 36.5 56c-6.666 10-13.333 21.833-20 35.5s-13.167 28.834-19.5 45.5-11 32.835-14 48.502-4.5 33.167-4.5 52.5l-1 21c0 32.667 4.5 67 13.5 103s19.833 66.5 32.5 91.5 25.667 46.833 39 65.5 28.333 35 45 49c27.333 25.333 54.333 44.333 81 57s54.334 20.334 83 23c27.334 0 52.167-2.166 74.5-6.5s41.666-10.5 58-18.5 26.332-13 30-15 8.5-5.332 14.5-10c20 25.334 35.332 43.334 46 54s19.333 18.168 26 22.5 12.667 6.5 18 6.5c14.667 0 25.667-10 33-30 1.333-6.666 2-12 2-16 0-12.666-5.667-25.666-17-39l-44-49c30-31.332 51-67.165 63-107.498S643 384 643 324zM457.998 581.993c-3.333 2.667-6.5 5.003-9.5 7.003s-5.832 3-8.5 3c-18.666 9.333-41 14-67 14s-46.5-2.833-61.5-8.5-34.832-18.834-59.5-39.5-44.833-46.335-60.5-77.002-26.5-62.834-32.5-96.5-9.667-60.835-11-81.502-2-38-2-52c0-23.333 3.333-46.666 10-70l10 13 71 95 33 43 40 52 7 9 64 87 53 70zm75-253.997v31.998c0 10 .333 19.667 1 29 0 16.667-2 37.5-6 62.5s-10.333 47.167-19 66.5l-39-48-28-35-61-73-50-60-27-33-83-97-39-52c12-21.333 25.833-37.166 41.5-47.5s37.5-18.5 65.5-24.5c10.667-1.332 18.334-2 23-2 52 0 101.834 26.334 149.5 79S533 245.33 533 327.997z"/><glyph glyph-name="Ugrave" unicode="Ù" horiz-adv-x="655" d="M636 677c6.667-11.333 9.998-21.66 9.998-30.994 0-11.333-6.667-21-20-29l-27-10-28-11c-1.333-3.333-2-6.333-2-9 .667-6.667 1.167-18.334 1.5-35s.5-32.335.5-47.002l1-123 1-79v-15l-1-29c0-30-2-55-6-75s-10.333-40.5-19-61.5-17.167-38.167-25.5-51.5-19.666-26.833-34-40.5-33-24.5-56-32.5-40.332-13.167-52-15.5-27.5-3.5-47.5-3.5c-27.332 0-47.165.833-59.498 2.5s-26.833 5.834-43.5 12.5l-34 18c-23.333 16.668-41.333 32.668-54 48s-24.167 35.834-34.5 61.5-18 54.668-23 87-7.5 66.834-7.5 103.5c0 27.334-.833 60.667-2.5 100s-2.5 59.666-2.5 61l1 30v15c0 8.666-2 14-6 16l-37 9c-4.667 0-10.334 3.332-17 10l-5 5c-15.334 19.332-23 34.332-23 45s9 19 27 25l41 11c62.666 12.666 107.666 19 135 19 16.666 0 29.166-1.668 37.5-5s16.5-10.667 24.5-22 12-23.333 12-36c0-15.333-4.834-24.333-14.5-27l-31.5-8.5c-11.334-3-20-5.167-26-6.5-2.668-2.667-4.5-4.834-5.5-6.5s-1.834-10-2.5-25-1-51.834-1-110.5v-89c0-28.668.332-56.335 1-83.002 0-43.333 2.5-74.833 7.5-94.5s13.166-38.334 24.5-56S235.83 58.333 247.5 51 275 40 295 40c8.666 0 26.666 1.166 54 3.5S402.5 67 427.5 107 465 214.667 465 310l1 81 2 82c0 43.332-1.168 73.165-3.5 89.498S446.665 587 418 587c-10 0-19.668 6-29 18l-9 13c-4.668 12-7 19.667-7 23 0 9.333 7.5 16.333 22.5 21s39.5 11.667 73.5 21l15 4 31 8c10.666 2 22.333 3.833 35 5.5s23 2.5 31 2.5c26.667 0 45-8.667 55-26zm-252.002 66.005c1.333-3.333.002-8.67-3.998-16.002-6.667-16-17-24-31-24-8 0-17.833 2.833-29.5 8.5s-24.5 14.834-38.5 27.5l-26 22-17 15c-9.333 7.334-18.833 15.5-28.5 24.5s-14.5 17.5-14.5 25.5c0 4 1.667 10.168 5 18.5l10 24.5c3.333 8 6.666 14 10 18s7.332 6.334 12 7 7.666-.332 9-3c14.666-16.666 32.666-33.666 54-51 5.332-5.332 10.165-9.665 14.498-12.998s8.5-6.333 12.5-9l11-14 8-8 31-31 3-4c6-5.333 9-11.333 9-18z"/><glyph glyph-name="Uacute" unicode="Ú" horiz-adv-x="655" d="M636 677c6.667-11.333 9.998-21.66 9.998-30.994 0-11.333-6.667-21-20-29l-27-10-28-11c-1.333-3.333-2-6.333-2-9 .667-6.667 1.167-18.334 1.5-35s.5-32.335.5-47.002l1-123 1-79v-15l-1-29c0-30-2-55-6-75s-10.333-40.5-19-61.5-17.167-38.167-25.5-51.5-19.666-26.833-34-40.5-33-24.5-56-32.5-40.332-13.167-52-15.5-27.5-3.5-47.5-3.5c-27.332 0-47.165.833-59.498 2.5s-26.833 5.834-43.5 12.5l-34 18c-23.333 16.668-41.333 32.668-54 48s-24.167 35.834-34.5 61.5-18 54.668-23 87-7.5 66.834-7.5 103.5c0 27.334-.833 60.667-2.5 100s-2.5 59.666-2.5 61l1 30v15c0 8.666-2 14-6 16l-37 9c-4.667 0-10.334 3.332-17 10l-5 5c-15.334 19.332-23 34.332-23 45s9 19 27 25l41 11c62.666 12.666 107.666 19 135 19 16.666 0 29.166-1.668 37.5-5s16.5-10.667 24.5-22 12-23.333 12-36c0-15.333-4.834-24.333-14.5-27l-31.5-8.5c-11.334-3-20-5.167-26-6.5-2.668-2.667-4.5-4.834-5.5-6.5s-1.834-10-2.5-25-1-51.834-1-110.5v-89c0-28.668.332-56.335 1-83.002 0-43.333 2.5-74.833 7.5-94.5s13.166-38.334 24.5-56S235.83 58.333 247.5 51 275 40 295 40c8.666 0 26.666 1.166 54 3.5S402.5 67 427.5 107 465 214.667 465 310l1 81 2 82c0 43.332-1.168 73.165-3.5 89.498S446.665 587 418 587c-10 0-19.668 6-29 18l-9 13c-4.668 12-7 19.667-7 23 0 9.333 7.5 16.333 22.5 21s39.5 11.667 73.5 21l15 4 31 8c10.666 2 22.333 3.833 35 5.5s23 2.5 31 2.5c26.667 0 45-8.667 55-26zM381.998 875.005c5.333-12 9.666-22.166 13-30.5s5-14.832 5-19.5c0-8.666-14.334-25.333-43-50l-16-14-27-22c-13.334-12-26-21.167-38-27.5s-22-9.5-30-9.5c-14 0-23.168 5.167-27.5 15.5s-6.667 16.5-7 18.5-.5 4-.5 6c0 5.333 2.667 11.666 8 19l4 3 32 31 6 9 12 13 28 23c10 8 19.667 16.332 29 25s17 17.333 23 26c6.667 6.667 14 4.667 22-6 4-2.667 6.333-6 7-10z"/><glyph glyph-name="Ucircumflex" unicode="Û" horiz-adv-x="655" d="M636 677c6.667-11.333 9.998-21.66 9.998-30.994 0-11.333-6.667-21-20-29l-27-10-28-11c-1.333-3.333-2-6.333-2-9 .667-6.667 1.167-18.334 1.5-35s.5-32.335.5-47.002l1-123 1-79v-15l-1-29c0-30-2-55-6-75s-10.333-40.5-19-61.5-17.167-38.167-25.5-51.5-19.666-26.833-34-40.5-33-24.5-56-32.5-40.332-13.167-52-15.5-27.5-3.5-47.5-3.5c-27.332 0-47.165.833-59.498 2.5s-26.833 5.834-43.5 12.5l-34 18c-23.333 16.668-41.333 32.668-54 48s-24.167 35.834-34.5 61.5-18 54.668-23 87-7.5 66.834-7.5 103.5c0 27.334-.833 60.667-2.5 100s-2.5 59.666-2.5 61l1 30v15c0 8.666-2 14-6 16l-37 9c-4.667 0-10.334 3.332-17 10l-5 5c-15.334 19.332-23 34.332-23 45s9 19 27 25l41 11c62.666 12.666 107.666 19 135 19 16.666 0 29.166-1.668 37.5-5s16.5-10.667 24.5-22 12-23.333 12-36c0-15.333-4.834-24.333-14.5-27l-31.5-8.5c-11.334-3-20-5.167-26-6.5-2.668-2.667-4.5-4.834-5.5-6.5s-1.834-10-2.5-25-1-51.834-1-110.5v-89c0-28.668.332-56.335 1-83.002 0-43.333 2.5-74.833 7.5-94.5s13.166-38.334 24.5-56S235.83 58.333 247.5 51 275 40 295 40c8.666 0 26.666 1.166 54 3.5S402.5 67 427.5 107 465 214.667 465 310l1 81 2 82c0 43.332-1.168 73.165-3.5 89.498S446.665 587 418 587c-10 0-19.668 6-29 18l-9 13c-4.668 12-7 19.667-7 23 0 9.333 7.5 16.333 22.5 21s39.5 11.667 73.5 21l15 4 31 8c10.666 2 22.333 3.833 35 5.5s23 2.5 31 2.5c26.667 0 45-8.667 55-26zm-188.002 75.005l-1.002-15c-3.333-17.333-13.666-26-31-26-15.332 0-35 7.333-59 22l-28 16-17 10-22 13-22-13-17-10-28-16c-24.666-15.333-44.666-23-60-23-16.666 0-26.666 9-30 27l-1 15c0 5.333 3.334 10.666 10 16l4 2 33 23c6.668 5.332 13.835 10.665 21.502 15.998s17 10.833 28 16.5 21.333 12.334 31 20 17.5 13.5 23.5 17.5h14l56-38 48-32 33-23 4-2c6.667-5.332 10-10.665 10-15.998z"/><glyph glyph-name="Udieresis" unicode="Ü" horiz-adv-x="655" d="M636 677c6.667-11.333 9.998-21.66 9.998-30.994 0-11.333-6.667-21-20-29l-27-10-28-11c-1.333-3.333-2-6.333-2-9 .667-6.667 1.167-18.334 1.5-35s.5-32.335.5-47.002l1-123 1-79v-15l-1-29c0-30-2-55-6-75s-10.333-40.5-19-61.5-17.167-38.167-25.5-51.5-19.666-26.833-34-40.5-33-24.5-56-32.5-40.332-13.167-52-15.5-27.5-3.5-47.5-3.5c-27.332 0-47.165.833-59.498 2.5s-26.833 5.834-43.5 12.5l-34 18c-23.333 16.668-41.333 32.668-54 48s-24.167 35.834-34.5 61.5-18 54.668-23 87-7.5 66.834-7.5 103.5c0 27.334-.833 60.667-2.5 100s-2.5 59.666-2.5 61l1 30v15c0 8.666-2 14-6 16l-37 9c-4.667 0-10.334 3.332-17 10l-5 5c-15.334 19.332-23 34.332-23 45s9 19 27 25l41 11c62.666 12.666 107.666 19 135 19 16.666 0 29.166-1.668 37.5-5s16.5-10.667 24.5-22 12-23.333 12-36c0-15.333-4.834-24.333-14.5-27l-31.5-8.5c-11.334-3-20-5.167-26-6.5-2.668-2.667-4.5-4.834-5.5-6.5s-1.834-10-2.5-25-1-51.834-1-110.5v-89c0-28.668.332-56.335 1-83.002 0-43.333 2.5-74.833 7.5-94.5s13.166-38.334 24.5-56S235.83 58.333 247.5 51 275 40 295 40c8.666 0 26.666 1.166 54 3.5S402.5 67 427.5 107 465 214.667 465 310l1 81 2 82c0 43.332-1.168 73.165-3.5 89.498S446.665 587 418 587c-10 0-19.668 6-29 18l-9 13c-4.668 12-7 19.667-7 23 0 9.333 7.5 16.333 22.5 21s39.5 11.667 73.5 21l15 4 31 8c10.666 2 22.333 3.833 35 5.5s23 2.5 31 2.5c26.667 0 45-8.667 55-26zm-201.002 81.005c0-18-5-32.332-15-43s-23.668-16-41-16c-4.668.668-8 1-10 1-28.668 4.668-43 24-43 58l3 26c8.666 32 23 49 43 51 18.666 3.334 33.833-4.833 45.5-24.5s17.5-37.167 17.5-52.5zm-161 0c0-34-14.337-53.334-43.004-58-20-2.668-36 1.332-48 12s-18 26-18 46c0 15.332 5.833 32.832 17.5 52.5s26.834 27.833 45.5 24.5c10.668-1.333 19.335-5.666 26.002-13s12.334-20 17-38z"/><glyph glyph-name="Yacute" unicode="Ý"/><glyph glyph-name="Thorn" unicode="Þ"/><glyph glyph-name="germandbls" unicode="ß" horiz-adv-x="720" d="M668 30l-14-12.006c-17.334-14.667-34.334-25-51-31s-39.668-9-69-9c-19.334 0-36.667.833-52 2.5s-34.333 5.5-57 11.5l-17 4-10 3-10 4c-34 12.667-57.167 22.167-69.5 28.5s-20.833 11.833-25.5 16.5c-7.333 10.667-10.666 19-10 25 1.334 8.667 5 15.334 11 20s13.668 7 23 7c8.668 0 16.668-.666 24-2s18.667-4.665 34-9.998l15-5 19-7c12-4.667 29.833-8.334 53.5-11s38.667-4.335 45-5.002 14.166-1 23.5-1c7.332 0 13.665.667 18.998 2s12.166 3.5 20.5 6.5 9.832 8.833 4.5 17.5c-2.668 4.667-7 9.334-13 14s-18.668 12.668-38 24c-19.334 14-37.834 26.334-55.5 37s-45.168 23-82.5 37c-10 2.668-18.668 7.335-26 14.002-13.334 8.667-23.667 17.5-31 26.5s-13 20-17 33-6 23.5-6 31.5c0 11.333 4.333 26.333 13 45s20.667 35.334 36 50 31.166 27.335 47.5 38.002 35.332 18.834 57 24.5 32.5 16.835 32.5 33.502c0 18.667-4.168 37.834-12.5 57.5s-19.834 35.5-34.5 47.5-27.668 20.168-39 24.5-27.667 9.5-49 15.5l-15 1h-14c-5.333 0-11 .334-17 1-18.667 0-33.667-5.332-45-16s-21.333-30.333-30-59l-1-4-12-52c-5.333-24.667-9.5-57.834-12.5-99.5s-4.5-82.5-4.5-122.5v-35l-2-104c0-7.334-.167-14-.5-20s-.5-11.334-.5-16c0-12 5-20.5 15-25.5s18.5-9 25.5-12 13.167-8.834 18.5-17.5l2-6c4.667-15.334 7-25.334 7-30 0-9.334-6.333-15.667-19-19s-40.667-7.333-84-12l-27-2-19-2c-8-1.333-15-2-21-2h-13c-10.667 0-21.167 4.667-31.5 14s-15.5 19.666-15.5 31 7.667 21 23 29 26.333 12.666 33 14 10.167 10.5 10.5 27.5.5 38.5.5 64.5v51c0 16.666.333 32.666 1 48l2 41c0 14.666-7 22-21 22-10.667 0-24.667-3.668-42-11l-13-4c-3.333-.668-8.333-1-15-1-27.333 0-41 11.666-41 35 0 4 .833 10 2.5 18s9 16.166 22 24.5 39.5 18.5 79.5 30.5l27 6 4 6c.667 2.666 3.334 19 8 49s8.668 57.332 12 82l5 22c16 52.666 33.334 87.666 52 105 12.668 14 26.668 23.166 42 27.5s36.334 6.5 63 6.5c21.334 0 45.5-2.668 72.5-8s48.5-12.667 64.5-22 30.834-19.833 44.5-31.5S507.334 632.333 526 611s32-46.666 40-76 12-54.332 12-75c0-15.332-14.333-32-43-50l-54-29c-4-3.332-10.333-6.832-19-10.5s-13.667-6.5-15-8.5l-23-29-12.5-20c-3.667-6-5.5-10.666-5.5-14 0-11.332 9.667-21 29-29l65-43 17-7 7-4 8-3 14-9 25-11c10-2.666 17.667-5.166 23-7.5s24-12.832 56-31.5 48-41.333 48-68c0-16-10-34.667-30-56z"/><glyph glyph-name="agrave" unicode="à" horiz-adv-x="506" d="M486 62c2-6 3.002-11.672 3.002-17.005 0-9.333-3.667-17.333-11-24s-22.333-15-45-25-41.667-15-57-15c-21.333 0-34.666 9.333-40 28l-4 17c-4 .667-8.332.667-13 0-18.666-7.333-38.833-14.666-60.5-22s-42.334-12.665-62-15.998-36.835-5-51.502-5c-36 0-65 8-87 24s-33 42-33 78c0 15.333 7.167 36 21.5 62s32.333 45.833 54 59.5 49.834 27.834 84.5 42.5 59.168 23.5 73.5 26.5l48 10C324.17 289.166 333 295.333 333 304c-2 11.332-3.666 24.5-5 39.5s-4.5 29.666-9.5 44S303 409 287 409c-12.666 0-26.166-3.168-40.5-9.5s-45.832-27-94.5-62-76.333-52.834-83-53.5c-20-3.334-29 7.666-27 33 0 18 24.833 48.832 74.5 92.5S217.334 475 270 475c14 0 28.668-2 44-6 41.334-12.668 69.334-36 84-70s22-92.334 22-175c0-15.334-.332-32-1-50s-1.333-34.668-2-50c0-24 1.333-37 4-39 8 .666 16.333 1 25 1 10 0 18.667-1.668 26-5s12-9.667 14-19zm-144.998 92.995c0 12.667-2.832 22.168-8.5 28.5s-12.166 9.5-19.5 9.5c-62-6.666-111.332-21.333-148-44s-55-44-55-64c0-4 1.668-8.5 5-13.5s14-7.5 32-7.5c16 0 38.168 2.5 66.5 7.5s56.667 15.167 85 30.5 42.5 33 42.5 53zm-2 414c1.334-3.332.003-8.668-3.997-16-6.667-16-17-24-31-24-8 0-17.833 2.832-29.5 8.5s-24.5 14.833-38.5 27.5l-26 22-17 15c-9.333 7.333-18.833 15.5-28.5 24.5s-14.5 17.5-14.5 25.5c0 4 1.667 10.167 5 18.5l10 24.5c3.333 8 6.666 14 10 18s7.332 6.333 12 7 7.666-.333 9-3c14.666-16.667 32.666-33.667 54-51 5.332-5.333 10.165-9.666 14.498-13s8.5-6.332 12.5-9l11-14 8-8 31-31 3-4c6-5.332 9-11.332 9-18z"/><glyph glyph-name="aacute" unicode="á" horiz-adv-x="506" d="M486 62c2-6 3.002-11.672 3.002-17.005 0-9.333-3.667-17.333-11-24s-22.333-15-45-25-41.667-15-57-15c-21.333 0-34.666 9.333-40 28l-4 17c-4 .667-8.332.667-13 0-18.666-7.333-38.833-14.666-60.5-22s-42.334-12.665-62-15.998-36.835-5-51.502-5c-36 0-65 8-87 24s-33 42-33 78c0 15.333 7.167 36 21.5 62s32.333 45.833 54 59.5 49.834 27.834 84.5 42.5 59.168 23.5 73.5 26.5l48 10C324.17 289.166 333 295.333 333 304c-2 11.332-3.666 24.5-5 39.5s-4.5 29.666-9.5 44S303 409 287 409c-12.666 0-26.166-3.168-40.5-9.5s-45.832-27-94.5-62-76.333-52.834-83-53.5c-20-3.334-29 7.666-27 33 0 18 24.833 48.832 74.5 92.5S217.334 475 270 475c14 0 28.668-2 44-6 41.334-12.668 69.334-36 84-70s22-92.334 22-175c0-15.334-.332-32-1-50s-1.333-34.668-2-50c0-24 1.333-37 4-39 8 .666 16.333 1 25 1 10 0 18.667-1.668 26-5s12-9.667 14-19zm-144.998 92.995c0 12.667-2.832 22.168-8.5 28.5s-12.166 9.5-19.5 9.5c-62-6.666-111.332-21.333-148-44s-55-44-55-64c0-4 1.668-8.5 5-13.5s14-7.5 32-7.5c16 0 38.168 2.5 66.5 7.5s56.667 15.167 85 30.5 42.5 33 42.5 53zm-16 540c5.334-12 9.667-22.165 13-30.498s5-14.833 5-19.5c0-8.667-14.333-25.334-43-50l-16-14-27-22c-13.333-12-26-21.168-38-27.5s-22-9.5-30-9.5c-14 0-23.167 5.166-27.5 15.5s-6.666 16.5-7 18.5-.5 4-.5 6c0 5.332 2.668 11.665 8 18.998l4 3 32 31 6 9 12 13 28 23c10 8 19.668 16.333 29 25s17 17.334 23 26c6.668 6.668 14 4.668 22-6 4-2.666 6.334-6 7-10z"/><glyph glyph-name="acircumflex" unicode="â" horiz-adv-x="506" d="M486 62c2-6 3.002-11.672 3.002-17.005 0-9.333-3.667-17.333-11-24s-22.333-15-45-25-41.667-15-57-15c-21.333 0-34.666 9.333-40 28l-4 17c-4 .667-8.332.667-13 0-18.666-7.333-38.833-14.666-60.5-22s-42.334-12.665-62-15.998-36.835-5-51.502-5c-36 0-65 8-87 24s-33 42-33 78c0 15.333 7.167 36 21.5 62s32.333 45.833 54 59.5 49.834 27.834 84.5 42.5 59.168 23.5 73.5 26.5l48 10C324.17 289.166 333 295.333 333 304c-2 11.332-3.666 24.5-5 39.5s-4.5 29.666-9.5 44S303 409 287 409c-12.666 0-26.166-3.168-40.5-9.5s-45.832-27-94.5-62-76.333-52.834-83-53.5c-20-3.334-29 7.666-27 33 0 18 24.833 48.832 74.5 92.5S217.334 475 270 475c14 0 28.668-2 44-6 41.334-12.668 69.334-36 84-70s22-92.334 22-175c0-15.334-.332-32-1-50s-1.333-34.668-2-50c0-24 1.333-37 4-39 8 .666 16.333 1 25 1 10 0 18.667-1.668 26-5s12-9.667 14-19zm-144.998 92.995c0 12.667-2.832 22.168-8.5 28.5s-12.166 9.5-19.5 9.5c-62-6.666-111.332-21.333-148-44s-55-44-55-64c0-4 1.668-8.5 5-13.5s14-7.5 32-7.5c16 0 38.168 2.5 66.5 7.5s56.667 15.167 85 30.5 42.5 33 42.5 53zm71 402l-1-15c-3.334-17.332-13.667-26-31-26-15.333 0-35 7.334-59 22l-28 16-17 10-22 13-22-13-17-10-28-16c-24.667-15.332-44.667-23-60-23-16.667 0-26.667 9-30 27l-1 15c0 5.334 3.333 10.667 10 16l4 2 33 23c6.667 5.333 13.834 10.666 21.5 16s17 10.832 28 16.5 21.334 12.333 31 20 17.5 13.5 23.5 17.5h14l56-38 48-32 33-23 4-2c6.668-5.333 10-10.666 10-16z"/><glyph glyph-name="atilde" unicode="ã" horiz-adv-x="506" d="M486 62c2-6 3.002-11.672 3.002-17.005 0-9.333-3.667-17.333-11-24s-22.333-15-45-25-41.667-15-57-15c-21.333 0-34.666 9.333-40 28l-4 17c-4 .667-8.332.667-13 0-18.666-7.333-38.833-14.666-60.5-22s-42.334-12.665-62-15.998-36.835-5-51.502-5c-36 0-65 8-87 24s-33 42-33 78c0 15.333 7.167 36 21.5 62s32.333 45.833 54 59.5 49.834 27.834 84.5 42.5 59.168 23.5 73.5 26.5l48 10C324.17 289.166 333 295.333 333 304c-2 11.332-3.666 24.5-5 39.5s-4.5 29.666-9.5 44S303 409 287 409c-12.666 0-26.166-3.168-40.5-9.5s-45.832-27-94.5-62-76.333-52.834-83-53.5c-20-3.334-29 7.666-27 33 0 18 24.833 48.832 74.5 92.5S217.334 475 270 475c14 0 28.668-2 44-6 41.334-12.668 69.334-36 84-70s22-92.334 22-175c0-15.334-.332-32-1-50s-1.333-34.668-2-50c0-24 1.333-37 4-39 8 .666 16.333 1 25 1 10 0 18.667-1.668 26-5s12-9.667 14-19zm-144.998 92.995c0 12.667-2.832 22.168-8.5 28.5s-12.166 9.5-19.5 9.5c-62-6.666-111.332-21.333-148-44s-55-44-55-64c0-4 1.668-8.5 5-13.5s14-7.5 32-7.5c16 0 38.168 2.5 66.5 7.5s56.667 15.167 85 30.5 42.5 33 42.5 53zm51 457c0-18.666-.665-30-1.998-34s-4.666-9.668-10-17l-9-10c-6.666-9.334-15.5-16.5-26.5-21.5s-23.832-7.5-38.5-7.5c-12 0-24.166 2.166-36.5 6.5s-23 9.5-32 15.5-16.832 12.166-23.5 18.5-13.833 12.665-21.5 18.998-13.834 9.5-18.5 9.5c-2.668 0-5.335-.667-8.002-2s-6.5-3.833-11.5-7.5-9.667-8.834-14-15.5-6.5-15-6.5-25c0-8.668-6-13-18-13-9.333 0-19 3.166-29 9.5s-15 13.832-15 22.5c0 6.666 1 15.833 3 27.5s6 21.334 12 29 14.5 17.668 25.5 30 25.5 18.5 43.5 18.5c12 0 20.5-.5 25.5-1.5s12.833-4.5 23.5-10.5l16-13c19.333-18.666 35.666-31.5 49-38.5s23.332-10.5 30-10.5c4.666-.666 8.833-.5 12.5.5s5.834 4.168 6.5 9.5c-.666 4-.166 7.668 1.5 11s2.5 12 2.5 26c-.666 10.668 3.5 17.335 12.5 20.002s16.168 4.334 21.5 5c4 3.334 8.334 5 13 5 8 0 13.668-6.166 17-18.5s5-24.832 5-37.5z"/><glyph glyph-name="adieresis" unicode="ä" horiz-adv-x="506" d="M486 62c2-6 3.002-11.672 3.002-17.005 0-9.333-3.667-17.333-11-24s-22.333-15-45-25-41.667-15-57-15c-21.333 0-34.666 9.333-40 28l-4 17c-4 .667-8.332.667-13 0-18.666-7.333-38.833-14.666-60.5-22s-42.334-12.665-62-15.998-36.835-5-51.502-5c-36 0-65 8-87 24s-33 42-33 78c0 15.333 7.167 36 21.5 62s32.333 45.833 54 59.5 49.834 27.834 84.5 42.5 59.168 23.5 73.5 26.5l48 10C324.17 289.166 333 295.333 333 304c-2 11.332-3.666 24.5-5 39.5s-4.5 29.666-9.5 44S303 409 287 409c-12.666 0-26.166-3.168-40.5-9.5s-45.832-27-94.5-62-76.333-52.834-83-53.5c-20-3.334-29 7.666-27 33 0 18 24.833 48.832 74.5 92.5S217.334 475 270 475c14 0 28.668-2 44-6 41.334-12.668 69.334-36 84-70s22-92.334 22-175c0-15.334-.332-32-1-50s-1.333-34.668-2-50c0-24 1.333-37 4-39 8 .666 16.333 1 25 1 10 0 18.667-1.668 26-5s12-9.667 14-19zm-144.998 92.995c0 12.667-2.832 22.168-8.5 28.5s-12.166 9.5-19.5 9.5c-62-6.666-111.332-21.333-148-44s-55-44-55-64c0-4 1.668-8.5 5-13.5s14-7.5 32-7.5c16 0 38.168 2.5 66.5 7.5s56.667 15.167 85 30.5 42.5 33 42.5 53zm49 426c0-18-5-32.33-15-42.998s-23.667-16-41-16c-4.667.667-8 1-10 1-28.667 4.667-43 24-43 58l3 26c8.667 32 23 49 43 51 18.667 3.333 33.834-4.834 45.5-24.5s17.5-37.168 17.5-52.5zm-161 .002c0-34-14.336-53.335-43.003-58.002-20-2.667-36 1.333-48 12s-18 26-18 46c0 15.333 5.832 32.833 17.5 52.5s26.833 27.834 45.5 24.5c10.667-1.332 19.334-5.665 26-12.998s12.335-20 17.002-38z"/><glyph glyph-name="aring" unicode="å" horiz-adv-x="506" d="M486 62c2-6 3.002-11.672 3.002-17.005 0-9.333-3.667-17.333-11-24s-22.333-15-45-25-41.667-15-57-15c-21.333 0-34.666 9.333-40 28l-4 17c-4 .667-8.332.667-13 0-18.666-7.333-38.833-14.666-60.5-22s-42.334-12.665-62-15.998-36.835-5-51.502-5c-36 0-65 8-87 24s-33 42-33 78c0 15.333 7.167 36 21.5 62s32.333 45.833 54 59.5 49.834 27.834 84.5 42.5 59.168 23.5 73.5 26.5l48 10C324.17 289.166 333 295.333 333 304c-2 11.332-3.666 24.5-5 39.5s-4.5 29.666-9.5 44S303 409 287 409c-12.666 0-26.166-3.168-40.5-9.5s-45.832-27-94.5-62-76.333-52.834-83-53.5c-20-3.334-29 7.666-27 33 0 18 24.833 48.832 74.5 92.5S217.334 475 270 475c14 0 28.668-2 44-6 41.334-12.668 69.334-36 84-70s22-92.334 22-175c0-15.334-.332-32-1-50s-1.333-34.668-2-50c0-24 1.333-37 4-39 8 .666 16.333 1 25 1 10 0 18.667-1.668 26-5s12-9.667 14-19zm-144.998 92.995c0 12.667-2.832 22.168-8.5 28.5s-12.166 9.5-19.5 9.5c-62-6.666-111.332-21.333-148-44s-55-44-55-64c0-4 1.668-8.5 5-13.5s14-7.5 32-7.5c16 0 38.168 2.5 66.5 7.5s56.667 15.167 85 30.5 42.5 33 42.5 53zm9 479c0-25.332-6.664-48.998-19.997-70.998s-28.333-37.333-45-46-34.334-13-53-13c-18 0-36.5 8.333-55.5 25s-30.668 34.167-35 52.5-7 30.666-8 37-1.5 13.5-1.5 21.5c0 28 9.166 50.166 27.5 66.5s35.332 25.5 51 27.5 27.166 3 34.5 3c29.332 0 54.165-9.834 74.498-29.5s30.5-44.168 30.5-73.5zm-57.997-7.998c0 14.667-5.833 26.5-17.5 35.5s-26.5 13.5-44.5 13.5c-11.333 0-21.333-4.333-30-13s-13-19.667-13-33l3-20c3.333-14.667 9.5-25.834 18.5-33.5s18.5-11.5 28.5-11.5c17.333-2.668 30.833 3.832 40.5 19.5s14.5 29.833 14.5 42.5z"/><glyph glyph-name="ae" unicode="æ" horiz-adv-x="788" d="M754 111c0-10.667-2.16-19.838-6.493-27.505s-13.166-16.167-26.5-25.5l-16-13-6-4c-8-4.667-14.5-8.167-19.5-10.5s-18.332-8.166-40-17.5-42.166-16.332-61.5-21-38.665-7-57.998-7c-30.668 0-57.335 6.168-80.002 18.5s-42.334 30.834-59 55.5l-37.5-21.5c-13.668-7.666-21.835-11.5-24.502-11.5-18.667-7.332-38.834-14.665-60.5-21.998s-42.335-12.666-62.002-16-36.834-5-51.5-5c-36 0-65 8-87 24s-33 42-33 78c0 15.334 7.166 36 21.5 62s32.332 45.834 54 59.5 49.833 27.835 84.5 42.502 59.167 23.5 73.5 26.5l48 10c17.667 3.666 26.5 9.833 26.5 18.5-2 11.333-3.667 24.5-5 39.5s-4.5 29.667-9.5 44-15.5 21.5-31.5 21.5c-12.667 0-26.167-3.167-40.5-9.5s-45.833-27.166-94.5-62.5-76.334-53-83-53c-18 0-27 11-27 33 0 18 24.832 48.834 74.5 92.5s100.833 65.5 153.5 65.5c14 0 31-2.832 51-8.5s36.833-15.666 50.5-30 23.5-34.5 29.5-60.5l31 37c19.333 20 35.833 35.334 49.5 46s28.834 19.5 45.5 26.5 31.668 12.5 45 16.5 25.667 6 37 6c14 0 26.167-2.666 36.5-8s24.166-13.832 41.5-25.5 31.5-25.166 42.5-40.5 18.5-34.332 22.5-57l2-24v-49c0-32.666-3.334-53.333-10-62s-22.668-14.334-48-17l-9-2-26-2c-5.334 0-16.834-2.168-34.5-6.5S585.668 205 557 199l-85-19-19-5-3-1-14-5c-12.667-2.668-19-10-19-22 0-3.334.5-7.5 1.5-12.5s3.167-14.668 6.5-29 10.666-24.834 22-31.5S475.666 64 499 64l21 1h6c35.333 4.666 79.333 20.333 132 47l30 18c6 3.333 11 6.333 15 9s6.667 4 8 4c2.667 1.333 7 2 13 2 20 0 30-11.333 30-34zm-90.993 266.996l-2 17.998c0 2.667-1 6.334-3 11s-3 7.668-3 9c-6.667 12.668-14.667 19-24 19-11.333 0-25.333-4.832-42-14.5s-29.167-17.666-37.5-24-19.833-16.165-34.5-29.498-28-28.666-40-46l-18-28c-6-8-10.167-14.5-12.5-19.5s-3.5-8.832-3.5-11.5l1-11c3.333 2.668 8.833 5.168 16.5 7.5s34.5 7.167 80.5 14.5l49 10 14 3 33 9c12 2.667 19.333 8.167 22 16.5s4 30.5 4 66.5zm-322-223.002c0 12.667-2.832 22.168-8.5 28.5s-12.166 9.5-19.5 9.5c-62-6.666-111.332-21.333-148-44s-55-44-55-64c0-4 1.668-8.5 5-13.5s14-7.5 32-7.5c16 0 38.168 2.5 66.5 7.5s56.667 15.167 85 30.5 42.5 33 42.5 53z"/><glyph glyph-name="ccedilla" unicode="ç" horiz-adv-x="469" d="M441 130c0-18-2.994-32.504-8.994-43.504s-20.333-24.833-43-41.5l-28-19-16-8-14-9c-18-9.333-36-16.166-54-20.5s-37-6.5-57-6.5c0-12.666 3.333-19 10-19 6 0 12.333-1.832 19-5.5s18.334-10.666 35-21 28.5-19 35.5-26 10.5-14.5 10.5-22.5c0-9.332-3.5-17.665-10.5-24.998s-11.332-12-13-14-3.5-3-5.5-3c-13.332-11.333-27-19.5-41-24.5s-32.666-7.5-56-7.5c-10.666 0-24.833 2.333-42.5 7s-28.667 10-33 16-6.5 10.667-6.5 14c0 7.333 3.5 14.5 10.5 21.5s13.5 10.5 19.5 10.5c17.333-2 32.333-4.333 45-7s21-4 25-4 9.5 1.167 16.5 3.5 8.167 7.166 3.5 14.5c-2 3.332-6.333 7.332-13 12s-18.334 12-35 22c-6.668 5.332-11.668 9.832-15 13.5s-9 12.166-17 25.5c0 6 2.332 14.332 7 25-18 3.332-31.668 7.665-41 12.998s-22 15.333-38 30-26.334 26-31 34-11.168 23.667-19.5 47-12.5 45-12.5 65c0 12 .332 23.5 1 34.5s2.5 23.167 5.5 36.5 7.332 27.833 13 43.5 12.833 31.5 21.5 47.5l24 39c20 26.667 36.333 45.834 49 57.5s25.334 20.835 38 27.502 20.668 11 24 13 6.334 3 9 3l7 2 17 5c10 3.333 20 5 30 5 9.334 0 23.667-3.333 43-10l8-3 25-13c3.333.667 5.666 2 7 4s2.665 4.5 3.998 7.5 2 8.833 2 17.5c0 5.333 3 9.666 9 13s12 4 18 2c2.667 0 5.667-1 9-3s8.666-5.834 16-11.5 12.165-12.168 14.498-19.5 3.5-24.667 3.5-52v-6l-7-100-2-22-1-4c0-1.333-.333-2.833-1-4.5s-2.667-4.667-6-9-9.333-6.5-18-6.5c-8 0-16.5 3-25.5 9s-15.333 16-19 30-5.5 38-5.5 72l-1.5 4.5c-.333 1-3.333 5.167-9 12.5s-14.834 11-27.5 11c-12 0-25.668-4.333-41-13s-32.667-22.667-52-42l-30-34c-16.667-20.667-29.167-38.834-37.5-54.5s-15.833-34.168-22.5-55.5c-3.333-8-5-14-5-18-6-26-9-47-9-63 0-20.668 6.167-35.168 18.5-43.5s33.833-14.167 64.5-17.5c21.333 0 35.166.333 41.5 1s19.665 3.334 39.998 8 36 9.835 47 15.502 26.167 15 45.5 28 30.166 20.5 32.5 22.5 4.5 3 6.5 3c8.666 6.667 16.333 10 23 10s11-2.667 13-8c2.667-8.667 4-15 4-19z"/><glyph glyph-name="egrave" unicode="è" horiz-adv-x="479" d="M438 111c0-10.667-2.167-19.834-6.5-27.5S418.334 67.33 405 58l-16-13-6-4c-8-4.668-14.5-8.168-19.5-10.5s-18.332-8.167-40-17.5S281.335-3.333 262-8s-38.665-7-57.998-7c-73.333 0-119.666 21.5-139 64.5s-30.5 70.333-33.5 82-4.5 24.167-4.5 37.5c0 12.667.168 25.334.5 38s3.167 31.335 8.5 56.002 14.5 49.667 27.5 75 29.833 49.166 50.5 71.5 37.834 38.832 51.5 49.5 28.835 19.5 45.502 26.5 31.667 12.5 45 16.5 25.666 6 37 6c14 0 26.166-2.668 36.5-8s24.165-13.834 41.498-25.5 31.5-25.168 42.5-40.5 18.5-34.334 22.5-57l2-24v-49c0-32.668-3.333-53.335-10-62.002s-22.667-14.334-48-17l-9-2-26-2-104-22-85-19-19-5-3-1-14-5c-12.667-2.668-19-10-19-22 0-3.334.5-7.5 1.5-12.5s3.167-14.668 6.5-29 10.666-24.834 22-31.5S159.666 64 183 64l21 1h6c35.333 4.666 79.333 20.333 132 47l30 18 23 13c2.667 1.333 6.667 2 12 2 18.667 0 29-11.333 31-34zm-91 267c0 8.667-.667 14.665-2 17.998-1.333 8.667-4.333 17.334-9 26s-11.667 13-21 13c-11.333 0-25.333-4.832-42-14.5s-29.167-17.666-37.5-24S215.667 380.334 201 367s-28-28.666-40-46l-18-28c-6-8-10.167-14.5-12.5-19.5S127 264.67 127 262l1-11c3.333 2.668 8.833 5.168 16.5 7.5S179 265.668 225 273l49 10 14 3 33 9c12 2.667 19.333 8.167 22 16.5s4 30.5 4 66.5zm-2 217.998c1.333-3.333.002-8.67-3.998-16.002-6.667-16-17-24-31-24-8 0-17.833 2.833-29.5 8.5s-24.5 14.834-38.5 27.5l-26 22-17 15c-9.333 7.334-18.833 15.5-28.5 24.5s-14.5 17.5-14.5 25.5c0 4 1.667 10.168 5 18.5l10 24.5c3.333 8 6.666 14 10 18s7.332 6.334 12 7 7.666-.332 9-3c14.666-16.666 32.666-33.666 54-51 5.332-5.332 10.165-9.665 14.498-12.998s8.5-6.333 12.5-9l11-14 8-8 31-31 3-4c6-5.333 9-11.333 9-18z"/><glyph glyph-name="eacute" unicode="é" horiz-adv-x="479" d="M438 111c0-10.667-2.167-19.834-6.5-27.5S418.334 67.33 405 58l-16-13-6-4c-8-4.668-14.5-8.168-19.5-10.5s-18.332-8.167-40-17.5S281.335-3.333 262-8s-38.665-7-57.998-7c-73.333 0-119.666 21.5-139 64.5s-30.5 70.333-33.5 82-4.5 24.167-4.5 37.5c0 12.667.168 25.334.5 38s3.167 31.335 8.5 56.002 14.5 49.667 27.5 75 29.833 49.166 50.5 71.5 37.834 38.832 51.5 49.5 28.835 19.5 45.502 26.5 31.667 12.5 45 16.5 25.666 6 37 6c14 0 26.166-2.668 36.5-8s24.165-13.834 41.498-25.5 31.5-25.168 42.5-40.5 18.5-34.334 22.5-57l2-24v-49c0-32.668-3.333-53.335-10-62.002s-22.667-14.334-48-17l-9-2-26-2-104-22-85-19-19-5-3-1-14-5c-12.667-2.668-19-10-19-22 0-3.334.5-7.5 1.5-12.5s3.167-14.668 6.5-29 10.666-24.834 22-31.5S159.666 64 183 64l21 1h6c35.333 4.666 79.333 20.333 132 47l30 18 23 13c2.667 1.333 6.667 2 12 2 18.667 0 29-11.333 31-34zm-91 267c0 8.667-.667 14.665-2 17.998-1.333 8.667-4.333 17.334-9 26s-11.667 13-21 13c-11.333 0-25.333-4.832-42-14.5s-29.167-17.666-37.5-24S215.667 380.334 201 367s-28-28.666-40-46l-18-28c-6-8-10.167-14.5-12.5-19.5S127 264.67 127 262l1-11c3.333 2.668 8.833 5.168 16.5 7.5S179 265.668 225 273l49 10 14 3 33 9c12 2.667 19.333 8.167 22 16.5s4 30.5 4 66.5zm-7 325.998c5.333-12 9.666-22.166 13-30.5s5-14.832 5-19.5c0-8.666-14.334-25.333-43-50l-16-14-27-22c-13.334-12-26-21.167-38-27.5s-22-9.5-30-9.5c-14 0-23.168 5.167-27.5 15.5s-6.667 16.5-7 18.5-.5 4-.5 6c0 5.333 2.667 11.666 8 19l4 3 32 31 6 9 12 13 28 23c10 8 19.667 16.332 29 25s17 17.333 23 26c6.667 6.667 14 4.667 22-6 4-2.667 6.333-6 7-10z"/><glyph glyph-name="ecircumflex" unicode="ê" horiz-adv-x="479" d="M438 111c0-10.667-2.167-19.834-6.5-27.5S418.334 67.33 405 58l-16-13-6-4c-8-4.668-14.5-8.168-19.5-10.5s-18.332-8.167-40-17.5S281.335-3.333 262-8s-38.665-7-57.998-7c-73.333 0-119.666 21.5-139 64.5s-30.5 70.333-33.5 82-4.5 24.167-4.5 37.5c0 12.667.168 25.334.5 38s3.167 31.335 8.5 56.002 14.5 49.667 27.5 75 29.833 49.166 50.5 71.5 37.834 38.832 51.5 49.5 28.835 19.5 45.502 26.5 31.667 12.5 45 16.5 25.666 6 37 6c14 0 26.166-2.668 36.5-8s24.165-13.834 41.498-25.5 31.5-25.168 42.5-40.5 18.5-34.334 22.5-57l2-24v-49c0-32.668-3.333-53.335-10-62.002s-22.667-14.334-48-17l-9-2-26-2-104-22-85-19-19-5-3-1-14-5c-12.667-2.668-19-10-19-22 0-3.334.5-7.5 1.5-12.5s3.167-14.668 6.5-29 10.666-24.834 22-31.5S159.666 64 183 64l21 1h6c35.333 4.666 79.333 20.333 132 47l30 18 23 13c2.667 1.333 6.667 2 12 2 18.667 0 29-11.333 31-34zm-91 267c0 8.667-.667 14.665-2 17.998-1.333 8.667-4.333 17.334-9 26s-11.667 13-21 13c-11.333 0-25.333-4.832-42-14.5s-29.167-17.666-37.5-24S215.667 380.334 201 367s-28-28.666-40-46l-18-28c-6-8-10.167-14.5-12.5-19.5S127 264.67 127 262l1-11c3.333 2.668 8.833 5.168 16.5 7.5S179 265.668 225 273l49 10 14 3 33 9c12 2.667 19.333 8.167 22 16.5s4 30.5 4 66.5zm77 211.998l-1.002-15c-3.333-17.333-13.666-26-31-26-15.332 0-35 7.333-59 22l-28 16-17 10-22 13-22-13-17-10-28-16c-24.666-15.333-44.666-23-60-23-16.666 0-26.666 9-30 27l-1 15c0 5.333 3.334 10.666 10 16l4 2 33 23c6.668 5.332 13.835 10.665 21.502 15.998s17 10.833 28 16.5 21.333 12.334 31 20 17.5 13.5 23.5 17.5h14l56-38 48-32 33-23 4-2c6.667-5.332 10-10.665 10-15.998z"/><glyph glyph-name="edieresis" unicode="ë" horiz-adv-x="479" d="M438 111c0-10.667-2.167-19.834-6.5-27.5S418.334 67.33 405 58l-16-13-6-4c-8-4.668-14.5-8.168-19.5-10.5s-18.332-8.167-40-17.5S281.335-3.333 262-8s-38.665-7-57.998-7c-73.333 0-119.666 21.5-139 64.5s-30.5 70.333-33.5 82-4.5 24.167-4.5 37.5c0 12.667.168 25.334.5 38s3.167 31.335 8.5 56.002 14.5 49.667 27.5 75 29.833 49.166 50.5 71.5 37.834 38.832 51.5 49.5 28.835 19.5 45.502 26.5 31.667 12.5 45 16.5 25.666 6 37 6c14 0 26.166-2.668 36.5-8s24.165-13.834 41.498-25.5 31.5-25.168 42.5-40.5 18.5-34.334 22.5-57l2-24v-49c0-32.668-3.333-53.335-10-62.002s-22.667-14.334-48-17l-9-2-26-2-104-22-85-19-19-5-3-1-14-5c-12.667-2.668-19-10-19-22 0-3.334.5-7.5 1.5-12.5s3.167-14.668 6.5-29 10.666-24.834 22-31.5S159.666 64 183 64l21 1h6c35.333 4.666 79.333 20.333 132 47l30 18 23 13c2.667 1.333 6.667 2 12 2 18.667 0 29-11.333 31-34zm-91 267c0 8.667-.667 14.665-2 17.998-1.333 8.667-4.333 17.334-9 26s-11.667 13-21 13c-11.333 0-25.333-4.832-42-14.5s-29.167-17.666-37.5-24S215.667 380.334 201 367s-28-28.666-40-46l-18-28c-6-8-10.167-14.5-12.5-19.5S127 264.67 127 262l1-11c3.333 2.668 8.833 5.168 16.5 7.5S179 265.668 225 273l49 10 14 3 33 9c12 2.667 19.333 8.167 22 16.5s4 30.5 4 66.5zm58 226.998c0-18-5-32.332-15-43s-23.668-16-41-16c-4.668.668-8 1-10 1-28.668 4.668-43 24-43 58l3 26c8.666 32 23 49 43 51 18.666 3.334 33.833-4.833 45.5-24.5s17.5-37.167 17.5-52.5zm-161 0c0-34-14.337-53.334-43.004-58-20-2.668-36 1.332-48 12s-18 26-18 46c0 15.332 5.833 32.832 17.5 52.5s26.834 27.833 45.5 24.5c10.668-1.333 19.335-5.666 26.002-13s12.334-20 17-38z"/><glyph glyph-name="igrave" unicode="ì" horiz-adv-x="272" d="M251 45c2-8 3-14.667 3-20 0-7.333-3.167-12.833-9.5-16.5S226.667 1.333 210-2l-25-3-8-1-32-2-33-2-8-1c-8-1.333-19.333.834-34 6.5S45.166 9.67 39.5 21 31 40.668 31 46c0 12.667 19.332 25 58 37l4 1 4 6c.666 1.333.833 10.5.5 27.5S97 167.333 97 216l-3 127-14 5-16 1c-10.667 0-19.667 3-27 9-8 8.667-13.833 16.5-17.5 23.5S14 393.667 14 397c0 10.667 5.667 20 17 28s32 15.333 62 22l28 6c10.667 2.667 19 4 25 4 3.333 0 7-1 11-3s10.333-6 19-12 14-11 16-15 3-11.667 3-23l-1-25-4-109-2-136-1-14v-7c-.667-10 1-17 5-21l23-5c2.667 0 5-.333 7-1 2-2 6-4.5 12-7.5s11.667-14.167 17-33.5zm-11 512c1.333-3.333.002-8.67-3.998-16.002-6.667-16-17-24-31-24-8 0-17.833 2.833-29.5 8.5s-24.5 14.834-38.5 27.5l-26 22-17 15c-9.333 7.334-18.833 15.5-28.5 24.5s-14.5 17.5-14.5 25.5c0 4 1.667 10.168 5 18.5l10 24.5c3.333 8 6.666 14 10 18s7.332 6.334 12 7 7.666-.332 9-3c14.666-16.666 32.666-33.666 54-51 5.332-5.332 10.165-9.665 14.498-12.998s8.5-6.333 12.5-9l11-14 8-8 31-31 3-4c6-5.333 9-11.333 9-18z"/><glyph glyph-name="iacute" unicode="í" horiz-adv-x="272" d="M251 45c2-8 3-14.667 3-20 0-7.333-3.167-12.833-9.5-16.5S226.667 1.333 210-2l-25-3-8-1-32-2-33-2-8-1c-8-1.333-19.333.834-34 6.5S45.166 9.67 39.5 21 31 40.668 31 46c0 12.667 19.332 25 58 37l4 1 4 6c.666 1.333.833 10.5.5 27.5S97 167.333 97 216l-3 127-14 5-16 1c-10.667 0-19.667 3-27 9-8 8.667-13.833 16.5-17.5 23.5S14 393.667 14 397c0 10.667 5.667 20 17 28s32 15.333 62 22l28 6c10.667 2.667 19 4 25 4 3.333 0 7-1 11-3s10.333-6 19-12 14-11 16-15 3-11.667 3-23l-1-25-4-109-2-136-1-14v-7c-.667-10 1-17 5-21l23-5c2.667 0 5-.333 7-1 2-2 6-4.5 12-7.5s11.667-14.167 17-33.5zm-37 638c5.333-12 9.666-22.166 13-30.5s5-14.832 5-19.5c0-8.666-14.334-25.333-43-50l-16-14-27-22c-13.334-12-26-21.167-38-27.5S86 510 78 510c-14 0-23.168 5.167-27.5 15.5s-6.667 16.5-7 18.5-.5 4-.5 6c0 5.333 2.667 11.666 8 19l4 3 32 31 6 9 12 13 28 23c10 8 19.667 16.332 29 25s17 17.333 23 26c6.667 6.667 14 4.667 22-6 4-2.667 6.333-6 7-10z"/><glyph glyph-name="icircumflex" unicode="î" horiz-adv-x="272" d="M251 45c2-8 3-14.667 3-20 0-7.333-3.167-12.833-9.5-16.5S226.667 1.333 210-2l-25-3-8-1-32-2-33-2-8-1c-8-1.333-19.333.834-34 6.5S45.166 9.67 39.5 21 31 40.668 31 46c0 12.667 19.332 25 58 37l4 1 4 6c.666 1.333.833 10.5.5 27.5S97 167.333 97 216l-3 127-14 5-16 1c-10.667 0-19.667 3-27 9-8 8.667-13.833 16.5-17.5 23.5S14 393.667 14 397c0 10.667 5.667 20 17 28s32 15.333 62 22l28 6c10.667 2.667 19 4 25 4 3.333 0 7-1 11-3s10.333-6 19-12 14-11 16-15 3-11.667 3-23l-1-25-4-109-2-136-1-14v-7c-.667-10 1-17 5-21l23-5c2.667 0 5-.333 7-1 2-2 6-4.5 12-7.5s11.667-14.167 17-33.5zm19 488l-1-14.998c-3.333-17.333-12.333-26-27-26s-32.667 7.333-54 22l-25 16-15 10-20 13-20-13-15-10-25-16c-22-15.333-40-23-54-23-14.667 0-23.667 9-27 27l-1 15c0 5.333 3 10.666 9 16l3 2 30 23c6 5.332 12.333 10.665 19 15.998s14.667 10.666 24 16 18.833 12 28.5 20 17.167 14 22.5 18h12l51-38 43-32 30-23 3-2c6-5.334 9-10.667 9-16z"/><glyph glyph-name="idieresis" unicode="ï" horiz-adv-x="272" d="M251 45c2-8 3-14.667 3-20 0-7.333-3.167-12.833-9.5-16.5S226.667 1.333 210-2l-25-3-8-1-32-2-33-2-8-1c-8-1.333-19.333.834-34 6.5S45.166 9.67 39.5 21 31 40.668 31 46c0 12.667 19.332 25 58 37l4 1 4 6c.666 1.333.833 10.5.5 27.5S97 167.333 97 216l-3 127-14 5-16 1c-10.667 0-19.667 3-27 9-8 8.667-13.833 16.5-17.5 23.5S14 393.667 14 397c0 10.667 5.667 20 17 28s32 15.333 62 22l28 6c10.667 2.667 19 4 25 4 3.333 0 7-1 11-3s10.333-6 19-12 14-11 16-15 3-11.667 3-23l-1-25-4-109-2-136-1-14v-7c-.667-10 1-17 5-21l23-5c2.667 0 5-.333 7-1 2-2 6-4.5 12-7.5s11.667-14.167 17-33.5zm17 530c0-18-5-32.332-15-43s-23.668-16-41-16c-4.668.668-8 1-10 1-28.668 4.668-43 24-43 58l3 26c8.666 32 23 49 43 51 18.666 3.334 33.833-4.833 45.5-24.5S268 590.333 268 575zm-161 0c0-34-14.337-53.334-43.004-58-20-2.668-36 1.332-48 12s-18 26-18 46c0 15.332 5.833 32.832 17.5 52.5s26.834 27.833 45.5 24.5c10.668-1.333 19.335-5.666 26.002-13s12.334-20 17-38z"/><glyph glyph-name="eth" unicode="ð"/><glyph glyph-name="ntilde" unicode="ñ" horiz-adv-x="540" d="M539 60c2.667-16.667-2.17-29-14.504-37s-36.166-12-71.5-12h-32c-34 0-56 1.833-66 5.5s-17.5 12-22.5 25-7.5 21.833-7.5 26.5c0 13.333 10 20 30 20 19.334 0 30.167 2.833 32.5 8.5s3.5 26.5 3.5 62.5l-3 111-1 8c-1.333 18.667-2.833 32.834-4.5 42.5s-5.167 20.835-10.5 33.502-13.666 21.667-25 27-29.332 8-54 8c-12 0-27.332-3.667-46-11l-10-4-18-7c-18.666-8.667-30.666-19.667-36-33s-8-41.333-8-84l-1-92v-24l1-56 26-9c19.334-7.333 29-18.666 29-34 0-7.332-2.332-14-7-20s-10.833-10.832-18.5-14.5-17.5-6.166-29.5-7.5l-39-6-5-1c-8-1.332-15.5-2-22.5-2h-15.5c-9.333 0-19.666.834-31 2.5s-21.5 10.168-30.5 25.5-13.5 26.334-13.5 33 5.334 12.335 16 17.002l35 9 6 3c4.668 3.333 7 9.666 7 19 0 5.332-.332 23.665-1 54.998s-1 54.333-1 69c-.666 61.333-1 98.666-1 112v15c1.334 6 2 10 2 12-2 4-4 7-6 9l-25 5c-20.666 4-33.666 15-39 33-1.332 8-2 13-2 15 0 10.666 5.334 18.666 16 24s24.835 10 42.502 14 29 6.5 34 7.5 10.167 1.832 15.5 2.5h24c11.333 0 18.833-1.834 22.5-5.5s6.5-11.835 8.5-24.502c.667-1.333 3.167-1.666 7.5-1s14.333 2.835 30 6.502 33.167 5.5 52.5 5.5c11.333 0 20-.333 26-1 24 0 42.667-2.167 56-6.5s31.833-13.5 55.5-27.5 42-31.167 55-51.5 21-41 24-62 4.5-38.5 4.5-52.5l-3-139c-1.333-2.667 3.334-6.334 14-11S516.334 86.666 529 82c4.667-2.667 8-10 10-22zM409.995 594c0-18.667-.666-30.002-2-34.002s-4.665-9.667-9.998-17l-9-10c-6.667-9.333-15.5-16.5-26.5-21.5s-23.833-7.5-38.5-7.5c-12 0-24.167 2.167-36.5 6.5s-23 9.5-32 15.5-16.833 12.167-23.5 18.5-13.834 12.666-21.5 19-13.835 9.5-18.502 9.5c-2.667 0-5.334-.668-8-2s-6.5-3.834-11.5-7.5-9.668-8.835-14-15.502-6.5-15-6.5-25c0-8.667-6-13-18-13-9.334 0-19 3.167-29 9.5s-15 13.833-15 22.5c0 6.667 1 15.834 3 27.5s6 21.335 12 29.002 14.5 17.667 25.5 30 25.5 18.5 43.5 18.5c12 0 20.5-.5 25.5-1.5s12.832-4.5 23.5-10.5l16-13c19.332-18.667 35.665-31.5 48.998-38.5s23.333-10.5 30-10.5c4.667-.667 8.834-.5 12.5.5s5.835 4.167 6.502 9.5c-.667 4-.167 7.667 1.5 11s2.5 12 2.5 26c-.667 10.667 3.5 17.334 12.5 20s16.167 4.335 21.5 5.002c4 3.333 8.333 5 13 5 8 0 13.667-6.167 17-18.5s5-24.833 5-37.5z"/></font>
</defs>
</svg>
